0
SECTION
2
HEADER
9
$INSUNITS
70
4
9
$ACADVER
1
AC1014
9
$HANDSEED
5
FFFF
0
ENDSEC
0
SECTION
2
TABLES
0
TABLE
2
VPORT
5
8
100
AcDbSymbolTable
0
ENDTAB
0
TABLE
2
LTYPE
5
5
100
AcDbSymbolTable
0
LTYPE
5
14
100
AcDbSymbolTableRecord
100
AcDbLinetypeTableRecord
2
BYBLOCK
70
0
0
LTYPE
5
15
100
AcDbSymbolTableRecord
100
AcDbLinetypeTableRecord
2
BYLAYER
70
0
0
LTYPE
5
16
100
AcDbSymbolTableRecord
100
AcDbLinetypeTableRecord
2
DASHED
70
0
3
Dashed __ __ __ __ __ __ __ __ __ __ __ __ __ _
72
65
73
2
40
0.75
49
0.5
74
0
49
-0.25
74
0
0
ENDTAB
0
TABLE
2
LAYER
5
2
100
AcDbSymbolTable
70
2
0
LAYER
5
50
100
AcDbSymbolTableRecord
100
AcDbLayerTableRecord
2
0
70
0
62
7
6
CONTINUOUS
0
ENDTAB
0
TABLE
2
STYLE
5
3
100
AcDbSymbolTable
70
1
0
STYLE
5
11
100
AcDbSymbolTableRecord
100
AcDbTextStyleTableRecord
2
STANDARD
70
0
0
ENDTAB
0
TABLE
2
VIEW
5
6
100
AcDbSymbolTable
70
0
0
ENDTAB
0
TABLE
2
UCS
5
7
100
AcDbSymbolTable
70
0
0
ENDTAB
0
TABLE
2
APPID
5
9
100
AcDbSymbolTable
70
2
0
APPID
5
12
100
AcDbSymbolTableRecord
100
AcDbRegAppTableRecord
2
ACAD
70
0
0
ENDTAB
0
TABLE
2
DIMSTYLE
5
A
100
AcDbSymbolTable
70
1
0
ENDTAB
0
TABLE
2
BLOCK_RECORD
5
1
100
AcDbSymbolTable
70
1
0
BLOCK_RECORD
5
1F
100
AcDbSymbolTableRecord
100
AcDbBlockTableRecord
2
*MODEL_SPACE
0
BLOCK_RECORD
5
1B
100
AcDbSymbolTableRecord
100
AcDbBlockTableRecord
2
*PAPER_SPACE
0
ENDTAB
0
ENDSEC
0
SECTION
2
BLOCKS
0
BLOCK
5
20
100
AcDbEntity
100
AcDbBlockBegin
2
*MODEL_SPACE
0
ENDBLK
5
21
100
AcDbEntity
100
AcDbBlockEnd
0
BLOCK
5
1C
100
AcDbEntity
100
AcDbBlockBegin
2
*PAPER_SPACE
0
ENDBLK
5
1D
100
AcDbEntity
100
AcDbBlockEnd
0
ENDSEC
0
SECTION
2
ENTITIES
0
LWPOLYLINE
5
100
100
AcDbEntity
8
0
100
AcDbPolyline
90
60
70
1
43
0.0
10
5.6999999999999478
20
-6.0000008821487842
10
-5.7000008344650226
20
-6.0000000894069672
10
-5.7000008344650226
20
-10.500000089406967
10
-6.9000008344650237
20
-10.500000089406967
10
-6.9000008344650237
20
-8.0000001192092896
10
-10.500000834465022
20
-8.0000001192092896
10
-10.500000834465022
20
-10.500000089406967
10
-20.900000834465025
20
-10.500000089406967
10
-20.900000834465025
20
-8.0000001192092896
10
-24.500000834465023
20
-8.0000001192092896
10
-24.500000834465023
20
-10.500000089406967
10
-25.700000834465023
20
-10.500000089406967
10
-25.700000834465023
20
-6.0000000894069672
10
-28.000000834465027
20
-6.0000000894069672
10
-28.000000834465027
20
-20.000000298023224
10
-24.300000834465017
20
-20.000000298023224
10
-24.300000834465017
20
-16.000000298023224
10
-23.300000834465017
20
-16.000000298023224
10
-23.300000834465017
20
-18.000000298023227
10
-20.700000834465023
20
-18.000000298023227
10
-20.700000834465023
20
-16.000000298023224
10
-19.700000834465023
20
-16.000000298023224
10
-19.700000834465019
20
-20.000000298023224
10
-17.100000834465021
20
-20.00000029802322
10
-17.100000834465018
20
-16.000000298023224
10
-16.100000834465014
20
-16.000000298023224
10
-16.100000834465014
20
-18.000000298023227
10
-13.500000834465013
20
-18.000000298023227
10
-13.500000834465013
20
-16.00000029802322
10
-12.500000834465013
20
-16.00000029802322
10
-12.500000834465013
20
-20.00000029802322
10
12.499999165534996
20
-20.00000029802321
10
12.499999165534996
20
-16.00000029802321
10
13.499999165534998
20
-16.00000029802321
10
13.499999165534998
20
-18.00000029802321
10
16.099999165535003
20
-18.00000029802321
10
16.099999165535003
20
-16.000000298023206
10
17.099999165535003
20
-16.000000298023206
10
17.099999165535003
20
-20.00000029802321
10
19.699999165535004
20
-20.000000298023206
10
19.699999165535004
20
-16.000000298023206
10
20.699999165535008
20
-16.000000298023206
10
20.699999165535008
20
-18.00000029802321
10
23.299999165534999
20
-18.00000029802321
10
23.299999165534999
20
-16.000000298023206
10
24.299999165535002
20
-16.000000298023206
10
24.299999165535002
20
-20.000000298023206
10
27.999999165535002
20
-20.000000298023206
10
28
20
-6.0000000894069672
10
25.699999999999768
20
-6.0000000894069672
10
25.699999374151012
20
-10.50000366369877
10
24.49999937415101
20
-10.500003496805768
10
24.499999721844759
20
-8.0000035266081149
10
20.899999721844793
20
-8.0000030259291108
10
20.899999374151044
20
-10.500002996126764
10
10.499999374151148
20
-10.500001549720748
10
10.499999721844897
20
-8.0000015795230937
10
6.8999997218449316
20
-8.0000010788440896
10
6.8999993741511823
20
-10.500001049041741
10
5.6999993741511901
20
-10.50000088214874
0
ENDSEC
0
SECTION
2
OBJECTS
0
DICTIONARY
5
C
100
AcDbDictionary
3
ACAD_GROUP
350
D
3
ACAD_MLINESTYLE
350
17
0
DICTIONARY
5
D
100
AcDbDictionary
0
DICTIONARY
5
1A
330
C
100
AcDbDictionary
0
DICTIONARY
5
17
100
AcDbDictionary
0
ENDSEC
0
EOF
