  0
SECTION
  2
HEADER
  9
$ACADVER
  1
AC1032
  9
$ACADMAINTVER
 90
      228
  9
$DWGCODEPAGE
  3
ANSI_949
  9
$REQUIREDVERSIONS
160
                 0
  9
$INSBASE
 10
0.0
 20
0.0
 30
0.0
  9
$EXTMIN
 10
1.000000000000000E+20
 20
1.000000000000000E+20
 30
1.000000000000000E+20
  9
$EXTMAX
 10
-1.000000000000000E+20
 20
-1.000000000000000E+20
 30
-1.000000000000000E+20
  9
$LIMMIN
 10
0.0
 20
0.0
  9
$LIMMAX
 10
12.0
 20
9.0
  9
$ORTHOMODE
 70
     0
  9
$REGENMODE
 70
     1
  9
$FILLMODE
 70
     1
  9
$QTEXTMODE
 70
     0
  9
$MIRRTEXT
 70
     0
  9
$LTSCALE
 40
1.0
  9
$ATTMODE
 70
     1
  9
$TEXTSIZE
 40
0.2
  9
$TRACEWID
 40
0.05
  9
$TEXTSTYLE
  7
Standard
  9
$CLAYER
  8
0
  9
$CELTYPE
  6
ByLayer
  9
$CECOLOR
 62
   256
  9
$CELTSCALE
 40
1.0
  9
$DISPSILH
 70
     0
  9
$DIMSCALE
 40
1.0
  9
$DIMASZ
 40
0.18
  9
$DIMEXO
 40
0.0625
  9
$DIMDLI
 40
0.38
  9
$DIMRND
 40
0.0
  9
$DIMDLE
 40
0.0
  9
$DIMEXE
 40
0.18
  9
$DIMTP
 40
0.0
  9
$DIMTM
 40
0.0
  9
$DIMTXT
 40
0.18
  9
$DIMCEN
 40
0.09
  9
$DIMTSZ
 40
0.0
  9
$DIMTOL
 70
     0
  9
$DIMLIM
 70
     0
  9
$DIMTIH
 70
     1
  9
$DIMTOH
 70
     1
  9
$DIMSE1
 70
     0
  9
$DIMSE2
 70
     0
  9
$DIMTAD
 70
     0
  9
$DIMZIN
 70
     0
  9
$DIMBLK
  1

  9
$DIMASO
 70
     1
  9
$DIMSHO
 70
     1
  9
$DIMPOST
  1

  9
$DIMAPOST
  1

  9
$DIMALT
 70
     0
  9
$DIMALTD
 70
     2
  9
$DIMALTF
 40
25.4
  9
$DIMLFAC
 40
1.0
  9
$DIMTOFL
 70
     0
  9
$DIMTVP
 40
0.0
  9
$DIMTIX
 70
     0
  9
$DIMSOXD
 70
     0
  9
$DIMSAH
 70
     0
  9
$DIMBLK1
  1

  9
$DIMBLK2
  1

  9
$DIMSTYLE
  2
Standard
  9
$DIMCLRD
 70
     0
  9
$DIMCLRE
 70
     0
  9
$DIMCLRT
 70
     0
  9
$DIMTFAC
 40
1.0
  9
$DIMGAP
 40
0.09
  9
$DIMJUST
 70
     0
  9
$DIMSD1
 70
     0
  9
$DIMSD2
 70
     0
  9
$DIMTOLJ
 70
     1
  9
$DIMTZIN
 70
     0
  9
$DIMALTZ
 70
     0
  9
$DIMALTTZ
 70
     0
  9
$DIMUPT
 70
     0
  9
$DIMDEC
 70
     4
  9
$DIMTDEC
 70
     4
  9
$DIMALTU
 70
     2
  9
$DIMALTTD
 70
     2
  9
$DIMTXSTY
  7
Standard
  9
$DIMAUNIT
 70
     0
  9
$DIMADEC
 70
     0
  9
$DIMALTRND
 40
0.0
  9
$DIMAZIN
 70
     0
  9
$DIMDSEP
 70
    46
  9
$DIMATFIT
 70
     3
  9
$DIMFRAC
 70
     0
  9
$DIMLDRBLK
  1

  9
$DIMLUNIT
 70
     2
  9
$DIMLWD
 70
    -2
  9
$DIMLWE
 70
    -2
  9
$DIMTMOVE
 70
     0
  9
$DIMFXL
 40
1.0
  9
$DIMFXLON
 70
     0
  9
$DIMJOGANG
 40
0.7853981633974483
  9
$DIMTFILL
 70
     0
  9
$DIMTFILLCLR
 70
     0
  9
$DIMARCSYM
 70
     0
  9
$DIMLTYPE
  6

  9
$DIMLTEX1
  6

  9
$DIMLTEX2
  6

  9
$DIMTXTDIRECTION
 70
     0
  9
$LUNITS
 70
     2
  9
$LUPREC
 70
     4
  9
$SKETCHINC
 40
0.1
  9
$FILLETRAD
 40
0.0
  9
$AUNITS
 70
     0
  9
$AUPREC
 70
     0
  9
$MENU
  1
.
  9
$ELEVATION
 40
0.0
  9
$PELEVATION
 40
0.0
  9
$THICKNESS
 40
0.0
  9
$LIMCHECK
 70
     0
  9
$CHAMFERA
 40
0.0
  9
$CHAMFERB
 40
0.0
  9
$CHAMFERC
 40
0.0
  9
$CHAMFERD
 40
0.0
  9
$SKPOLY
 70
     0
  9
$TDCREATE
 40
2460362.481435185
  9
$TDUCREATE
 40
2460362.106435185
  9
$TDUPDATE
 40
2460362.481435185
  9
$TDUUPDATE
 40
2460362.106435185
  9
$TDINDWG
 40
0.0000000000
  9
$TDUSRTIMER
 40
0.0000000000
  9
$USRTIMER
 70
     1
  9
$ANGBASE
 50
0.0
  9
$ANGDIR
 70
     0
  9
$PDMODE
 70
     0
  9
$PDSIZE
 40
0.0
  9
$PLINEWID
 40
0.0
  9
$SPLFRAME
 70
     0
  9
$SPLINETYPE
 70
     6
  9
$SPLINESEGS
 70
     8
  9
$HANDSEED
  5
B2
  9
$SURFTAB1
 70
     6
  9
$SURFTAB2
 70
     6
  9
$SURFTYPE
 70
     6
  9
$SURFU
 70
     6
  9
$SURFV
 70
     6
  9
$UCSBASE
  2

  9
$UCSNAME
  2

  9
$UCSORG
 10
0.0
 20
0.0
 30
0.0
  9
$UCSXDIR
 10
1.0
 20
0.0
 30
0.0
  9
$UCSYDIR
 10
0.0
 20
1.0
 30
0.0
  9
$UCSORTHOREF
  2

  9
$UCSORTHOVIEW
 70
     0
  9
$UCSORGTOP
 10
0.0
 20
0.0
 30
0.0
  9
$UCSORGBOTTOM
 10
0.0
 20
0.0
 30
0.0
  9
$UCSORGLEFT
 10
0.0
 20
0.0
 30
0.0
  9
$UCSORGRIGHT
 10
0.0
 20
0.0
 30
0.0
  9
$UCSORGFRONT
 10
0.0
 20
0.0
 30
0.0
  9
$UCSORGBACK
 10
0.0
 20
0.0
 30
0.0
  9
$PUCSBASE
  2

  9
$PUCSNAME
  2

  9
$PUCSORG
 10
0.0
 20
0.0
 30
0.0
  9
$PUCSXDIR
 10
1.0
 20
0.0
 30
0.0
  9
$PUCSYDIR
 10
0.0
 20
1.0
 30
0.0
  9
$PUCSORTHOREF
  2

  9
$PUCSORTHOVIEW
 70
     0
  9
$PUCSORGTOP
 10
0.0
 20
0.0
 30
0.0
  9
$PUCSORGBOTTOM
 10
0.0
 20
0.0
 30
0.0
  9
$PUCSORGLEFT
 10
0.0
 20
0.0
 30
0.0
  9
$PUCSORGRIGHT
 10
0.0
 20
0.0
 30
0.0
  9
$PUCSORGFRONT
 10
0.0
 20
0.0
 30
0.0
  9
$PUCSORGBACK
 10
0.0
 20
0.0
 30
0.0
  9
$USERI1
 70
     0
  9
$USERI2
 70
     0
  9
$USERI3
 70
     0
  9
$USERI4
 70
     0
  9
$USERI5
 70
     0
  9
$USERR1
 40
0.0
  9
$USERR2
 40
0.0
  9
$USERR3
 40
0.0
  9
$USERR4
 40
0.0
  9
$USERR5
 40
0.0
  9
$WORLDVIEW
 70
     1
  9
$SHADEDGE
 70
     3
  9
$SHADEDIF
 70
    70
  9
$TILEMODE
 70
     1
  9
$MAXACTVP
 70
    64
  9
$PINSBASE
 10
0.0
 20
0.0
 30
0.0
  9
$PLIMCHECK
 70
     0
  9
$PEXTMIN
 10
1.000000000000000E+20
 20
1.000000000000000E+20
 30
1.000000000000000E+20
  9
$PEXTMAX
 10
-1.000000000000000E+20
 20
-1.000000000000000E+20
 30
-1.000000000000000E+20
  9
$PLIMMIN
 10
0.0
 20
0.0
  9
$PLIMMAX
 10
12.0
 20
9.0
  9
$UNITMODE
 70
     0
  9
$VISRETAIN
 70
     1
  9
$PLINEGEN
 70
     0
  9
$PSLTSCALE
 70
     1
  9
$TREEDEPTH
 70
  3020
  9
$CMLSTYLE
  2
Standard
  9
$CMLJUST
 70
     0
  9
$CMLSCALE
 40
1.0
  9
$PROXYGRAPHICS
 70
     1
  9
$MEASUREMENT
 70
     0
  9
$CELWEIGHT
370
    -1
  9
$ENDCAPS
280
     0
  9
$JOINSTYLE
280
     0
  9
$LWDISPLAY
290
     1
  9
$INSUNITS
 70
     4
  9
$HYPERLINKBASE
  1

  9
$STYLESHEET
  1

  9
$XEDIT
290
     1
  9
$CEPSNTYPE
380
     0
  9
$PSTYLEMODE
290
     1
  9
$FINGERPRINTGUID
  2
{2DF3DA00-CEB8-C94F-B6D1-E03322DA1245}
  9
$VERSIONGUID
  2
{230245B8-6C78-EE4C-A877-3F7D7C40B23E}
  9
$EXTNAMES
290
     1
  9
$PSVPSCALE
 40
0.0
  9
$OLESTARTUP
290
     0
  9
$SORTENTS
280
   127
  9
$INDEXCTL
280
     0
  9
$HIDETEXT
280
     1
  9
$XCLIPFRAME
280
     2
  9
$HALOGAP
280
     0
  9
$OBSCOLOR
 70
   257
  9
$OBSLTYPE
280
     0
  9
$INTERSECTIONDISPLAY
280
     0
  9
$INTERSECTIONCOLOR
 70
   257
  9
$DIMASSOC
280
     2
  9
$PROJECTNAME
  1

  9
$CAMERADISPLAY
290
     0
  9
$LENSLENGTH
 40
50.0
  9
$CAMERAHEIGHT
 40
0.0
  9
$STEPSPERSEC
 40
2.0
  9
$STEPSIZE
 40
6.0
  9
$3DDWFPREC
 40
2.0
  9
$PSOLWIDTH
 40
0.25
  9
$PSOLHEIGHT
 40
4.0
  9
$LOFTANG1
 40
1.570796326794896
  9
$LOFTANG2
 40
1.570796326794896
  9
$LOFTMAG1
 40
0.0
  9
$LOFTMAG2
 40
0.0
  9
$LOFTPARAM
 70
     7
  9
$LOFTNORMALS
280
     1
  9
$LATITUDE
 40
37.795
  9
$LONGITUDE
 40
-122.394
  9
$NORTHDIRECTION
 40
0.0
  9
$TIMEZONE
 70
 -8000
  9
$LIGHTGLYPHDISPLAY
280
     1
  9
$TILEMODELIGHTSYNCH
280
     1
  9
$CMATERIAL
347
11
  9
$SOLIDHIST
280
     0
  9
$SHOWHIST
280
     1
  9
$DWFFRAME
280
     2
  9
$DGNFRAME
280
     0
  9
$REALWORLDSCALE
290
     1
  9
$INTERFERECOLOR
 62
     1
  9
$INTERFEREOBJVS
345
33
  9
$INTERFEREVPVS
346
30
  9
$CSHADOW
280
     0
  9
$SHADOWPLANELOCATION
 40
0.0
  0
ENDSEC
  0
SECTION
  2
CLASSES
  0
CLASS
  1
ACDBDICTIONARYWDFLT
  2
AcDbDictionaryWithDefault
  3
ObjectDBX Classes
 90
        0
 91
        1
280
     0
281
     0
  0
CLASS
  1
MATERIAL
  2
AcDbMaterial
  3
ObjectDBX Classes
 90
     1153
 91
        3
280
     0
281
     0
  0
CLASS
  1
VISUALSTYLE
  2
AcDbVisualStyle
  3
ObjectDBX Classes
 90
     4095
 91
       24
280
     0
281
     0
  0
CLASS
  1
SCALE
  2
AcDbScale
  3
ObjectDBX Classes
 90
     1153
 91
       17
280
     0
281
     0
  0
CLASS
  1
TABLESTYLE
  2
AcDbTableStyle
  3
ObjectDBX Classes
 90
     4095
 91
        1
280
     0
281
     0
  0
CLASS
  1
MLEADERSTYLE
  2
AcDbMLeaderStyle
  3
ACDB_MLEADERSTYLE_CLASS
 90
     4095
 91
        1
280
     0
281
     0
  0
CLASS
  1
ACDBSECTIONVIEWSTYLE
  2
AcDbSectionViewStyle
  3
ObjectDBX Classes
 90
     1025
 91
        1
280
     0
281
     0
  0
CLASS
  1
ACDBDETAILVIEWSTYLE
  2
AcDbDetailViewStyle
  3
ObjectDBX Classes
 90
     1025
 91
        1
280
     0
281
     0
  0
CLASS
  1
DICTIONARYVAR
  2
AcDbDictionaryVar
  3
ObjectDBX Classes
 90
        0
 91
        5
280
     0
281
     0
  0
CLASS
  1
CELLSTYLEMAP
  2
AcDbCellStyleMap
  3
ObjectDBX Classes
 90
     1152
 91
        1
280
     0
281
     0
  0
ENDSEC
  0
SECTION
  2
TABLES
  0
TABLE
  2
VPORT
  5
8
330
0
100
AcDbSymbolTable
 70
     1
  0
VPORT
  5
57
330
8
100
AcDbSymbolTableRecord
100
AcDbViewportTableRecord
  2
*Active
 70
     0
 10
0.0
 20
0.0
 11
1.0
 21
1.0
 12
0.0
 22
0.0
 13
0.0
 23
0.0
 14
1.0
 24
1.0
 15
0.0
 25
0.0
 16
0.0
 26
0.0
 36
1.0
 17
104.9999970067687
 27
-148.5000119155985
 37
0.0
 40
302.940024307821
 41
0.7070706301791173
 42
50.0
 43
0.0
 44
0.0
 50
0.0
 51
0.0
 71
     0
 72
   100
 73
     1
 74
     1
 75
     0
 76
     0
 77
     0
 78
     0
281
     0
 65
     1
110
0.0
120
0.0
130
0.0
111
1.0
121
0.0
131
0.0
112
0.0
122
1.0
132
0.0
 79
     0
146
0.0
 60
     3
 61
     5
292
     1
282
     1
141
0.0
142
0.0
 63
   250
421
  3355443
  0
ENDTAB
  0
TABLE
  2
LTYPE
  5
5
330
0
100
AcDbSymbolTable
 70
     1
  0
LTYPE
  5
5B
330
5
100
AcDbSymbolTableRecord
100
AcDbLinetypeTableRecord
  2
ByBlock
 70
     0
  3

 72
    65
 73
     0
 40
0.0
  0
LTYPE
  5
5C
330
5
100
AcDbSymbolTableRecord
100
AcDbLinetypeTableRecord
  2
ByLayer
 70
     0
  3

 72
    65
 73
     0
 40
0.0
  0
LTYPE
  5
5D
330
5
100
AcDbSymbolTableRecord
100
AcDbLinetypeTableRecord
  2
Continuous
 70
     0
  3
Solid line
 72
    65
 73
     0
 40
0.0
  0
ENDTAB
  0
TABLE
  2
LAYER
  5
2
330
0
100
AcDbSymbolTable
 70
     2
  0
LAYER
  5
54
330
2
100
AcDbSymbolTableRecord
100
AcDbLayerTableRecord
  2
0
 70
     0
 62
     7
  6
Continuous
370
    -3
390
F
347
21
348
0
  0
LAYER
  5
78
330
2
100
AcDbSymbolTableRecord
100
AcDbLayerTableRecord
  2
Layer 1
 70
     0
 62
     7
  6
Continuous
370
     0
390
F
347
21
348
0
  0
ENDTAB
  0
TABLE
  2
STYLE
  5
3
330
0
100
AcDbSymbolTable
 70
     2
  0
STYLE
  5
55
330
3
100
AcDbSymbolTableRecord
100
AcDbTextStyleTableRecord
  2
Standard
 70
     0
 40
0.0
 41
1.0
 50
0.0
 71
     0
 42
0.2
  3
txt
  4

  0
STYLE
  5
5A
330
3
100
AcDbSymbolTableRecord
100
AcDbTextStyleTableRecord
  2
Annotative
 70
     0
 40
0.0
 41
1.0
 50
0.0
 71
     0
 42
0.2
  3
txt
  4

1001
AcadAnnotative
1000
AnnotativeData
1002
{
1070
     1
1070
     1
1002
}
  0
ENDTAB
  0
TABLE
  2
VIEW
  5
6
330
0
100
AcDbSymbolTable
 70
     0
  0
ENDTAB
  0
TABLE
  2
UCS
  5
7
330
0
100
AcDbSymbolTable
 70
     0
  0
ENDTAB
  0
TABLE
  2
APPID
  5
9
330
0
100
AcDbSymbolTable
 70
     2
  0
APPID
  5
56
330
9
100
AcDbSymbolTableRecord
100
AcDbRegAppTableRecord
  2
ACAD
 70
     0
  0
APPID
  5
5E
330
9
100
AcDbSymbolTableRecord
100
AcDbRegAppTableRecord
  2
AcadAnnotative
 70
     0
  0
ENDTAB
  0
TABLE
  2
DIMSTYLE
  5
A
330
0
100
AcDbSymbolTable
 70
     2
100
AcDbDimStyleTable
 71
     0
  0
DIMSTYLE
105
58
330
A
100
AcDbSymbolTableRecord
100
AcDbDimStyleTableRecord
  2
Standard
 70
     0
340
55
  0
DIMSTYLE
105
59
330
A
100
AcDbSymbolTableRecord
100
AcDbDimStyleTableRecord
  2
Annotative
 70
     0
340
55
1001
AcadAnnotative
1000
AnnotativeData
1002
{
1070
     1
1070
     1
1002
}
  0
ENDTAB
  0
TABLE
  2
BLOCK_RECORD
  5
1
330
0
100
AcDbSymbolTable
 70
     3
  0
BLOCK_RECORD
  5
70
330
1
100
AcDbSymbolTableRecord
100
AcDbBlockTableRecord
  2
*Model_Space
340
73
 70
     0
280
     1
281
     0
  0
BLOCK_RECORD
  5
6C
330
1
100
AcDbSymbolTableRecord
100
AcDbBlockTableRecord
  2
*Paper_Space
340
6F
 70
     0
280
     1
281
     0
  0
BLOCK_RECORD
  5
74
330
1
100
AcDbSymbolTableRecord
100
AcDbBlockTableRecord
  2
*Paper_Space0
340
77
 70
     0
280
     1
281
     0
  0
BLOCK_RECORD
  5
79
330
1
100
AcDbSymbolTableRecord
100
AcDbBlockTableRecord
  2
Block_0
340
0
102
{BLKREFS
331
7A
102
}
 70
     0
280
     1
281
     0
  0
BLOCK_RECORD
  5
83
330
1
100
AcDbSymbolTableRecord
100
AcDbBlockTableRecord
  2
Block_1
340
0
102
{BLKREFS
331
84
102
}
 70
     0
280
     1
281
     0
  0
ENDTAB
  0
ENDSEC
  0
SECTION
  2
BLOCKS
  0
BLOCK
  5
71
330
70
100
AcDbEntity
  8
0
100
AcDbBlockBegin
  2
*Model_Space
 70
     0
 10
0.0
 20
0.0
 30
0.0
  3
*Model_Space
  1

  0
ENDBLK
  5
72
330
70
100
AcDbEntity
  8
0
100
AcDbBlockEnd
  0
BLOCK
  5
6D
330
6C
100
AcDbEntity
 67
     1
  8
0
100
AcDbBlockBegin
  2
*Paper_Space
 70
     0
 10
0.0
 20
0.0
 30
0.0
  3
*Paper_Space
  1

  0
ENDBLK
  5
6E
330
6C
100
AcDbEntity
 67
     1
  8
0
100
AcDbBlockEnd
  0
BLOCK
  5
75
330
74
100
AcDbEntity
 67
     1
  8
0
100
AcDbBlockBegin
  2
*Paper_Space0
 70
     0
 10
0.0
 20
0.0
 30
0.0
  3
*Paper_Space0
  1

  0
ENDBLK
  5
76
330
74
100
AcDbEntity
 67
     1
  8
0
100
AcDbBlockEnd
  0
BLOCK
  5
7B
330
79
100
AcDbEntity
  8
0
100
AcDbBlockBegin
  2
Block_0
 70
     0
 10
0.0
 20
0.0
 30
0.0
  3
Block_0
  1

  0
SPLINE
  5
7D
330
79
100
AcDbEntity
  8
Layer 1
100
AcDbSpline
210
0.0
220
0.0
230
1.0
 70
     9
 71
     3
 72
    32
 73
    28
 74
     0
 42
0.0000000001
 43
0.0000000001
 40
0.0
 40
0.0
 40
0.0
 40
0.0
 40
1.0
 40
1.0
 40
1.0
 40
2.0
 40
2.0
 40
2.0
 40
3.0
 40
3.0
 40
3.0
 40
4.0
 40
4.0
 40
4.0
 40
5.0
 40
5.0
 40
5.0
 40
6.0
 40
6.0
 40
6.0
 40
7.0
 40
7.0
 40
7.0
 40
8.0
 40
8.0
 40
8.0
 40
9.0
 40
9.0
 40
9.0
 40
9.0
 10
129.8539037732972
 20
-154.1091787668852
 30
0.0
 10
126.677589722049
 20
-154.3459118656008
 30
0.0
 10
123.6384996326447
 20
-153.6802450825066
 30
0.0
 10
121.2933624327295
 20
-152.2517232956452
 30
0.0
 10
119.0227845524643
 20
-150.8691845922975
 30
0.0
 10
117.6860839093508
 20
-148.9291916620083
 30
0.0
 10
117.5305827602019
 20
-146.7917760924109
 30
0.0
 10
117.4986702109346
 20
-146.3519631296009
 30
0.0
 10
117.5297124179489
 20
-145.9144710795225
 30
0.0
 10
117.5973089995745
 20
-145.4801702844501
 30
0.0
 10
117.5973089995745
 20
-145.4801702844501
 30
0.0
 10
128.6664668265232
 20
-146.7497095491346
 30
0.0
 10
128.6664668265232
 20
-146.7497095491346
 30
0.0
 10
128.6664668265232
 20
-146.7497095491346
 30
0.0
 10
121.1960291574685
 20
-140.2887236729589
 30
0.0
 10
121.1960291574685
 20
-140.2887236729589
 30
0.0
 10
123.2269728041575
 20
-138.8612172854178
 30
0.0
 10
125.8398853038213
 20
-137.9704219672706
 30
0.0
 10
128.6635656856802
 20
-137.7658915327187
 30
0.0
 10
129.0781387120523
 20
-137.7347042678758
 30
0.0
 10
129.4886501412457
 20
-137.719908449205
 30
0.0
 10
129.8945197450899
 20
-137.719908449205
 30
0.0
 10
135.8177790029175
 20
-137.719908449205
 30
0.0
 10
140.6805262258242
 20
-140.8664858863086
 30
0.0
 10
140.9876119839878
 20
-145.0831491501454
 30
0.0
 10
141.3142804428354
 20
-149.5893462773624
 30
0.0
 10
136.3196763686438
 20
-153.6383235962749
 30
0.0
 10
129.8539037732972
 20
-154.1091787668852
 30
0.0
  0
SPLINE
  5
7E
330
79
100
AcDbEntity
  8
Layer 1
100
AcDbSpline
210
0.0
220
0.0
230
1.0
 70
     9
 71
     3
 72
    35
 73
    31
 74
     0
 42
0.0000000001
 43
0.0000000001
 40
0.0
 40
0.0
 40
0.0
 40
0.0
 40
1.0
 40
1.0
 40
1.0
 40
2.0
 40
2.0
 40
2.0
 40
3.0
 40
3.0
 40
3.0
 40
4.0
 40
4.0
 40
4.0
 40
5.0
 40
5.0
 40
5.0
 40
6.0
 40
6.0
 40
6.0
 40
7.0
 40
7.0
 40
7.0
 40
8.0
 40
8.0
 40
8.0
 40
9.0
 40
9.0
 40
9.0
 40
10.0
 40
10.0
 40
10.0
 40
10.0
 10
107.2283415149283
 20
-150.3253657276609
 30
0.0
 10
109.075497889254
 20
-151.839036000396
 30
0.0
 10
110.0137268376697
 20
-153.7114323473495
 30
0.0
 10
109.870265423015
 20
-155.5971739425157
 30
0.0
 10
109.5666610338636
 20
-159.5907394699393
 30
0.0
 10
104.5463818632176
 20
-162.4789703085063
 30
0.0
 10
98.67853439547884
 20
-162.0297286377173
 30
0.0
 10
92.81010669957149
 20
-161.583388107847
 30
0.0
 10
88.28287641508289
 20
-157.9727731812871
 30
0.0
 10
88.58590057606647
 20
-153.9819637377346
 30
0.0
 10
88.72936199072045
 20
-152.0947715721096
 30
0.0
 10
89.93942783606504
 20
-150.3848391164325
 30
0.0
 10
91.99358060949192
 20
-149.1686808445949
 30
0.0
 10
93.82942253453121
 20
-148.0810431153219
 30
0.0
 10
96.13249319223156
 20
-147.5034259590173
 30
0.0
 10
98.57917032162845
 20
-147.5034259590173
 30
0.0
 10
98.97546616069362
 20
-147.5034259590173
 30
0.0
 10
99.37596865397951
 20
-147.5182217776881
 30
0.0
 10
99.77835688881413
 20
-147.5494090425307
 30
0.0
 10
99.83130270918694
 20
-147.553325582767
 30
0.0
 10
99.88047704646495
 20
-147.567251059161
 30
0.0
 10
99.93327780979583
 20
-147.5716027705357
 30
0.0
 10
99.93327780979583
 20
-147.5716027705357
 30
0.0
 10
99.53466105805608
 20
-154.1497947397027
 30
0.0
 10
99.53466105805608
 20
-154.1497947397027
 30
0.0
 10
99.53466105805608
 20
-154.1497947397027
 30
0.0
 10
104.4207624647435
 20
-148.6856408821412
 30
0.0
 10
104.4207624647435
 20
-148.6856408821412
 30
0.0
 10
105.4550191750418
 20
-149.1270494724554
 30
0.0
 10
106.4174726494916
 20
-149.6607143438873
 30
0.0
 10
107.2283415149283
 20
-150.3253657276609
 30
0.0
  0
SPLINE
  5
7F
330
79
100
AcDbEntity
  8
Layer 1
100
AcDbSpline
210
0.0
220
0.0
230
1.0
 70
     9
 71
     3
 72
    32
 73
    28
 74
     0
 42
0.0000000001
 43
0.0000000001
 40
0.0
 40
0.0
 40
0.0
 40
0.0
 40
1.0
 40
1.0
 40
1.0
 40
2.0
 40
2.0
 40
2.0
 40
3.0
 40
3.0
 40
3.0
 40
4.0
 40
4.0
 40
4.0
 40
5.0
 40
5.0
 40
5.0
 40
6.0
 40
6.0
 40
6.0
 40
7.0
 40
7.0
 40
7.0
 40
8.0
 40
8.0
 40
8.0
 40
9.0
 40
9.0
 40
9.0
 40
9.0
 10
84.24813743337802
 20
-139.3445473619648
 30
0.0
 10
80.49551165899597
 20
-139.6205909200868
 30
0.0
 10
76.89763929336068
 20
-138.8764482752251
 30
0.0
 10
74.1251640473686
 20
-137.2558709597493
 30
0.0
 10
71.43638671467747
 20
-135.6825822411977
 30
0.0
 10
69.85773092531238
 20
-133.4720579205256
 30
0.0
 10
69.67974593463418
 20
-131.0301676118317
 30
0.0
 10
69.3050635948446
 20
-125.8881854529521
 30
0.0
 10
75.23165916464114
 20
-121.2494061858894
 30
0.0
 10
82.88994570323673
 20
-120.6920970159946
 30
0.0
 10
83.39924097811136
 20
-120.6542371270453
 30
0.0
 10
83.90244385721723
 20
-120.636685224506
 30
0.0
 10
84.40027962576444
 20
-120.636685224506
 30
0.0
 10
91.38956308611417
 20
-120.636685224506
 30
0.0
 10
97.10930731385115
 20
-124.2066841782472
 30
0.0
 10
97.45903984239619
 20
-129.0077822795393
 30
0.0
 10
97.50444269657936
 20
-129.6350089455004
 30
0.0
 10
97.45309250366936
 20
-130.2603498698665
 30
0.0
 10
97.31514325661569
 20
-130.8765522003492
 30
0.0
 10
97.31514325661569
 20
-130.8765522003492
 30
0.0
 10
80.70654710528376
 20
-129.0457872255335
 30
0.0
 10
80.70654710528376
 20
-129.0457872255335
 30
0.0
 10
80.70654710528376
 20
-129.0457872255335
 30
0.0
 10
92.57743520401467
 20
-136.7702199704704
 30
0.0
 10
92.57743520401467
 20
-136.7702199704704
 30
0.0
 10
90.24825427873315
 20
-138.2112166632689
 30
0.0
 10
87.35770260045688
 20
-139.1182583705434
 30
0.0
 10
84.24813743337802
 20
-139.3445473619648
 30
0.0
  0
SPLINE
  5
80
330
79
100
AcDbEntity
  8
Layer 1
100
AcDbSpline
210
0.0
220
0.0
230
1.0
 70
     9
 71
     3
 72
    41
 73
    37
 74
     0
 42
0.0000000001
 43
0.0000000001
 40
0.0
 40
0.0
 40
0.0
 40
0.0
 40
1.0
 40
1.0
 40
1.0
 40
2.0
 40
2.0
 40
2.0
 40
3.0
 40
3.0
 40
3.0
 40
4.0
 40
4.0
 40
4.0
 40
5.0
 40
5.0
 40
5.0
 40
6.0
 40
6.0
 40
6.0
 40
7.0
 40
7.0
 40
7.0
 40
8.0
 40
8.0
 40
8.0
 40
9.0
 40
9.0
 40
9.0
 40
10.0
 40
10.0
 40
10.0
 40
11.0
 40
11.0
 40
11.0
 40
12.0
 40
12.0
 40
12.0
 40
12.0
 10
109.1242370554055
 20
-122.4101526662365
 30
0.0
 10
105.8456809798581
 20
-120.3159640962821
 30
0.0
 10
103.9104517905738
 20
-117.374932493052
 30
0.0
 10
103.6737186978383
 20
-114.1295712077719
 30
0.0
 10
103.4377340198776
 20
-110.8829044090795
 30
0.0
 10
104.9264313135659
 20
-107.6929549152866
 30
0.0
 10
107.8674628424984
 20
-105.1470587047677
 30
0.0
 10
110.8653567319422
 20
-102.550972756407
 30
0.0
 10
114.9961461203237
 20
-100.941129662318
 30
0.0
 10
119.4988617646933
 20
-100.6137359099882
 30
0.0
 10
120.062408373321
 20
-100.5718144237571
 30
0.0
 10
120.6230538411043
 20
-100.5515064373487
 30
0.0
 10
121.1790574835411
 20
-100.5515064373487
 30
0.0
 10
125.067746668628
 20
-100.5515064373487
 30
0.0
 10
128.7405909750448
 20
-101.5471779995958
 30
0.0
 10
131.6646508300497
 20
-103.4140621788104
 30
0.0
 10
134.9432300959907
 20
-105.5082507487644
 30
0.0
 10
136.8784360948816
 20
-108.4491372949487
 30
0.0
 10
137.1151691876172
 20
-111.6944985802289
 30
0.0
 10
137.3511769951429
 20
-114.9413104359671
 30
0.0
 10
135.8617312866791
 20
-118.131259929759
 30
0.0
 10
132.9214250429567
 20
-120.6771561402792
 30
0.0
 10
129.9237000092112
 20
-123.2732420886399
 30
0.0
 10
125.7928868221747
 20
-124.8830851827289
 30
0.0
 10
121.2900261207605
 20
-125.2104789350584
 30
0.0
 10
120.1485722563382
 20
-125.2954823638857
 30
0.0
 10
119.0193031834534
 20
-125.2928713370614
 30
0.0
 10
117.9141135795598
 20
-125.2093184786913
 30
0.0
 10
117.9141135795598
 20
-125.2093184786913
 30
0.0
 10
122.8588180312629
 20
-110.0304041510187
 30
0.0
 10
122.8588180312629
 20
-110.0304041510187
 30
0.0
 10
122.8588180312629
 20
-110.0304041510187
 30
0.0
 10
111.355069306131
 20
-123.5883059920783
 30
0.0
 10
111.355069306131
 20
-123.5883059920783
 30
0.0
 10
110.576258047001
 20
-123.2424899949337
 30
0.0
 10
109.8244273977066
 20
-122.8572184813374
 30
0.0
 10
109.1242370554055
 20
-122.4101526662365
 30
0.0
  0
SPLINE
  5
81
330
79
100
AcDbEntity
  8
Layer 1
100
AcDbSpline
210
0.0
220
0.0
230
1.0
 70
     9
 71
     3
 72
   125
 73
   121
 74
     0
 42
0.0000000001
 43
0.0000000001
 40
0.0
 40
0.0
 40
0.0
 40
0.0
 40
1.0
 40
1.0
 40
1.0
 40
2.0
 40
2.0
 40
2.0
 40
3.0
 40
3.0
 40
3.0
 40
4.0
 40
4.0
 40
4.0
 40
5.0
 40
5.0
 40
5.0
 40
6.0
 40
6.0
 40
6.0
 40
7.0
 40
7.0
 40
7.0
 40
8.0
 40
8.0
 40
8.0
 40
9.0
 40
9.0
 40
9.0
 40
10.0
 40
10.0
 40
10.0
 40
11.0
 40
11.0
 40
11.0
 40
12.0
 40
12.0
 40
12.0
 40
13.0
 40
13.0
 40
13.0
 40
14.0
 40
14.0
 40
14.0
 40
15.0
 40
15.0
 40
15.0
 40
16.0
 40
16.0
 40
16.0
 40
17.0
 40
17.0
 40
17.0
 40
18.0
 40
18.0
 40
18.0
 40
19.0
 40
19.0
 40
19.0
 40
20.0
 40
20.0
 40
20.0
 40
21.0
 40
21.0
 40
21.0
 40
22.0
 40
22.0
 40
22.0
 40
23.0
 40
23.0
 40
23.0
 40
24.0
 40
24.0
 40
24.0
 40
25.0
 40
25.0
 40
25.0
 40
26.0
 40
26.0
 40
26.0
 40
27.0
 40
27.0
 40
27.0
 40
28.0
 40
28.0
 40
28.0
 40
29.0
 40
29.0
 40
29.0
 40
30.0
 40
30.0
 40
30.0
 40
31.0
 40
31.0
 40
31.0
 40
32.0
 40
32.0
 40
32.0
 40
33.0
 40
33.0
 40
33.0
 40
34.0
 40
34.0
 40
34.0
 40
35.0
 40
35.0
 40
35.0
 40
36.0
 40
36.0
 40
36.0
 40
37.0
 40
37.0
 40
37.0
 40
38.0
 40
38.0
 40
38.0
 40
39.0
 40
39.0
 40
39.0
 40
40.0
 40
40.0
 40
40.0
 40
40.0
 10
142.3688451390307
 20
-144.9830597885566
 30
0.0
 10
141.9853143196703
 20
-139.7153131709825
 30
0.0
 10
135.794859990262
 20
-135.8827609643765
 30
0.0
 10
128.5633312695774
 20
-136.3833528293708
 30
0.0
 10
125.3614871789171
 20
-136.6161693878508
 30
0.0
 10
122.4001476640872
 20
-137.6736352516005
 30
0.0
 10
120.1253631296
 20
-139.3628245497319
 30
0.0
 10
120.1253631296
 20
-139.3628245497319
 30
0.0
 10
114.8030751972646
 20
-134.7597293159326
 30
0.0
 10
114.8030751972646
 20
-134.7597293159326
 30
0.0
 10
114.8030751972646
 20
-134.7597293159326
 30
0.0
 10
117.4773468257432
 20
-126.550225809901
 30
0.0
 10
117.4773468257432
 20
-126.550225809901
 30
0.0
 10
118.1820339363516
 20
-126.6140509100448
 30
0.0
 10
118.8925233286422
 20
-126.6580031949159
 30
0.0
 10
119.613166713883
 20
-126.6580031949159
 30
0.0
 10
120.2016631337536
 20
-126.6580031949159
 30
0.0
 10
120.7949464360141
 20
-126.6362446380497
 30
0.0
 10
121.3901154798226
 20
-126.5930176384063
 30
0.0
 10
126.1891826612392
 20
-126.2440103862548
 30
0.0
 10
130.6061695937188
 20
-124.5150754575793
 30
0.0
 10
133.8284667273186
 20
-121.7243229537796
 30
0.0
 10
137.1077712784682
 20
-118.8846862255506
 30
0.0
 10
138.7656282128309
 20
-115.2875616042486
 30
0.0
 10
138.4964023426601
 20
-111.5944092186404
 30
0.0
 10
138.2279017577017
 20
-107.9012568330303
 30
0.0
 10
136.0661166590228
 20
-104.5814812832635
 30
0.0
 10
132.4100989694926
 20
-102.246643074357
 30
0.0
 10
128.8190668348303
 20
-99.95358129463415
 30
0.0
 10
124.1945032750814
 20
-98.88349546790104
 30
0.0
 10
119.3987724056325
 20
-99.23119720664061
 30
0.0
 10
114.5997052242159
 20
-99.58020445879245
 30
0.0
 10
110.1828866487395
 20
-101.3091393874676
 30
0.0
 10
106.9604211581377
 20
-104.0998918912669
 30
0.0
 10
103.6812616640286
 20
-106.9393835624504
 30
0.0
 10
102.0234278235018
 20
-110.5365081837522
 30
0.0
 10
102.2926305998373
 20
-114.229660569361
 30
0.0
 10
102.5611311847976
 20
-117.9229580120169
 30
0.0
 10
104.7229394455059
 20
-121.2427335617834
 30
0.0
 10
108.3787889159637
 20
-123.5775717706899
 30
0.0
 10
109.0260334378914
 20
-123.9908392941236
 30
0.0
 10
109.7138939316131
 20
-124.3540621367614
 30
0.0
 10
110.4229327534828
 20
-124.6869680568308
 30
0.0
 10
110.4229327534828
 20
-124.6869680568308
 30
0.0
 10
104.4990932674877
 20
-131.6685636703179
 30
0.0
 10
104.4990932674877
 20
-131.6685636703179
 30
0.0
 10
104.4990932674877
 20
-131.6685636703179
 30
0.0
 10
98.70162147509532
 20
-131.0294423266026
 30
0.0
 10
98.70162147509532
 20
-131.0294423266026
 30
0.0
 10
98.84302908123959
 20
-130.3317179363918
 30
0.0
 10
98.89220341851761
 20
-129.6220988684261
 30
0.0
 10
98.84027299743976
 20
-128.9076929179496
 30
0.0
 10
98.41061403868765
 20
-123.0027106982564
 30
0.0
 10
91.19953836094005
 20
-118.7088770860639
 30
0.0
 10
82.78985634417558
 20
-119.3095583126463
 30
0.0
 10
74.36856976404143
 20
-119.9237298444869
 30
0.0
 10
67.86841864971228
 20
-125.226725324186
 30
0.0
 10
68.29851277959092
 20
-131.1304020304666
 30
0.0
 10
68.51029606108227
 20
-134.0415518822657
 30
0.0
 10
70.33119711078386
 20
-136.6402488574506
 30
0.0
 10
73.42569899027757
 20
-138.4504157317633
 30
0.0
 10
76.03121358079267
 20
-139.9749652829324
 30
0.0
 10
79.28745406224732
 20
-140.7852539406711
 30
0.0
 10
82.73023789986551
 20
-140.7852539406711
 30
0.0
 10
83.26535332823675
 20
-140.7852539406711
 30
0.0
 10
83.80583586716667
 20
-140.7663965247198
 30
0.0
 10
84.34822679496681
 20
-140.7270860653124
 30
0.0
 10
87.92168438021013
 20
-140.4669987822257
 30
0.0
 10
91.24713989235736
 20
-139.3645652342822
 30
0.0
 10
93.85466245986
 20
-137.6013968428017
 30
0.0
 10
93.85466245986
 20
-137.6013968428017
 30
0.0
 10
100.2840257376359
 20
-141.7849871002003
 30
0.0
 10
100.2840257376359
 20
-141.7849871002003
 30
0.0
 10
100.2840257376359
 20
-141.7849871002003
 30
0.0
 10
100.0175559512649
 20
-146.1816661578527
 30
0.0
 10
100.0175559512649
 20
-146.1816661578527
 30
0.0
 10
99.97244321116697
 20
-146.1778946746625
 30
0.0
 10
99.9284909274047
 20
-146.1702066512352
 30
0.0
 10
99.88323313026477
 20
-146.166725282137
 30
0.0
 10
96.71562250154449
 20
-145.9340537807032
 30
0.0
 10
93.66362233539087
 20
-146.5699838694103
 30
0.0
 10
91.28744292846333
 20
-147.9768921564497
 30
0.0
 10
88.83351294696099
 20
-149.4310890404145
 30
0.0
 10
87.38323263986989
 20
-151.5265831237818
 30
0.0
 10
87.20466742102289
 20
-153.8763622084033
 30
0.0
 10
86.84347538615043
 20
-158.6301717127708
 30
0.0
 10
91.94353592996087
 20
-162.9077589358373
 30
0.0
 10
98.57365815402753
 20
-163.4124123981107
 30
0.0
 10
99.00389734094877
 20
-163.4447601193215
 30
0.0
 10
99.43007493068996
 20
-163.4597009950361
 30
0.0
 10
99.85146563804134
 20
-163.4597009950361
 30
0.0
 10
105.918766538691
 20
-163.4597009950361
 30
0.0
 10
110.9139741594811
 20
-160.1480486398345
 30
0.0
 10
111.2514985780592
 20
-155.702775471845
 30
0.0
 10
111.4300637969056
 20
-153.3515458167641
 30
0.0
 10
110.3134379899438
 20
-151.0612401209136
 30
0.0
 10
108.106226733824
 20
-149.25382933047
 30
0.0
 10
107.3085580592199
 20
-148.5999121680835
 30
0.0
 10
106.4009361466901
 20
-148.0376710586324
 30
0.0
 10
105.4120822905746
 20
-147.5769698812301
 30
0.0
 10
105.4120822905746
 20
-147.5769698812301
 30
0.0
 10
108.2460617224258
 20
-144.4079086020295
 30
0.0
 10
108.2460617224258
 20
-144.4079086020295
 30
0.0
 10
108.2460617224258
 20
-144.4079086020295
 30
0.0
 10
116.2214429550893
 20
-145.3224932756855
 30
0.0
 10
116.2214429550893
 20
-145.3224932756855
 30
0.0
 10
116.1454330650209
 20
-145.8406370432191
 30
0.0
 10
116.110909488997
 20
-146.3640028644
 30
0.0
 10
116.1493496051577
 20
-146.8918654540006
 30
0.0
 10
116.3380688169529
 20
-149.4892569157739
 30
0.0
 10
117.9087464690021
 20
-151.8120553898803
 30
0.0
 10
120.5730091615752
 20
-153.4353887892268
 30
0.0
 10
122.8282109953758
 20
-154.8084987845987
 30
0.0
 10
125.6446385251302
 20
-155.5403115805687
 30
0.0
 10
128.6194683448765
 20
-155.5403115805687
 30
0.0
 10
129.0611670381249
 20
-155.5403115805687
 30
0.0
 10
129.506927328552
 20
-155.5242102484875
 30
0.0
 10
129.9541619888264
 20
-155.4917174702322
 30
0.0
 10
137.1827657692441
 20
-154.9654505081355
 30
0.0
 10
142.7516506731775
 20
-150.2509514631745
 30
0.0
 10
142.3688451390307
 20
-144.9830597885566
 30
0.0
  0
HATCH
  5
82
330
79
100
AcDbEntity
  8
Layer 1
 62
   252
420
  8751758
440
 33554687
100
AcDbHatch
 10
0.0
 20
0.0
 30
0.0
210
0.0
220
0.0
230
1.0
  2
SOLID
 70
     1
 71
     1
 91
        5
 92
        1
 93
        1
 72
     4
 94
        3
 73
     0
 74
     0
 95
       32
 96
       28
 40
0.0
 40
0.0
 40
0.0
 40
0.0
 40
1.0
 40
1.0
 40
1.0
 40
2.0
 40
2.0
 40
2.0
 40
3.0
 40
3.0
 40
3.0
 40
4.0
 40
4.0
 40
4.0
 40
5.0
 40
5.0
 40
5.0
 40
6.0
 40
6.0
 40
6.0
 40
7.0
 40
7.0
 40
7.0
 40
8.0
 40
8.0
 40
8.0
 40
9.0
 40
9.0
 40
9.0
 40
9.0
 10
129.8539037732972
 20
-154.1091787668852
 10
126.677589722049
 20
-154.3459118656008
 10
123.6384996326447
 20
-153.6802450825066
 10
121.2933624327295
 20
-152.2517232956452
 10
119.0227845524643
 20
-150.8691845922975
 10
117.6860839093508
 20
-148.9291916620083
 10
117.5305827602019
 20
-146.7917760924109
 10
117.4986702109346
 20
-146.3519631296009
 10
117.5297124179489
 20
-145.9144710795225
 10
117.5973089995745
 20
-145.4801702844501
 10
117.5973089995745
 20
-145.4801702844501
 10
128.6664668265232
 20
-146.7497095491346
 10
128.6664668265232
 20
-146.7497095491346
 10
128.6664668265232
 20
-146.7497095491346
 10
121.1960291574685
 20
-140.2887236729589
 10
121.1960291574685
 20
-140.2887236729589
 10
123.2269728041575
 20
-138.8612172854178
 10
125.8398853038213
 20
-137.9704219672706
 10
128.6635656856802
 20
-137.7658915327187
 10
129.0781387120523
 20
-137.7347042678758
 10
129.4886501412457
 20
-137.719908449205
 10
129.8945197450899
 20
-137.719908449205
 10
135.8177790029175
 20
-137.719908449205
 10
140.6805262258242
 20
-140.8664858863086
 10
140.9876119839878
 20
-145.0831491501454
 10
141.3142804428354
 20
-149.5893462773624
 10
136.3196763686438
 20
-153.6383235962749
 10
129.8539037732972
 20
-154.1091787668852
 97
        0
 97
        1
330
7D
 92
        1
 93
        1
 72
     4
 94
        3
 73
     0
 74
     0
 95
       35
 96
       31
 40
0.0
 40
0.0
 40
0.0
 40
0.0
 40
1.0
 40
1.0
 40
1.0
 40
2.0
 40
2.0
 40
2.0
 40
3.0
 40
3.0
 40
3.0
 40
4.0
 40
4.0
 40
4.0
 40
5.0
 40
5.0
 40
5.0
 40
6.0
 40
6.0
 40
6.0
 40
7.0
 40
7.0
 40
7.0
 40
8.0
 40
8.0
 40
8.0
 40
9.0
 40
9.0
 40
9.0
 40
10.0
 40
10.0
 40
10.0
 40
10.0
 10
107.2283415149283
 20
-150.3253657276609
 10
109.075497889254
 20
-151.839036000396
 10
110.0137268376697
 20
-153.7114323473495
 10
109.870265423015
 20
-155.5971739425157
 10
109.5666610338636
 20
-159.5907394699393
 10
104.5463818632176
 20
-162.4789703085063
 10
98.67853439547884
 20
-162.0297286377173
 10
92.81010669957149
 20
-161.583388107847
 10
88.28287641508289
 20
-157.9727731812871
 10
88.58590057606647
 20
-153.9819637377346
 10
88.72936199072045
 20
-152.0947715721096
 10
89.93942783606504
 20
-150.3848391164325
 10
91.99358060949192
 20
-149.1686808445949
 10
93.82942253453121
 20
-148.0810431153219
 10
96.13249319223156
 20
-147.5034259590173
 10
98.57917032162845
 20
-147.5034259590173
 10
98.97546616069362
 20
-147.5034259590173
 10
99.37596865397951
 20
-147.5182217776881
 10
99.77835688881413
 20
-147.5494090425307
 10
99.83130270918694
 20
-147.553325582767
 10
99.88047704646495
 20
-147.567251059161
 10
99.93327780979583
 20
-147.5716027705357
 10
99.93327780979583
 20
-147.5716027705357
 10
99.53466105805608
 20
-154.1497947397027
 10
99.53466105805608
 20
-154.1497947397027
 10
99.53466105805608
 20
-154.1497947397027
 10
104.4207624647435
 20
-148.6856408821412
 10
104.4207624647435
 20
-148.6856408821412
 10
105.4550191750418
 20
-149.1270494724554
 10
106.4174726494916
 20
-149.6607143438873
 10
107.2283415149283
 20
-150.3253657276609
 97
        0
 97
        1
330
7E
 92
        1
 93
        1
 72
     4
 94
        3
 73
     0
 74
     0
 95
       32
 96
       28
 40
0.0
 40
0.0
 40
0.0
 40
0.0
 40
1.0
 40
1.0
 40
1.0
 40
2.0
 40
2.0
 40
2.0
 40
3.0
 40
3.0
 40
3.0
 40
4.0
 40
4.0
 40
4.0
 40
5.0
 40
5.0
 40
5.0
 40
6.0
 40
6.0
 40
6.0
 40
7.0
 40
7.0
 40
7.0
 40
8.0
 40
8.0
 40
8.0
 40
9.0
 40
9.0
 40
9.0
 40
9.0
 10
84.24813743337802
 20
-139.3445473619648
 10
80.49551165899597
 20
-139.6205909200868
 10
76.89763929336068
 20
-138.8764482752251
 10
74.1251640473686
 20
-137.2558709597493
 10
71.43638671467747
 20
-135.6825822411977
 10
69.85773092531238
 20
-133.4720579205256
 10
69.67974593463418
 20
-131.0301676118317
 10
69.3050635948446
 20
-125.8881854529521
 10
75.23165916464114
 20
-121.2494061858894
 10
82.88994570323673
 20
-120.6920970159946
 10
83.39924097811136
 20
-120.6542371270453
 10
83.90244385721723
 20
-120.636685224506
 10
84.40027962576444
 20
-120.636685224506
 10
91.38956308611417
 20
-120.636685224506
 10
97.10930731385115
 20
-124.2066841782472
 10
97.45903984239619
 20
-129.0077822795393
 10
97.50444269657936
 20
-129.6350089455004
 10
97.45309250366936
 20
-130.2603498698665
 10
97.31514325661569
 20
-130.8765522003492
 10
97.31514325661569
 20
-130.8765522003492
 10
80.70654710528376
 20
-129.0457872255335
 10
80.70654710528376
 20
-129.0457872255335
 10
80.70654710528376
 20
-129.0457872255335
 10
92.57743520401467
 20
-136.7702199704704
 10
92.57743520401467
 20
-136.7702199704704
 10
90.24825427873315
 20
-138.2112166632689
 10
87.35770260045688
 20
-139.1182583705434
 10
84.24813743337802
 20
-139.3445473619648
 97
        0
 97
        1
330
7F
 92
        1
 93
        1
 72
     4
 94
        3
 73
     0
 74
     0
 95
       41
 96
       37
 40
0.0
 40
0.0
 40
0.0
 40
0.0
 40
1.0
 40
1.0
 40
1.0
 40
2.0
 40
2.0
 40
2.0
 40
3.0
 40
3.0
 40
3.0
 40
4.0
 40
4.0
 40
4.0
 40
5.0
 40
5.0
 40
5.0
 40
6.0
 40
6.0
 40
6.0
 40
7.0
 40
7.0
 40
7.0
 40
8.0
 40
8.0
 40
8.0
 40
9.0
 40
9.0
 40
9.0
 40
10.0
 40
10.0
 40
10.0
 40
11.0
 40
11.0
 40
11.0
 40
12.0
 40
12.0
 40
12.0
 40
12.0
 10
109.1242370554055
 20
-122.4101526662365
 10
105.8456809798581
 20
-120.3159640962821
 10
103.9104517905738
 20
-117.374932493052
 10
103.6737186978383
 20
-114.1295712077719
 10
103.4377340198776
 20
-110.8829044090795
 10
104.9264313135659
 20
-107.6929549152866
 10
107.8674628424984
 20
-105.1470587047677
 10
110.8653567319422
 20
-102.550972756407
 10
114.9961461203237
 20
-100.941129662318
 10
119.4988617646933
 20
-100.6137359099882
 10
120.062408373321
 20
-100.5718144237571
 10
120.6230538411043
 20
-100.5515064373487
 10
121.1790574835411
 20
-100.5515064373487
 10
125.067746668628
 20
-100.5515064373487
 10
128.7405909750448
 20
-101.5471779995958
 10
131.6646508300497
 20
-103.4140621788104
 10
134.9432300959907
 20
-105.5082507487644
 10
136.8784360948816
 20
-108.4491372949487
 10
137.1151691876172
 20
-111.6944985802289
 10
137.3511769951429
 20
-114.9413104359671
 10
135.8617312866791
 20
-118.131259929759
 10
132.9214250429567
 20
-120.6771561402792
 10
129.9237000092112
 20
-123.2732420886399
 10
125.7928868221747
 20
-124.8830851827289
 10
121.2900261207605
 20
-125.2104789350584
 10
120.1485722563382
 20
-125.2954823638857
 10
119.0193031834534
 20
-125.2928713370614
 10
117.9141135795598
 20
-125.2093184786913
 10
117.9141135795598
 20
-125.2093184786913
 10
122.8588180312629
 20
-110.0304041510187
 10
122.8588180312629
 20
-110.0304041510187
 10
122.8588180312629
 20
-110.0304041510187
 10
111.355069306131
 20
-123.5883059920783
 10
111.355069306131
 20
-123.5883059920783
 10
110.576258047001
 20
-123.2424899949337
 10
109.8244273977066
 20
-122.8572184813374
 10
109.1242370554055
 20
-122.4101526662365
 97
        0
 97
        1
330
80
 92
        1
 93
        1
 72
     4
 94
        3
 73
     0
 74
     0
 95
      125
 96
      121
 40
0.0
 40
0.0
 40
0.0
 40
0.0
 40
1.0
 40
1.0
 40
1.0
 40
2.0
 40
2.0
 40
2.0
 40
3.0
 40
3.0
 40
3.0
 40
4.0
 40
4.0
 40
4.0
 40
5.0
 40
5.0
 40
5.0
 40
6.0
 40
6.0
 40
6.0
 40
7.0
 40
7.0
 40
7.0
 40
8.0
 40
8.0
 40
8.0
 40
9.0
 40
9.0
 40
9.0
 40
10.0
 40
10.0
 40
10.0
 40
11.0
 40
11.0
 40
11.0
 40
12.0
 40
12.0
 40
12.0
 40
13.0
 40
13.0
 40
13.0
 40
14.0
 40
14.0
 40
14.0
 40
15.0
 40
15.0
 40
15.0
 40
16.0
 40
16.0
 40
16.0
 40
17.0
 40
17.0
 40
17.0
 40
18.0
 40
18.0
 40
18.0
 40
19.0
 40
19.0
 40
19.0
 40
20.0
 40
20.0
 40
20.0
 40
21.0
 40
21.0
 40
21.0
 40
22.0
 40
22.0
 40
22.0
 40
23.0
 40
23.0
 40
23.0
 40
24.0
 40
24.0
 40
24.0
 40
25.0
 40
25.0
 40
25.0
 40
26.0
 40
26.0
 40
26.0
 40
27.0
 40
27.0
 40
27.0
 40
28.0
 40
28.0
 40
28.0
 40
29.0
 40
29.0
 40
29.0
 40
30.0
 40
30.0
 40
30.0
 40
31.0
 40
31.0
 40
31.0
 40
32.0
 40
32.0
 40
32.0
 40
33.0
 40
33.0
 40
33.0
 40
34.0
 40
34.0
 40
34.0
 40
35.0
 40
35.0
 40
35.0
 40
36.0
 40
36.0
 40
36.0
 40
37.0
 40
37.0
 40
37.0
 40
38.0
 40
38.0
 40
38.0
 40
39.0
 40
39.0
 40
39.0
 40
40.0
 40
40.0
 40
40.0
 40
40.0
 10
142.3688451390307
 20
-144.9830597885566
 10
141.9853143196703
 20
-139.7153131709825
 10
135.794859990262
 20
-135.8827609643765
 10
128.5633312695774
 20
-136.3833528293708
 10
125.3614871789171
 20
-136.6161693878508
 10
122.4001476640872
 20
-137.6736352516005
 10
120.1253631296
 20
-139.3628245497319
 10
120.1253631296
 20
-139.3628245497319
 10
114.8030751972646
 20
-134.7597293159326
 10
114.8030751972646
 20
-134.7597293159326
 10
114.8030751972646
 20
-134.7597293159326
 10
117.4773468257432
 20
-126.550225809901
 10
117.4773468257432
 20
-126.550225809901
 10
118.1820339363516
 20
-126.6140509100448
 10
118.8925233286422
 20
-126.6580031949159
 10
119.613166713883
 20
-126.6580031949159
 10
120.2016631337536
 20
-126.6580031949159
 10
120.7949464360141
 20
-126.6362446380497
 10
121.3901154798226
 20
-126.5930176384063
 10
126.1891826612392
 20
-126.2440103862548
 10
130.6061695937188
 20
-124.5150754575793
 10
133.8284667273186
 20
-121.7243229537796
 10
137.1077712784682
 20
-118.8846862255506
 10
138.7656282128309
 20
-115.2875616042486
 10
138.4964023426601
 20
-111.5944092186404
 10
138.2279017577017
 20
-107.9012568330303
 10
136.0661166590228
 20
-104.5814812832635
 10
132.4100989694926
 20
-102.246643074357
 10
128.8190668348303
 20
-99.95358129463415
 10
124.1945032750814
 20
-98.88349546790104
 10
119.3987724056325
 20
-99.23119720664061
 10
114.5997052242159
 20
-99.58020445879245
 10
110.1828866487395
 20
-101.3091393874676
 10
106.9604211581377
 20
-104.0998918912669
 10
103.6812616640286
 20
-106.9393835624504
 10
102.0234278235018
 20
-110.5365081837522
 10
102.2926305998373
 20
-114.229660569361
 10
102.5611311847976
 20
-117.9229580120169
 10
104.7229394455059
 20
-121.2427335617834
 10
108.3787889159637
 20
-123.5775717706899
 10
109.0260334378914
 20
-123.9908392941236
 10
109.7138939316131
 20
-124.3540621367614
 10
110.4229327534828
 20
-124.6869680568308
 10
110.4229327534828
 20
-124.6869680568308
 10
104.4990932674877
 20
-131.6685636703179
 10
104.4990932674877
 20
-131.6685636703179
 10
104.4990932674877
 20
-131.6685636703179
 10
98.70162147509532
 20
-131.0294423266026
 10
98.70162147509532
 20
-131.0294423266026
 10
98.84302908123959
 20
-130.3317179363918
 10
98.89220341851761
 20
-129.6220988684261
 10
98.84027299743976
 20
-128.9076929179496
 10
98.41061403868765
 20
-123.0027106982564
 10
91.19953836094005
 20
-118.7088770860639
 10
82.78985634417558
 20
-119.3095583126463
 10
74.36856976404143
 20
-119.9237298444869
 10
67.86841864971228
 20
-125.226725324186
 10
68.29851277959092
 20
-131.1304020304666
 10
68.51029606108227
 20
-134.0415518822657
 10
70.33119711078386
 20
-136.6402488574506
 10
73.42569899027757
 20
-138.4504157317633
 10
76.03121358079267
 20
-139.9749652829324
 10
79.28745406224732
 20
-140.7852539406711
 10
82.73023789986551
 20
-140.7852539406711
 10
83.26535332823675
 20
-140.7852539406711
 10
83.80583586716667
 20
-140.7663965247198
 10
84.34822679496681
 20
-140.7270860653124
 10
87.92168438021013
 20
-140.4669987822257
 10
91.24713989235736
 20
-139.3645652342822
 10
93.85466245986
 20
-137.6013968428017
 10
93.85466245986
 20
-137.6013968428017
 10
100.2840257376359
 20
-141.7849871002003
 10
100.2840257376359
 20
-141.7849871002003
 10
100.2840257376359
 20
-141.7849871002003
 10
100.0175559512649
 20
-146.1816661578527
 10
100.0175559512649
 20
-146.1816661578527
 10
99.97244321116697
 20
-146.1778946746625
 10
99.9284909274047
 20
-146.1702066512352
 10
99.88323313026477
 20
-146.166725282137
 10
96.71562250154449
 20
-145.9340537807032
 10
93.66362233539087
 20
-146.5699838694103
 10
91.28744292846333
 20
-147.9768921564497
 10
88.83351294696099
 20
-149.4310890404145
 10
87.38323263986989
 20
-151.5265831237818
 10
87.20466742102289
 20
-153.8763622084033
 10
86.84347538615043
 20
-158.6301717127708
 10
91.94353592996087
 20
-162.9077589358373
 10
98.57365815402753
 20
-163.4124123981107
 10
99.00389734094877
 20
-163.4447601193215
 10
99.43007493068996
 20
-163.4597009950361
 10
99.85146563804134
 20
-163.4597009950361
 10
105.918766538691
 20
-163.4597009950361
 10
110.9139741594811
 20
-160.1480486398345
 10
111.2514985780592
 20
-155.702775471845
 10
111.4300637969056
 20
-153.3515458167641
 10
110.3134379899438
 20
-151.0612401209136
 10
108.106226733824
 20
-149.25382933047
 10
107.3085580592199
 20
-148.5999121680835
 10
106.4009361466901
 20
-148.0376710586324
 10
105.4120822905746
 20
-147.5769698812301
 10
105.4120822905746
 20
-147.5769698812301
 10
108.2460617224258
 20
-144.4079086020295
 10
108.2460617224258
 20
-144.4079086020295
 10
108.2460617224258
 20
-144.4079086020295
 10
116.2214429550893
 20
-145.3224932756855
 10
116.2214429550893
 20
-145.3224932756855
 10
116.1454330650209
 20
-145.8406370432191
 10
116.110909488997
 20
-146.3640028644
 10
116.1493496051577
 20
-146.8918654540006
 10
116.3380688169529
 20
-149.4892569157739
 10
117.9087464690021
 20
-151.8120553898803
 10
120.5730091615752
 20
-153.4353887892268
 10
122.8282109953758
 20
-154.8084987845987
 10
125.6446385251302
 20
-155.5403115805687
 10
128.6194683448765
 20
-155.5403115805687
 10
129.0611670381249
 20
-155.5403115805687
 10
129.506927328552
 20
-155.5242102484875
 10
129.9541619888264
 20
-155.4917174702322
 10
137.1827657692441
 20
-154.9654505081355
 10
142.7516506731775
 20
-150.2509514631745
 10
142.3688451390307
 20
-144.9830597885566
 97
        0
 97
        1
330
81
 75
     2
 76
     1
 98
        1
 10
0.0
 20
0.0
450
        0
451
        0
460
0.0
461
0.0
452
        0
462
0.0
453
        0
470

  0
INSERT
  5
84
330
79
100
AcDbEntity
  8
Layer 1
100
AcDbBlockReference
  2
Block_1
 10
0.0
 20
0.0
 30
0.0
  0
ENDBLK
  5
7C
330
79
100
AcDbEntity
  8
0
100
AcDbBlockEnd
  0
BLOCK
  5
85
330
83
100
AcDbEntity
  8
0
100
AcDbBlockBegin
  2
Block_1
 70
     0
 10
0.0
 20
0.0
 30
0.0
  3
Block_1
  1

  0
SPLINE
  5
87
330
83
100
AcDbEntity
  8
Layer 1
100
AcDbSpline
210
0.0
220
0.0
230
1.0
 70
    11
 71
     3
 72
    29
 73
    25
 74
     0
 42
0.0000000001
 43
0.0000000001
 40
0.0
 40
0.0
 40
0.0
 40
0.0
 40
1.0
 40
1.0
 40
1.0
 40
2.0
 40
2.0
 40
2.0
 40
3.0
 40
3.0
 40
3.0
 40
4.0
 40
4.0
 40
4.0
 40
5.0
 40
5.0
 40
5.0
 40
6.0
 40
6.0
 40
6.0
 40
7.0
 40
7.0
 40
7.0
 40
8.0
 40
8.0
 40
8.0
 40
8.0
 10
85.86245461030914
 20
-174.7812583612767
 30
0.0
 10
85.86245461030914
 20
-174.7812583612767
 30
0.0
 10
85.86245461030914
 20
-180.7486151106552
 30
0.0
 10
85.86245461030914
 20
-180.7486151106552
 30
0.0
 10
85.86245461030914
 20
-180.7486151106552
 30
0.0
 10
86.85087329529848
 20
-180.7486151106552
 30
0.0
 10
86.85087329529848
 20
-180.7486151106552
 30
0.0
 10
87.21699726960336
 20
-180.7486151106552
 30
0.0
 10
87.53222894988107
 20
-180.6675282220641
 30
0.0
 10
87.79664520990476
 20
-180.5046291596504
 30
0.0
 10
88.06079408360078
 20
-180.3420202113308
 30
0.0
 10
88.19323116305417
 20
-180.0978892032776
 30
0.0
 10
88.19323116305417
 20
-179.7723811925449
 30
0.0
 10
88.19323116305417
 20
-179.7723811925449
 30
0.0
 10
88.19323116305417
 20
-175.7574922793883
 30
0.0
 10
88.19323116305417
 20
-175.7574922793883
 30
0.0
 10
88.19323116305417
 20
-175.4321293257001
 30
0.0
 10
88.06079408360078
 20
-175.1882884317386
 30
0.0
 10
87.79664520990476
 20
-175.0253893693273
 30
0.0
 10
87.53222894988107
 20
-174.8627804210052
 30
0.0
 10
87.21699726960336
 20
-174.7812583612767
 30
0.0
 10
86.85087329529848
 20
-174.7812583612767
 30
0.0
 10
86.85087329529848
 20
-174.7812583612767
 30
0.0
 10
85.86245461030914
 20
-174.7812583612767
 30
0.0
 10
85.86245461030914
 20
-174.7812583612767
 30
0.0
  0
SPLINE
  5
88
330
83
100
AcDbEntity
  8
Layer 1
100
AcDbSpline
210
0.0
220
0.0
230
1.0
 70
     9
 71
     3
 72
    53
 73
    49
 74
     0
 42
0.0000000001
 43
0.0000000001
 40
0.0
 40
0.0
 40
0.0
 40
0.0
 40
1.0
 40
1.0
 40
1.0
 40
2.0
 40
2.0
 40
2.0
 40
3.0
 40
3.0
 40
3.0
 40
4.0
 40
4.0
 40
4.0
 40
5.0
 40
5.0
 40
5.0
 40
6.0
 40
6.0
 40
6.0
 40
7.0
 40
7.0
 40
7.0
 40
8.0
 40
8.0
 40
8.0
 40
9.0
 40
9.0
 40
9.0
 40
10.0
 40
10.0
 40
10.0
 40
11.0
 40
11.0
 40
11.0
 40
12.0
 40
12.0
 40
12.0
 40
13.0
 40
13.0
 40
13.0
 40
14.0
 40
14.0
 40
14.0
 40
15.0
 40
15.0
 40
15.0
 40
16.0
 40
16.0
 40
16.0
 40
16.0
 10
86.85087329529848
 20
-172.5235905007247
 30
0.0
 10
87.41224404829321
 20
-172.5235905007247
 30
0.0
 10
87.92879217527358
 20
-172.570734040605
 30
0.0
 10
88.4006627332822
 20
-172.6640057210403
 30
0.0
 10
88.87238823424853
 20
-172.7575675155699
 30
0.0
 10
89.28115897893581
 20
-172.9061059304503
 30
0.0
 10
89.62712002438603
 20
-173.1094759086389
 30
0.0
 10
89.9727909557523
 20
-173.3129909438695
 30
0.0
 10
90.24334513554775
 20
-173.5752540826446
 30
0.0
 10
90.43856911799181
 20
-173.8965554390533
 30
0.0
 10
90.63396095372363
 20
-174.2180018525052
 30
0.0
 10
90.73143928602659
 20
-174.606464621109
 30
0.0
 10
90.73143928602659
 20
-175.0617986878189
 30
0.0
 10
90.73143928602659
 20
-175.0617986878189
 30
0.0
 10
90.73143928602659
 20
-180.4679297270679
 30
0.0
 10
90.73143928602659
 20
-180.4679297270679
 30
0.0
 10
90.73143928602659
 20
-180.9236989649139
 30
0.0
 10
90.63396095372363
 20
-181.3120166764725
 30
0.0
 10
90.43856911799181
 20
-181.6334630899264
 30
0.0
 10
90.24334513554775
 20
-181.9547644463331
 30
0.0
 10
89.9727909557523
 20
-182.2171726421521
 30
0.0
 10
89.62712002438603
 20
-182.4205426203401
 30
0.0
 10
89.28115897893581
 20
-182.6237675414791
 30
0.0
 10
88.87238823424853
 20
-182.7723059563595
 30
0.0
 10
88.4006627332822
 20
-182.8658677508897
 30
0.0
 10
87.92879217527358
 20
-182.9594295454199
 30
0.0
 10
87.41224404829321
 20
-183.0062829712078
 30
0.0
 10
86.85087329529848
 20
-183.0062829712078
 30
0.0
 10
86.85087329529848
 20
-183.0062829712078
 30
0.0
 10
84.49572715947802
 20
-183.0062829712078
 30
0.0
 10
84.49572715947802
 20
-183.0062829712078
 30
0.0
 10
84.31672676950512
 20
-183.0062829712078
 30
0.0
 10
84.16630261682932
 20
-182.9410073006044
 30
0.0
 10
84.04401953032378
 20
-182.8108911305363
 30
0.0
 10
84.04401953032378
 20
-182.8108911305363
 30
0.0
 10
83.36065580490837
 20
-182.0909730123221
 30
0.0
 10
83.36065580490837
 20
-182.0909730123221
 30
0.0
 10
83.2386628324874
 20
-181.9607117852101
 30
0.0
 10
83.17761643550523
 20
-181.8102876287316
 30
0.0
 10
83.17761643550523
 20
-181.6394104288008
 30
0.0
 10
83.17761643550523
 20
-181.6394104288008
 30
0.0
 10
83.17761643550523
 20
-174.1589636348716
 30
0.0
 10
83.17761643550523
 20
-174.1589636348716
 30
0.0
 10
83.17761643550523
 20
-174.1589636348716
 30
0.0
 10
82.37223711991939
 20
-172.5235905007247
 30
0.0
 10
82.37223711991939
 20
-172.5235905007247
 30
0.0
 10
82.37223711991939
 20
-172.5235905007247
 30
0.0
 10
86.85087329529848
 20
-172.5235905007247
 30
0.0
 10
86.85087329529848
 20
-172.5235905007247
 30
0.0
  0
HATCH
  5
89
330
83
100
AcDbEntity
  8
Layer 1
 62
   252
420
  8751758
440
 33554687
100
AcDbHatch
 10
0.0
 20
0.0
 30
0.0
210
0.0
220
0.0
230
1.0
  2
SOLID
 70
     1
 71
     1
 91
        2
 92
        1
 93
        1
 72
     4
 94
        3
 73
     0
 74
     0
 95
       29
 96
       25
 40
0.0
 40
0.0
 40
0.0
 40
0.0
 40
1.0
 40
1.0
 40
1.0
 40
2.0
 40
2.0
 40
2.0
 40
3.0
 40
3.0
 40
3.0
 40
4.0
 40
4.0
 40
4.0
 40
5.0
 40
5.0
 40
5.0
 40
6.0
 40
6.0
 40
6.0
 40
7.0
 40
7.0
 40
7.0
 40
8.0
 40
8.0
 40
8.0
 40
8.0
 10
85.86245461030914
 20
-174.7812583612767
 10
85.86245461030914
 20
-174.7812583612767
 10
85.86245461030914
 20
-180.7486151106552
 10
85.86245461030914
 20
-180.7486151106552
 10
85.86245461030914
 20
-180.7486151106552
 10
86.85087329529848
 20
-180.7486151106552
 10
86.85087329529848
 20
-180.7486151106552
 10
87.21699726960336
 20
-180.7486151106552
 10
87.53222894988107
 20
-180.6675282220641
 10
87.79664520990476
 20
-180.5046291596504
 10
88.06079408360078
 20
-180.3420202113308
 10
88.19323116305417
 20
-180.0978892032776
 10
88.19323116305417
 20
-179.7723811925449
 10
88.19323116305417
 20
-179.7723811925449
 10
88.19323116305417
 20
-175.7574922793883
 10
88.19323116305417
 20
-175.7574922793883
 10
88.19323116305417
 20
-175.4321293257001
 10
88.06079408360078
 20
-175.1882884317386
 10
87.79664520990476
 20
-175.0253893693273
 10
87.53222894988107
 20
-174.8627804210052
 10
87.21699726960336
 20
-174.7812583612767
 10
86.85087329529848
 20
-174.7812583612767
 10
86.85087329529848
 20
-174.7812583612767
 10
85.86245461030914
 20
-174.7812583612767
 10
85.86245461030914
 20
-174.7812583612767
 97
        0
 97
        1
330
87
 92
        1
 93
        1
 72
     4
 94
        3
 73
     0
 74
     0
 95
       53
 96
       49
 40
0.0
 40
0.0
 40
0.0
 40
0.0
 40
1.0
 40
1.0
 40
1.0
 40
2.0
 40
2.0
 40
2.0
 40
3.0
 40
3.0
 40
3.0
 40
4.0
 40
4.0
 40
4.0
 40
5.0
 40
5.0
 40
5.0
 40
6.0
 40
6.0
 40
6.0
 40
7.0
 40
7.0
 40
7.0
 40
8.0
 40
8.0
 40
8.0
 40
9.0
 40
9.0
 40
9.0
 40
10.0
 40
10.0
 40
10.0
 40
11.0
 40
11.0
 40
11.0
 40
12.0
 40
12.0
 40
12.0
 40
13.0
 40
13.0
 40
13.0
 40
14.0
 40
14.0
 40
14.0
 40
15.0
 40
15.0
 40
15.0
 40
16.0
 40
16.0
 40
16.0
 40
16.0
 10
86.85087329529848
 20
-172.5235905007247
 10
87.41224404829321
 20
-172.5235905007247
 10
87.92879217527358
 20
-172.570734040605
 10
88.4006627332822
 20
-172.6640057210403
 10
88.87238823424853
 20
-172.7575675155699
 10
89.28115897893581
 20
-172.9061059304503
 10
89.62712002438603
 20
-173.1094759086389
 10
89.9727909557523
 20
-173.3129909438695
 10
90.24334513554775
 20
-173.5752540826446
 10
90.43856911799181
 20
-173.8965554390533
 10
90.63396095372363
 20
-174.2180018525052
 10
90.73143928602659
 20
-174.606464621109
 10
90.73143928602659
 20
-175.0617986878189
 10
90.73143928602659
 20
-175.0617986878189
 10
90.73143928602659
 20
-180.4679297270679
 10
90.73143928602659
 20
-180.4679297270679
 10
90.73143928602659
 20
-180.9236989649139
 10
90.63396095372363
 20
-181.3120166764725
 10
90.43856911799181
 20
-181.6334630899264
 10
90.24334513554775
 20
-181.9547644463331
 10
89.9727909557523
 20
-182.2171726421521
 10
89.62712002438603
 20
-182.4205426203401
 10
89.28115897893581
 20
-182.6237675414791
 10
88.87238823424853
 20
-182.7723059563595
 10
88.4006627332822
 20
-182.8658677508897
 10
87.92879217527358
 20
-182.9594295454199
 10
87.41224404829321
 20
-183.0062829712078
 10
86.85087329529848
 20
-183.0062829712078
 10
86.85087329529848
 20
-183.0062829712078
 10
84.49572715947802
 20
-183.0062829712078
 10
84.49572715947802
 20
-183.0062829712078
 10
84.31672676950512
 20
-183.0062829712078
 10
84.16630261682932
 20
-182.9410073006044
 10
84.04401953032378
 20
-182.8108911305363
 10
84.04401953032378
 20
-182.8108911305363
 10
83.36065580490837
 20
-182.0909730123221
 10
83.36065580490837
 20
-182.0909730123221
 10
83.2386628324874
 20
-181.9607117852101
 10
83.17761643550523
 20
-181.8102876287316
 10
83.17761643550523
 20
-181.6394104288008
 10
83.17761643550523
 20
-181.6394104288008
 10
83.17761643550523
 20
-174.1589636348716
 10
83.17761643550523
 20
-174.1589636348716
 10
83.17761643550523
 20
-174.1589636348716
 10
82.37223711991939
 20
-172.5235905007247
 10
82.37223711991939
 20
-172.5235905007247
 10
82.37223711991939
 20
-172.5235905007247
 10
86.85087329529848
 20
-172.5235905007247
 10
86.85087329529848
 20
-172.5235905007247
 97
        0
 97
        1
330
88
 75
     2
 76
     1
 98
        1
 10
0.0
 20
0.0
450
        0
451
        0
460
0.0
461
0.0
452
        0
462
0.0
453
        0
470

  0
SPLINE
  5
8A
330
83
100
AcDbEntity
  8
Layer 1
100
AcDbSpline
210
0.0
220
0.0
230
1.0
 70
    11
 71
     3
 72
    65
 73
    61
 74
     0
 42
0.0000000001
 43
0.0000000001
 40
0.0
 40
0.0
 40
0.0
 40
0.0
 40
1.0
 40
1.0
 40
1.0
 40
2.0
 40
2.0
 40
2.0
 40
3.0
 40
3.0
 40
3.0
 40
4.0
 40
4.0
 40
4.0
 40
5.0
 40
5.0
 40
5.0
 40
6.0
 40
6.0
 40
6.0
 40
7.0
 40
7.0
 40
7.0
 40
8.0
 40
8.0
 40
8.0
 40
9.0
 40
9.0
 40
9.0
 40
10.0
 40
10.0
 40
10.0
 40
11.0
 40
11.0
 40
11.0
 40
12.0
 40
12.0
 40
12.0
 40
13.0
 40
13.0
 40
13.0
 40
14.0
 40
14.0
 40
14.0
 40
15.0
 40
15.0
 40
15.0
 40
16.0
 40
16.0
 40
16.0
 40
17.0
 40
17.0
 40
17.0
 40
18.0
 40
18.0
 40
18.0
 40
19.0
 40
19.0
 40
19.0
 40
20.0
 40
20.0
 40
20.0
 40
20.0
 10
91.70767317947834
 20
-183.0062829712078
 30
0.0
 10
91.70767317947834
 20
-183.0062829712078
 30
0.0
 10
91.70767317947834
 20
-174.1589636348716
 30
0.0
 10
91.70767317947834
 20
-174.1589636348716
 30
0.0
 10
91.70767317947834
 20
-174.1589636348716
 30
0.0
 10
90.90231648164133
 20
-172.5235905007247
 30
0.0
 10
90.90231648164133
 20
-172.5235905007247
 30
0.0
 10
90.90231648164133
 20
-172.5235905007247
 30
0.0
 10
96.90622745488646
 20
-172.5235905007247
 30
0.0
 10
96.90622745488646
 20
-172.5235905007247
 30
0.0
 10
97.75234518155812
 20
-172.5235905007247
 30
0.0
 10
98.39088628095979
 20
-172.741466183488
 30
0.0
 10
98.82201882309283
 20
-173.176492263792
 30
0.0
 10
99.25325039634842
 20
-173.6118084581813
 30
0.0
 10
99.46897324728068
 20
-174.2484638321172
 30
0.0
 10
99.46897324728068
 20
-175.0863133285545
 30
0.0
 10
99.46897324728068
 20
-175.0863133285545
 30
0.0
 10
99.46897324728068
 20
-177.1609191973295
 30
0.0
 10
99.46897324728068
 20
-177.1609191973295
 30
0.0
 10
99.46897324728068
 20
-177.4700357618895
 30
0.0
 10
99.42615839055253
 20
-177.7588443400441
 30
0.0
 10
99.34071979274516
 20
-178.0273449317853
 30
0.0
 10
99.2552811949378
 20
-178.2958455235277
 30
0.0
 10
99.14126635983333
 20
-178.5298225383748
 30
0.0
 10
98.99911045855828
 20
-178.7291309192781
 30
0.0
 10
98.85666444319932
 20
-178.9284393001847
 30
0.0
 10
98.69405549898534
 20
-179.0871317082693
 30
0.0
 10
98.51099351183304
 20
-179.2049180294422
 30
0.0
 10
98.32793152468076
 20
-179.32299446471
 30
0.0
 10
98.13863208471708
 20
-179.3818876252984
 30
0.0
 10
97.94353036306857
 20
-179.3818876252984
 30
0.0
 10
97.94353036306857
 20
-179.3818876252984
 30
0.0
 10
99.6520122051295
 20
-183.0062829712078
 30
0.0
 10
99.6520122051295
 20
-183.0062829712078
 30
0.0
 10
99.6520122051295
 20
-183.0062829712078
 30
0.0
 10
96.90622745488646
 20
-183.0062829712078
 30
0.0
 10
96.90622745488646
 20
-183.0062829712078
 30
0.0
 10
96.90622745488646
 20
-183.0062829712078
 30
0.0
 10
94.52671173599057
 20
-177.5392279727298
 30
0.0
 10
94.52671173599057
 20
-177.5392279727298
 30
0.0
 10
94.52671173599057
 20
-177.5392279727298
 30
0.0
 10
96.05213159089858
 20
-177.5392279727298
 30
0.0
 10
96.05213159089858
 20
-177.5392279727298
 30
0.0
 10
96.62133542416787
 20
-177.5392279727298
 30
0.0
 10
96.90622745488646
 20
-177.2559315623159
 30
0.0
 10
96.90622745488646
 20
-176.6887585133075
 30
0.0
 10
96.90622745488646
 20
-176.6887585133075
 30
0.0
 10
96.90622745488646
 20
-175.6315827636506
 30
0.0
 10
96.90622745488646
 20
-175.6315827636506
 30
0.0
 10
96.90622745488646
 20
-175.0648448857803
 30
0.0
 10
96.62133542416787
 20
-174.7812583612767
 30
0.0
 10
96.05213159089858
 20
-174.7812583612767
 30
0.0
 10
96.05213159089858
 20
-174.7812583612767
 30
0.0
 10
94.27039594256847
 20
-174.7812583612767
 30
0.0
 10
94.27039594256847
 20
-174.7812583612767
 30
0.0
 10
94.27039594256847
 20
-174.7812583612767
 30
0.0
 10
94.27039594256847
 20
-183.0062829712078
 30
0.0
 10
94.27039594256847
 20
-183.0062829712078
 30
0.0
 10
94.27039594256847
 20
-183.0062829712078
 30
0.0
 10
91.70767317947834
 20
-183.0062829712078
 30
0.0
 10
91.70767317947834
 20
-183.0062829712078
 30
0.0
  0
HATCH
  5
8B
330
83
100
AcDbEntity
  8
Layer 1
 62
   252
420
  8751758
440
 33554687
100
AcDbHatch
 10
0.0
 20
0.0
 30
0.0
210
0.0
220
0.0
230
1.0
  2
SOLID
 70
     1
 71
     1
 91
        1
 92
        1
 93
        1
 72
     4
 94
        3
 73
     0
 74
     0
 95
       65
 96
       61
 40
0.0
 40
0.0
 40
0.0
 40
0.0
 40
1.0
 40
1.0
 40
1.0
 40
2.0
 40
2.0
 40
2.0
 40
3.0
 40
3.0
 40
3.0
 40
4.0
 40
4.0
 40
4.0
 40
5.0
 40
5.0
 40
5.0
 40
6.0
 40
6.0
 40
6.0
 40
7.0
 40
7.0
 40
7.0
 40
8.0
 40
8.0
 40
8.0
 40
9.0
 40
9.0
 40
9.0
 40
10.0
 40
10.0
 40
10.0
 40
11.0
 40
11.0
 40
11.0
 40
12.0
 40
12.0
 40
12.0
 40
13.0
 40
13.0
 40
13.0
 40
14.0
 40
14.0
 40
14.0
 40
15.0
 40
15.0
 40
15.0
 40
16.0
 40
16.0
 40
16.0
 40
17.0
 40
17.0
 40
17.0
 40
18.0
 40
18.0
 40
18.0
 40
19.0
 40
19.0
 40
19.0
 40
20.0
 40
20.0
 40
20.0
 40
20.0
 10
91.70767317947834
 20
-183.0062829712078
 10
91.70767317947834
 20
-183.0062829712078
 10
91.70767317947834
 20
-174.1589636348716
 10
91.70767317947834
 20
-174.1589636348716
 10
91.70767317947834
 20
-174.1589636348716
 10
90.90231648164133
 20
-172.5235905007247
 10
90.90231648164133
 20
-172.5235905007247
 10
90.90231648164133
 20
-172.5235905007247
 10
96.90622745488646
 20
-172.5235905007247
 10
96.90622745488646
 20
-172.5235905007247
 10
97.75234518155812
 20
-172.5235905007247
 10
98.39088628095979
 20
-172.741466183488
 10
98.82201882309283
 20
-173.176492263792
 10
99.25325039634842
 20
-173.6118084581813
 10
99.46897324728068
 20
-174.2484638321172
 10
99.46897324728068
 20
-175.0863133285545
 10
99.46897324728068
 20
-175.0863133285545
 10
99.46897324728068
 20
-177.1609191973295
 10
99.46897324728068
 20
-177.1609191973295
 10
99.46897324728068
 20
-177.4700357618895
 10
99.42615839055253
 20
-177.7588443400441
 10
99.34071979274516
 20
-178.0273449317853
 10
99.2552811949378
 20
-178.2958455235277
 10
99.14126635983333
 20
-178.5298225383748
 10
98.99911045855828
 20
-178.7291309192781
 10
98.85666444319932
 20
-178.9284393001847
 10
98.69405549898534
 20
-179.0871317082693
 10
98.51099351183304
 20
-179.2049180294422
 10
98.32793152468076
 20
-179.32299446471
 10
98.13863208471708
 20
-179.3818876252984
 10
97.94353036306857
 20
-179.3818876252984
 10
97.94353036306857
 20
-179.3818876252984
 10
99.6520122051295
 20
-183.0062829712078
 10
99.6520122051295
 20
-183.0062829712078
 10
99.6520122051295
 20
-183.0062829712078
 10
96.90622745488646
 20
-183.0062829712078
 10
96.90622745488646
 20
-183.0062829712078
 10
96.90622745488646
 20
-183.0062829712078
 10
94.52671173599057
 20
-177.5392279727298
 10
94.52671173599057
 20
-177.5392279727298
 10
94.52671173599057
 20
-177.5392279727298
 10
96.05213159089858
 20
-177.5392279727298
 10
96.05213159089858
 20
-177.5392279727298
 10
96.62133542416787
 20
-177.5392279727298
 10
96.90622745488646
 20
-177.2559315623159
 10
96.90622745488646
 20
-176.6887585133075
 10
96.90622745488646
 20
-176.6887585133075
 10
96.90622745488646
 20
-175.6315827636506
 10
96.90622745488646
 20
-175.6315827636506
 10
96.90622745488646
 20
-175.0648448857803
 10
96.62133542416787
 20
-174.7812583612767
 10
96.05213159089858
 20
-174.7812583612767
 10
96.05213159089858
 20
-174.7812583612767
 10
94.27039594256847
 20
-174.7812583612767
 10
94.27039594256847
 20
-174.7812583612767
 10
94.27039594256847
 20
-174.7812583612767
 10
94.27039594256847
 20
-183.0062829712078
 10
94.27039594256847
 20
-183.0062829712078
 10
94.27039594256847
 20
-183.0062829712078
 10
91.70767317947834
 20
-183.0062829712078
 10
91.70767317947834
 20
-183.0062829712078
 97
        0
 97
        1
330
8A
 75
     2
 76
     1
 98
        1
 10
0.0
 20
0.0
450
        0
451
        0
460
0.0
461
0.0
452
        0
462
0.0
453
        0
470

  0
SPLINE
  5
8C
330
83
100
AcDbEntity
  8
Layer 1
100
AcDbSpline
210
0.0
220
0.0
230
1.0
 70
     9
 71
     3
 72
    35
 73
    31
 74
     0
 42
0.0000000001
 43
0.0000000001
 40
0.0
 40
0.0
 40
0.0
 40
0.0
 40
1.0
 40
1.0
 40
1.0
 40
2.0
 40
2.0
 40
2.0
 40
3.0
 40
3.0
 40
3.0
 40
4.0
 40
4.0
 40
4.0
 40
5.0
 40
5.0
 40
5.0
 40
6.0
 40
6.0
 40
6.0
 40
7.0
 40
7.0
 40
7.0
 40
8.0
 40
8.0
 40
8.0
 40
9.0
 40
9.0
 40
9.0
 40
10.0
 40
10.0
 40
10.0
 40
10.0
 10
102.9466928027455
 20
-179.9554431843199
 30
0.0
 10
102.9466928027455
 20
-180.2809511950533
 30
0.0
 10
103.0644791209448
 20
-180.5250822031059
 30
0.0
 10
103.3006319855125
 20
-180.687691151428
 30
0.0
 10
103.5364947359957
 20
-180.8505902138392
 30
0.0
 10
103.8171801124929
 20
-180.9316771024328
 30
0.0
 10
104.1427112623757
 20
-180.9316771024328
 30
0.0
 10
104.4679060034321
 20
-180.9316771024328
 30
0.0
 10
104.7485913799293
 20
-180.8505902138392
 30
0.0
 10
104.9847442444964
 20
-180.687691151428
 30
0.0
 10
105.2206069949796
 20
-180.5250822031059
 30
0.0
 10
105.3385383702215
 20
-180.2809511950533
 30
0.0
 10
105.3385383702215
 20
-179.9554431843199
 30
0.0
 10
105.3385383702215
 20
-179.9554431843199
 30
0.0
 10
105.3385383702215
 20
-175.5744302876133
 30
0.0
 10
105.3385383702215
 20
-175.5744302876133
 30
0.0
 10
105.3385383702215
 20
-175.2490673339212
 30
0.0
 10
105.2206069949796
 20
-175.0052264399634
 30
0.0
 10
104.9847442444964
 20
-174.8423273775497
 30
0.0
 10
104.7485913799293
 20
-174.6797184292301
 30
0.0
 10
104.4679060034321
 20
-174.5981963694991
 30
0.0
 10
104.1427112623757
 20
-174.5981963694991
 30
0.0
 10
103.8171801124929
 20
-174.5981963694991
 30
0.0
 10
103.5364947359957
 20
-174.6797184292301
 30
0.0
 10
103.3006319855125
 20
-174.8423273775497
 30
0.0
 10
103.0644791209448
 20
-175.0052264399634
 30
0.0
 10
102.9466928027455
 20
-175.2490673339212
 30
0.0
 10
102.9466928027455
 20
-175.5744302876133
 30
0.0
 10
102.9466928027455
 20
-175.5744302876133
 30
0.0
 10
102.9466928027455
 20
-179.9554431843199
 30
0.0
 10
102.9466928027455
 20
-179.9554431843199
 30
0.0
  0
SPLINE
  5
8D
330
83
100
AcDbEntity
  8
Layer 1
100
AcDbSpline
210
0.0
220
0.0
230
1.0
 70
     9
 71
     3
 72
    59
 73
    55
 74
     0
 42
0.0000000001
 43
0.0000000001
 40
0.0
 40
0.0
 40
0.0
 40
0.0
 40
1.0
 40
1.0
 40
1.0
 40
2.0
 40
2.0
 40
2.0
 40
3.0
 40
3.0
 40
3.0
 40
4.0
 40
4.0
 40
4.0
 40
5.0
 40
5.0
 40
5.0
 40
6.0
 40
6.0
 40
6.0
 40
7.0
 40
7.0
 40
7.0
 40
8.0
 40
8.0
 40
8.0
 40
9.0
 40
9.0
 40
9.0
 40
10.0
 40
10.0
 40
10.0
 40
11.0
 40
11.0
 40
11.0
 40
12.0
 40
12.0
 40
12.0
 40
13.0
 40
13.0
 40
13.0
 40
14.0
 40
14.0
 40
14.0
 40
15.0
 40
15.0
 40
15.0
 40
16.0
 40
16.0
 40
16.0
 40
17.0
 40
17.0
 40
17.0
 40
18.0
 40
18.0
 40
18.0
 40
18.0
 10
100.261977067234
 20
-175.0010197856369
 30
0.0
 10
100.261977067234
 20
-174.5455406618805
 30
0.0
 10
100.3596235083842
 20
-174.1509854973552
 30
0.0
 10
100.5549922923108
 20
-173.81720923501
 30
0.0
 10
100.7502390710012
 20
-173.4837230867571
 30
0.0
 10
101.0206253975083
 20
-173.2069542434047
 30
0.0
 10
101.3664413859166
 20
-172.9874829331361
 30
0.0
 10
101.7119672602409
 20
-172.7677215087773
 30
0.0
 10
102.1210281190127
 20
-172.6051125604551
 30
0.0
 10
102.5928986770197
 20
-172.4992209170336
 30
0.0
 10
103.0644791209448
 20
-172.3936193877036
 30
0.0
 10
103.581340495201
 20
-172.340528508949
 30
0.0
 10
104.1427112623757
 20
-172.340528508949
 30
0.0
 10
104.704082029553
 20
-172.340528508949
 30
0.0
 10
105.2206069949796
 20
-172.3936193877036
 30
0.0
 10
105.6924775529882
 20
-172.4992209170336
 30
0.0
 10
106.1642030539545
 20
-172.6051125604551
 30
0.0
 10
106.5729737986418
 20
-172.7677215087773
 30
0.0
 10
106.91878978705
 20
-172.9874829331361
 30
0.0
 10
107.2646057754583
 20
-173.2069542434047
 30
0.0
 10
107.5351371590067
 20
-173.4837230867571
 30
0.0
 10
107.7303839376978
 20
-173.81720923501
 30
0.0
 10
107.9256307163876
 20
-174.1509854973552
 30
0.0
 10
108.0232541057326
 20
-174.5455406618805
 30
0.0
 10
108.0232541057326
 20
-175.0010197856369
 30
0.0
 10
108.0232541057326
 20
-175.0010197856369
 30
0.0
 10
108.0232541057326
 20
-180.5291438003886
 30
0.0
 10
108.0232541057326
 20
-180.5291438003886
 30
0.0
 10
108.0232541057326
 20
-180.9847679811888
 30
0.0
 10
107.9256307163876
 20
-181.3793231457141
 30
0.0
 10
107.7303839376978
 20
-181.7128092939696
 30
0.0
 10
107.5351371590067
 20
-182.0462954422206
 30
0.0
 10
107.2646057754583
 20
-182.3229192285285
 30
0.0
 10
106.91878978705
 20
-182.5425355958435
 30
0.0
 10
106.5729737986418
 20
-182.7622970202024
 30
0.0
 10
106.1642030539545
 20
-182.9249059685219
 30
0.0
 10
105.6924775529882
 20
-183.0306525548964
 30
0.0
 10
105.2206069949796
 20
-183.1362540842276
 30
0.0
 10
104.704082029553
 20
-183.189344962983
 30
0.0
 10
104.1427112623757
 20
-183.189344962983
 30
0.0
 10
103.581340495201
 20
-183.189344962983
 30
0.0
 10
103.0644791209448
 20
-183.1362540842276
 30
0.0
 10
102.5928986770197
 20
-183.0306525548964
 30
0.0
 10
102.1210281190127
 20
-182.9249059685219
 30
0.0
 10
101.7119672602409
 20
-182.7622970202024
 30
0.0
 10
101.3664413859166
 20
-182.5425355958435
 30
0.0
 10
101.0206253975083
 20
-182.3229192285285
 30
0.0
 10
100.7502390710012
 20
-182.0462954422206
 30
0.0
 10
100.5549922923108
 20
-181.7128092939696
 30
0.0
 10
100.3596235083842
 20
-181.3793231457141
 30
0.0
 10
100.261977067234
 20
-180.9847679811888
 30
0.0
 10
100.261977067234
 20
-180.5291438003886
 30
0.0
 10
100.261977067234
 20
-180.5291438003886
 30
0.0
 10
100.261977067234
 20
-175.0010197856369
 30
0.0
 10
100.261977067234
 20
-175.0010197856369
 30
0.0
  0
HATCH
  5
8E
330
83
100
AcDbEntity
  8
Layer 1
 62
   252
420
  8751758
440
 33554687
100
AcDbHatch
 10
0.0
 20
0.0
 30
0.0
210
0.0
220
0.0
230
1.0
  2
SOLID
 70
     1
 71
     1
 91
        2
 92
        1
 93
        1
 72
     4
 94
        3
 73
     0
 74
     0
 95
       35
 96
       31
 40
0.0
 40
0.0
 40
0.0
 40
0.0
 40
1.0
 40
1.0
 40
1.0
 40
2.0
 40
2.0
 40
2.0
 40
3.0
 40
3.0
 40
3.0
 40
4.0
 40
4.0
 40
4.0
 40
5.0
 40
5.0
 40
5.0
 40
6.0
 40
6.0
 40
6.0
 40
7.0
 40
7.0
 40
7.0
 40
8.0
 40
8.0
 40
8.0
 40
9.0
 40
9.0
 40
9.0
 40
10.0
 40
10.0
 40
10.0
 40
10.0
 10
102.9466928027455
 20
-179.9554431843199
 10
102.9466928027455
 20
-180.2809511950533
 10
103.0644791209448
 20
-180.5250822031059
 10
103.3006319855125
 20
-180.687691151428
 10
103.5364947359957
 20
-180.8505902138392
 10
103.8171801124929
 20
-180.9316771024328
 10
104.1427112623757
 20
-180.9316771024328
 10
104.4679060034321
 20
-180.9316771024328
 10
104.7485913799293
 20
-180.8505902138392
 10
104.9847442444964
 20
-180.687691151428
 10
105.2206069949796
 20
-180.5250822031059
 10
105.3385383702215
 20
-180.2809511950533
 10
105.3385383702215
 20
-179.9554431843199
 10
105.3385383702215
 20
-179.9554431843199
 10
105.3385383702215
 20
-175.5744302876133
 10
105.3385383702215
 20
-175.5744302876133
 10
105.3385383702215
 20
-175.2490673339212
 10
105.2206069949796
 20
-175.0052264399634
 10
104.9847442444964
 20
-174.8423273775497
 10
104.7485913799293
 20
-174.6797184292301
 10
104.4679060034321
 20
-174.5981963694991
 10
104.1427112623757
 20
-174.5981963694991
 10
103.8171801124929
 20
-174.5981963694991
 10
103.5364947359957
 20
-174.6797184292301
 10
103.3006319855125
 20
-174.8423273775497
 10
103.0644791209448
 20
-175.0052264399634
 10
102.9466928027455
 20
-175.2490673339212
 10
102.9466928027455
 20
-175.5744302876133
 10
102.9466928027455
 20
-175.5744302876133
 10
102.9466928027455
 20
-179.9554431843199
 10
102.9466928027455
 20
-179.9554431843199
 97
        0
 97
        1
330
8C
 92
        1
 93
        1
 72
     4
 94
        3
 73
     0
 74
     0
 95
       59
 96
       55
 40
0.0
 40
0.0
 40
0.0
 40
0.0
 40
1.0
 40
1.0
 40
1.0
 40
2.0
 40
2.0
 40
2.0
 40
3.0
 40
3.0
 40
3.0
 40
4.0
 40
4.0
 40
4.0
 40
5.0
 40
5.0
 40
5.0
 40
6.0
 40
6.0
 40
6.0
 40
7.0
 40
7.0
 40
7.0
 40
8.0
 40
8.0
 40
8.0
 40
9.0
 40
9.0
 40
9.0
 40
10.0
 40
10.0
 40
10.0
 40
11.0
 40
11.0
 40
11.0
 40
12.0
 40
12.0
 40
12.0
 40
13.0
 40
13.0
 40
13.0
 40
14.0
 40
14.0
 40
14.0
 40
15.0
 40
15.0
 40
15.0
 40
16.0
 40
16.0
 40
16.0
 40
17.0
 40
17.0
 40
17.0
 40
18.0
 40
18.0
 40
18.0
 40
18.0
 10
100.261977067234
 20
-175.0010197856369
 10
100.261977067234
 20
-174.5455406618805
 10
100.3596235083842
 20
-174.1509854973552
 10
100.5549922923108
 20
-173.81720923501
 10
100.7502390710012
 20
-173.4837230867571
 10
101.0206253975083
 20
-173.2069542434047
 10
101.3664413859166
 20
-172.9874829331361
 10
101.7119672602409
 20
-172.7677215087773
 10
102.1210281190127
 20
-172.6051125604551
 10
102.5928986770197
 20
-172.4992209170336
 10
103.0644791209448
 20
-172.3936193877036
 10
103.581340495201
 20
-172.340528508949
 10
104.1427112623757
 20
-172.340528508949
 10
104.704082029553
 20
-172.340528508949
 10
105.2206069949796
 20
-172.3936193877036
 10
105.6924775529882
 20
-172.4992209170336
 10
106.1642030539545
 20
-172.6051125604551
 10
106.5729737986418
 20
-172.7677215087773
 10
106.91878978705
 20
-172.9874829331361
 10
107.2646057754583
 20
-173.2069542434047
 10
107.5351371590067
 20
-173.4837230867571
 10
107.7303839376978
 20
-173.81720923501
 10
107.9256307163876
 20
-174.1509854973552
 10
108.0232541057326
 20
-174.5455406618805
 10
108.0232541057326
 20
-175.0010197856369
 10
108.0232541057326
 20
-175.0010197856369
 10
108.0232541057326
 20
-180.5291438003886
 10
108.0232541057326
 20
-180.5291438003886
 10
108.0232541057326
 20
-180.9847679811888
 10
107.9256307163876
 20
-181.3793231457141
 10
107.7303839376978
 20
-181.7128092939696
 10
107.5351371590067
 20
-182.0462954422206
 10
107.2646057754583
 20
-182.3229192285285
 10
106.91878978705
 20
-182.5425355958435
 10
106.5729737986418
 20
-182.7622970202024
 10
106.1642030539545
 20
-182.9249059685219
 10
105.6924775529882
 20
-183.0306525548964
 10
105.2206069949796
 20
-183.1362540842276
 10
104.704082029553
 20
-183.189344962983
 10
104.1427112623757
 20
-183.189344962983
 10
103.581340495201
 20
-183.189344962983
 10
103.0644791209448
 20
-183.1362540842276
 10
102.5928986770197
 20
-183.0306525548964
 10
102.1210281190127
 20
-182.9249059685219
 10
101.7119672602409
 20
-182.7622970202024
 10
101.3664413859166
 20
-182.5425355958435
 10
101.0206253975083
 20
-182.3229192285285
 10
100.7502390710012
 20
-182.0462954422206
 10
100.5549922923108
 20
-181.7128092939696
 10
100.3596235083842
 20
-181.3793231457141
 10
100.261977067234
 20
-180.9847679811888
 10
100.261977067234
 20
-180.5291438003886
 10
100.261977067234
 20
-180.5291438003886
 10
100.261977067234
 20
-175.0010197856369
 10
100.261977067234
 20
-175.0010197856369
 97
        0
 97
        1
330
8D
 75
     2
 76
     1
 98
        1
 10
0.0
 20
0.0
450
        0
451
        0
460
0.0
461
0.0
452
        0
462
0.0
453
        0
470

  0
SPLINE
  5
8F
330
83
100
AcDbEntity
  8
Layer 1
100
AcDbSpline
210
0.0
220
0.0
230
1.0
 70
    11
 71
     3
 72
    38
 73
    34
 74
     0
 42
0.0000000001
 43
0.0000000001
 40
0.0
 40
0.0
 40
0.0
 40
0.0
 40
1.0
 40
1.0
 40
1.0
 40
2.0
 40
2.0
 40
2.0
 40
3.0
 40
3.0
 40
3.0
 40
4.0
 40
4.0
 40
4.0
 40
5.0
 40
5.0
 40
5.0
 40
6.0
 40
6.0
 40
6.0
 40
7.0
 40
7.0
 40
7.0
 40
8.0
 40
8.0
 40
8.0
 40
9.0
 40
9.0
 40
9.0
 40
10.0
 40
10.0
 40
10.0
 40
11.0
 40
11.0
 40
11.0
 40
11.0
 10
111.6843487917377
 20
-177.4050502053802
 30
0.0
 10
111.6843487917377
 20
-177.4050502053802
 30
0.0
 10
111.6843487917377
 20
-183.0062829712078
 30
0.0
 10
111.6843487917377
 20
-183.0062829712078
 30
0.0
 10
111.6843487917377
 20
-183.0062829712078
 30
0.0
 10
109.1214809716056
 20
-183.0062829712078
 30
0.0
 10
109.1214809716056
 20
-183.0062829712078
 30
0.0
 10
109.1214809716056
 20
-183.0062829712078
 30
0.0
 10
109.1214809716056
 20
-174.1589636348716
 30
0.0
 10
109.1214809716056
 20
-174.1589636348716
 30
0.0
 10
109.1214809716056
 20
-174.1589636348716
 30
0.0
 10
108.3161242737686
 20
-172.5235905007247
 30
0.0
 10
108.3161242737686
 20
-172.5235905007247
 30
0.0
 10
108.3161242737686
 20
-172.5235905007247
 30
0.0
 10
111.6843487917377
 20
-172.5235905007247
 30
0.0
 10
111.6843487917377
 20
-172.5235905007247
 30
0.0
 10
111.6843487917377
 20
-172.5235905007247
 30
0.0
 10
114.2589896352123
 20
-178.1249683235975
 30
0.0
 10
114.2589896352123
 20
-178.1249683235975
 30
0.0
 10
114.2589896352123
 20
-178.1249683235975
 30
0.0
 10
114.2589896352123
 20
-172.5235905007247
 30
0.0
 10
114.2589896352123
 20
-172.5235905007247
 30
0.0
 10
114.2589896352123
 20
-172.5235905007247
 30
0.0
 10
116.8218340524148
 20
-172.5235905007247
 30
0.0
 10
116.8218340524148
 20
-172.5235905007247
 30
0.0
 10
116.8218340524148
 20
-172.5235905007247
 30
0.0
 10
116.8218340524148
 20
-183.0062829712078
 30
0.0
 10
116.8218340524148
 20
-183.0062829712078
 30
0.0
 10
116.8218340524148
 20
-183.0062829712078
 30
0.0
 10
114.2589896352123
 20
-183.0062829712078
 30
0.0
 10
114.2589896352123
 20
-183.0062829712078
 30
0.0
 10
114.2589896352123
 20
-183.0062829712078
 30
0.0
 10
111.6843487917377
 20
-177.4050502053802
 30
0.0
 10
111.6843487917377
 20
-177.4050502053802
 30
0.0
  0
HATCH
  5
90
330
83
100
AcDbEntity
  8
Layer 1
 62
   252
420
  8751758
440
 33554687
100
AcDbHatch
 10
0.0
 20
0.0
 30
0.0
210
0.0
220
0.0
230
1.0
  2
SOLID
 70
     1
 71
     1
 91
        1
 92
        1
 93
        1
 72
     4
 94
        3
 73
     0
 74
     0
 95
       38
 96
       34
 40
0.0
 40
0.0
 40
0.0
 40
0.0
 40
1.0
 40
1.0
 40
1.0
 40
2.0
 40
2.0
 40
2.0
 40
3.0
 40
3.0
 40
3.0
 40
4.0
 40
4.0
 40
4.0
 40
5.0
 40
5.0
 40
5.0
 40
6.0
 40
6.0
 40
6.0
 40
7.0
 40
7.0
 40
7.0
 40
8.0
 40
8.0
 40
8.0
 40
9.0
 40
9.0
 40
9.0
 40
10.0
 40
10.0
 40
10.0
 40
11.0
 40
11.0
 40
11.0
 40
11.0
 10
111.6843487917377
 20
-177.4050502053802
 10
111.6843487917377
 20
-177.4050502053802
 10
111.6843487917377
 20
-183.0062829712078
 10
111.6843487917377
 20
-183.0062829712078
 10
111.6843487917377
 20
-183.0062829712078
 10
109.1214809716056
 20
-183.0062829712078
 10
109.1214809716056
 20
-183.0062829712078
 10
109.1214809716056
 20
-183.0062829712078
 10
109.1214809716056
 20
-174.1589636348716
 10
109.1214809716056
 20
-174.1589636348716
 10
109.1214809716056
 20
-174.1589636348716
 10
108.3161242737686
 20
-172.5235905007247
 10
108.3161242737686
 20
-172.5235905007247
 10
108.3161242737686
 20
-172.5235905007247
 10
111.6843487917377
 20
-172.5235905007247
 10
111.6843487917377
 20
-172.5235905007247
 10
111.6843487917377
 20
-172.5235905007247
 10
114.2589896352123
 20
-178.1249683235975
 10
114.2589896352123
 20
-178.1249683235975
 10
114.2589896352123
 20
-178.1249683235975
 10
114.2589896352123
 20
-172.5235905007247
 10
114.2589896352123
 20
-172.5235905007247
 10
114.2589896352123
 20
-172.5235905007247
 10
116.8218340524148
 20
-172.5235905007247
 10
116.8218340524148
 20
-172.5235905007247
 10
116.8218340524148
 20
-172.5235905007247
 10
116.8218340524148
 20
-183.0062829712078
 10
116.8218340524148
 20
-183.0062829712078
 10
116.8218340524148
 20
-183.0062829712078
 10
114.2589896352123
 20
-183.0062829712078
 10
114.2589896352123
 20
-183.0062829712078
 10
114.2589896352123
 20
-183.0062829712078
 10
111.6843487917377
 20
-177.4050502053802
 10
111.6843487917377
 20
-177.4050502053802
 97
        0
 97
        1
330
8F
 75
     2
 76
     1
 98
        1
 10
0.0
 20
0.0
450
        0
451
        0
460
0.0
461
0.0
452
        0
462
0.0
453
        0
470

  0
SPLINE
  5
91
330
83
100
AcDbEntity
  8
Layer 1
100
AcDbSpline
210
0.0
220
0.0
230
1.0
 70
    11
 71
     3
 72
    56
 73
    52
 74
     0
 42
0.0000000001
 43
0.0000000001
 40
0.0
 40
0.0
 40
0.0
 40
0.0
 40
1.0
 40
1.0
 40
1.0
 40
2.0
 40
2.0
 40
2.0
 40
3.0
 40
3.0
 40
3.0
 40
4.0
 40
4.0
 40
4.0
 40
5.0
 40
5.0
 40
5.0
 40
6.0
 40
6.0
 40
6.0
 40
7.0
 40
7.0
 40
7.0
 40
8.0
 40
8.0
 40
8.0
 40
9.0
 40
9.0
 40
9.0
 40
10.0
 40
10.0
 40
10.0
 40
11.0
 40
11.0
 40
11.0
 40
12.0
 40
12.0
 40
12.0
 40
13.0
 40
13.0
 40
13.0
 40
14.0
 40
14.0
 40
14.0
 40
15.0
 40
15.0
 40
15.0
 40
16.0
 40
16.0
 40
16.0
 40
17.0
 40
17.0
 40
17.0
 40
17.0
 10
125.2421052332536
 20
-180.7486151106552
 30
0.0
 10
125.2421052332536
 20
-180.7486151106552
 30
0.0
 10
125.2421052332536
 20
-183.0062829712078
 30
0.0
 10
125.2421052332536
 20
-183.0062829712078
 30
0.0
 10
125.2421052332536
 20
-183.0062829712078
 30
0.0
 10
119.2380492029666
 20
-183.0062829712078
 30
0.0
 10
119.2380492029666
 20
-183.0062829712078
 30
0.0
 10
119.059048812993
 20
-183.0062829712078
 30
0.0
 10
118.9086246603166
 20
-182.9410073006044
 30
0.0
 10
118.7864866308546
 20
-182.8108911305363
 30
0.0
 10
118.7864866308546
 20
-182.8108911305363
 30
0.0
 10
118.1031229054389
 20
-182.0909730123221
 30
0.0
 10
118.1031229054389
 20
-182.0909730123221
 30
0.0
 10
117.9811534299791
 20
-181.9607117852101
 30
0.0
 10
117.9200609182866
 20
-181.8102876287316
 30
0.0
 10
117.9200609182866
 20
-181.6394104288008
 30
0.0
 10
117.9200609182866
 20
-181.6394104288008
 30
0.0
 10
117.9200609182866
 20
-174.1589636348716
 30
0.0
 10
117.9200609182866
 20
-174.1589636348716
 30
0.0
 10
117.9200609182866
 20
-174.1589636348716
 30
0.0
 10
117.1147042204496
 20
-172.5235905007247
 30
0.0
 10
117.1147042204496
 20
-172.5235905007247
 30
0.0
 10
117.1147042204496
 20
-172.5235905007247
 30
0.0
 10
124.6807344802592
 20
-172.5235905007247
 30
0.0
 10
124.6807344802592
 20
-172.5235905007247
 30
0.0
 10
124.6807344802592
 20
-172.5235905007247
 30
0.0
 10
125.1688514269851
 20
-174.7812583612767
 30
0.0
 10
125.1688514269851
 20
-174.7812583612767
 30
0.0
 10
125.1688514269851
 20
-174.7812583612767
 30
0.0
 10
120.60492171084
 20
-174.7812583612767
 30
0.0
 10
120.60492171084
 20
-174.7812583612767
 30
0.0
 10
120.60492171084
 20
-174.7812583612767
 30
0.0
 10
120.60492171084
 20
-176.6239180138453
 30
0.0
 10
120.60492171084
 20
-176.6239180138453
 30
0.0
 10
120.60492171084
 20
-176.6239180138453
 30
0.0
 10
124.2169871166084
 20
-176.6239180138453
 30
0.0
 10
124.2169871166084
 20
-176.6239180138453
 30
0.0
 10
124.2169871166084
 20
-176.6239180138453
 30
0.0
 10
124.7051040633356
 20
-178.8815858743961
 30
0.0
 10
124.7051040633356
 20
-178.8815858743961
 30
0.0
 10
124.7051040633356
 20
-178.8815858743961
 30
0.0
 10
121.5810105472485
 20
-178.8815858743961
 30
0.0
 10
121.5810105472485
 20
-178.8815858743961
 30
0.0
 10
121.5810105472485
 20
-178.8815858743961
 30
0.0
 10
120.60492171084
 20
-177.8564677318532
 30
0.0
 10
120.60492171084
 20
-177.8564677318532
 30
0.0
 10
120.60492171084
 20
-177.8564677318532
 30
0.0
 10
120.60492171084
 20
-180.7486151106552
 30
0.0
 10
120.60492171084
 20
-180.7486151106552
 30
0.0
 10
120.60492171084
 20
-180.7486151106552
 30
0.0
 10
125.2421052332536
 20
-180.7486151106552
 30
0.0
 10
125.2421052332536
 20
-180.7486151106552
 30
0.0
  0
HATCH
  5
92
330
83
100
AcDbEntity
  8
Layer 1
 62
   252
420
  8751758
440
 33554687
100
AcDbHatch
 10
0.0
 20
0.0
 30
0.0
210
0.0
220
0.0
230
1.0
  2
SOLID
 70
     1
 71
     1
 91
        1
 92
        1
 93
        1
 72
     4
 94
        3
 73
     0
 74
     0
 95
       56
 96
       52
 40
0.0
 40
0.0
 40
0.0
 40
0.0
 40
1.0
 40
1.0
 40
1.0
 40
2.0
 40
2.0
 40
2.0
 40
3.0
 40
3.0
 40
3.0
 40
4.0
 40
4.0
 40
4.0
 40
5.0
 40
5.0
 40
5.0
 40
6.0
 40
6.0
 40
6.0
 40
7.0
 40
7.0
 40
7.0
 40
8.0
 40
8.0
 40
8.0
 40
9.0
 40
9.0
 40
9.0
 40
10.0
 40
10.0
 40
10.0
 40
11.0
 40
11.0
 40
11.0
 40
12.0
 40
12.0
 40
12.0
 40
13.0
 40
13.0
 40
13.0
 40
14.0
 40
14.0
 40
14.0
 40
15.0
 40
15.0
 40
15.0
 40
16.0
 40
16.0
 40
16.0
 40
17.0
 40
17.0
 40
17.0
 40
17.0
 10
125.2421052332536
 20
-180.7486151106552
 10
125.2421052332536
 20
-180.7486151106552
 10
125.2421052332536
 20
-183.0062829712078
 10
125.2421052332536
 20
-183.0062829712078
 10
125.2421052332536
 20
-183.0062829712078
 10
119.2380492029666
 20
-183.0062829712078
 10
119.2380492029666
 20
-183.0062829712078
 10
119.059048812993
 20
-183.0062829712078
 10
118.9086246603166
 20
-182.9410073006044
 10
118.7864866308546
 20
-182.8108911305363
 10
118.7864866308546
 20
-182.8108911305363
 10
118.1031229054389
 20
-182.0909730123221
 10
118.1031229054389
 20
-182.0909730123221
 10
117.9811534299791
 20
-181.9607117852101
 10
117.9200609182866
 20
-181.8102876287316
 10
117.9200609182866
 20
-181.6394104288008
 10
117.9200609182866
 20
-181.6394104288008
 10
117.9200609182866
 20
-174.1589636348716
 10
117.9200609182866
 20
-174.1589636348716
 10
117.9200609182866
 20
-174.1589636348716
 10
117.1147042204496
 20
-172.5235905007247
 10
117.1147042204496
 20
-172.5235905007247
 10
117.1147042204496
 20
-172.5235905007247
 10
124.6807344802592
 20
-172.5235905007247
 10
124.6807344802592
 20
-172.5235905007247
 10
124.6807344802592
 20
-172.5235905007247
 10
125.1688514269851
 20
-174.7812583612767
 10
125.1688514269851
 20
-174.7812583612767
 10
125.1688514269851
 20
-174.7812583612767
 10
120.60492171084
 20
-174.7812583612767
 10
120.60492171084
 20
-174.7812583612767
 10
120.60492171084
 20
-174.7812583612767
 10
120.60492171084
 20
-176.6239180138453
 10
120.60492171084
 20
-176.6239180138453
 10
120.60492171084
 20
-176.6239180138453
 10
124.2169871166084
 20
-176.6239180138453
 10
124.2169871166084
 20
-176.6239180138453
 10
124.2169871166084
 20
-176.6239180138453
 10
124.7051040633356
 20
-178.8815858743961
 10
124.7051040633356
 20
-178.8815858743961
 10
124.7051040633356
 20
-178.8815858743961
 10
121.5810105472485
 20
-178.8815858743961
 10
121.5810105472485
 20
-178.8815858743961
 10
121.5810105472485
 20
-178.8815858743961
 10
120.60492171084
 20
-177.8564677318532
 10
120.60492171084
 20
-177.8564677318532
 10
120.60492171084
 20
-177.8564677318532
 10
120.60492171084
 20
-180.7486151106552
 10
120.60492171084
 20
-180.7486151106552
 10
120.60492171084
 20
-180.7486151106552
 10
125.2421052332536
 20
-180.7486151106552
 10
125.2421052332536
 20
-180.7486151106552
 97
        0
 97
        1
330
91
 75
     2
 76
     1
 98
        1
 10
0.0
 20
0.0
450
        0
451
        0
460
0.0
461
0.0
452
        0
462
0.0
453
        0
470

  0
SPLINE
  5
93
330
83
100
AcDbEntity
  8
Layer 1
100
AcDbSpline
210
0.0
220
0.0
230
1.0
 70
     9
 71
     3
 72
    23
 73
    19
 74
     0
 42
0.0000000001
 43
0.0000000001
 40
0.0
 40
0.0
 40
0.0
 40
0.0
 40
1.0
 40
1.0
 40
1.0
 40
2.0
 40
2.0
 40
2.0
 40
3.0
 40
3.0
 40
3.0
 40
4.0
 40
4.0
 40
4.0
 40
5.0
 40
5.0
 40
5.0
 40
6.0
 40
6.0
 40
6.0
 40
6.0
 10
69.33944211382623
 20
-195.3924139964384
 30
0.0
 10
69.74618205992382
 20
-195.3924139964384
 30
0.0
 10
69.94969709001473
 20
-195.1891890752975
 30
0.0
 10
69.94969709001473
 20
-194.7824491189254
 30
0.0
 10
69.94969709001473
 20
-194.7824491189254
 30
0.0
 10
69.94969709001473
 20
-194.1112701680922
 30
0.0
 10
69.94969709001473
 20
-194.1112701680922
 30
0.0
 10
69.94969709001473
 20
-193.7045302117201
 30
0.0
 10
69.74618205992382
 20
-193.5010151764888
 30
0.0
 10
69.33944211382623
 20
-193.5010151764888
 30
0.0
 10
69.33944211382623
 20
-193.5010151764888
 30
0.0
 10
67.70421407803512
 20
-193.5010151764888
 30
0.0
 10
67.70421407803512
 20
-193.5010151764888
 30
0.0
 10
67.70421407803512
 20
-193.5010151764888
 30
0.0
 10
67.70421407803512
 20
-195.3924139964384
 30
0.0
 10
67.70421407803512
 20
-195.3924139964384
 30
0.0
 10
67.70421407803512
 20
-195.3924139964384
 30
0.0
 10
69.33944211382623
 20
-195.3924139964384
 30
0.0
 10
69.33944211382623
 20
-195.3924139964384
 30
0.0
  0
SPLINE
  5
94
330
83
100
AcDbEntity
  8
Layer 1
100
AcDbSpline
210
0.0
220
0.0
230
1.0
 70
    11
 71
     3
 72
    23
 73
    19
 74
     0
 42
0.0000000001
 43
0.0000000001
 40
0.0
 40
0.0
 40
0.0
 40
0.0
 40
1.0
 40
1.0
 40
1.0
 40
2.0
 40
2.0
 40
2.0
 40
3.0
 40
3.0
 40
3.0
 40
4.0
 40
4.0
 40
4.0
 40
5.0
 40
5.0
 40
5.0
 40
6.0
 40
6.0
 40
6.0
 40
6.0
 10
67.70421407803512
 20
-191.2433473159362
 30
0.0
 10
67.70421407803512
 20
-191.2433473159362
 30
0.0
 10
69.21744914140525
 20
-191.2433473159362
 30
0.0
 10
69.21744914140525
 20
-191.2433473159362
 30
0.0
 10
69.62418908750284
 20
-191.2433473159362
 30
0.0
 10
69.82755906055179
 20
-191.0402674518424
 30
0.0
 10
69.82755906055179
 20
-190.6332373813779
 30
0.0
 10
69.82755906055179
 20
-190.6332373813779
 30
0.0
 10
69.82755906055179
 20
-190.035312238664
 30
0.0
 10
69.82755906055179
 20
-190.035312238664
 30
0.0
 10
69.82755906055179
 20
-189.6285722822912
 30
0.0
 10
69.62418908750284
 20
-189.42505724706
 30
0.0
 10
69.21744914140525
 20
-189.42505724706
 30
0.0
 10
69.21744914140525
 20
-189.42505724706
 30
0.0
 10
67.70421407803512
 20
-189.42505724706
 30
0.0
 10
67.70421407803512
 20
-189.42505724706
 30
0.0
 10
67.70421407803512
 20
-189.42505724706
 30
0.0
 10
67.70421407803512
 20
-191.2433473159362
 30
0.0
 10
67.70421407803512
 20
-191.2433473159362
 30
0.0
  0
SPLINE
  5
95
330
83
100
AcDbEntity
  8
Layer 1
100
AcDbSpline
210
0.0
220
0.0
230
1.0
 70
     9
 71
     3
 72
    56
 73
    52
 74
     0
 42
0.0000000001
 43
0.0000000001
 40
0.0
 40
0.0
 40
0.0
 40
0.0
 40
1.0
 40
1.0
 40
1.0
 40
2.0
 40
2.0
 40
2.0
 40
3.0
 40
3.0
 40
3.0
 40
4.0
 40
4.0
 40
4.0
 40
5.0
 40
5.0
 40
5.0
 40
6.0
 40
6.0
 40
6.0
 40
7.0
 40
7.0
 40
7.0
 40
8.0
 40
8.0
 40
8.0
 40
9.0
 40
9.0
 40
9.0
 40
10.0
 40
10.0
 40
10.0
 40
11.0
 40
11.0
 40
11.0
 40
12.0
 40
12.0
 40
12.0
 40
13.0
 40
13.0
 40
13.0
 40
14.0
 40
14.0
 40
14.0
 40
15.0
 40
15.0
 40
15.0
 40
16.0
 40
16.0
 40
16.0
 40
17.0
 40
17.0
 40
17.0
 40
17.0
 10
72.5122747960632
 20
-190.4501753896003
 30
0.0
 10
72.5122747960632
 20
-190.9382923486584
 30
0.0
 10
72.40638315531754
 20
-191.3453224191202
 30
0.0
 10
72.19503504495239
 20
-191.6705403157638
 30
0.0
 10
71.98339682050267
 20
-191.9960483264997
 30
0.0
 10
71.67036372361322
 20
-192.2279945427068
 30
0.0
 10
71.25537784268449
 20
-192.3660888502907
 30
0.0
 10
71.7108569664402
 20
-192.5044732719637
 30
0.0
 10
72.0546421649422
 20
-192.7383052297675
 30
0.0
 10
72.28656603852853
 20
-193.067729780739
 30
0.0
 10
72.51836719183231
 20
-193.3972993887525
 30
0.0
 10
72.63426776848419
 20
-193.8062152008138
 30
0.0
 10
72.63426776848419
 20
-194.2943321598699
 30
0.0
 10
72.63426776848419
 20
-194.2943321598699
 30
0.0
 10
72.63426776848419
 20
-195.3316350942558
 30
0.0
 10
72.63426776848419
 20
-195.3316350942558
 30
0.0
 10
72.63426776848419
 20
-196.096230782572
 30
0.0
 10
72.4430825869731
 20
-196.6738479388775
 30
0.0
 10
72.06071222395158
 20
-197.0644865631685
 30
0.0
 10
71.67834186092941
 20
-197.4548350733672
 30
0.0
 10
71.05590209320336
 20
-197.6500818569924
 30
0.0
 10
70.1936830348567
 20
-197.6500818569924
 30
0.0
 10
70.1936830348567
 20
-197.6500818569924
 30
0.0
 10
66.33748662720368
 20
-197.6500818569924
 30
0.0
 10
66.33748662720368
 20
-197.6500818569924
 30
0.0
 10
66.15848623723078
 20
-197.6500818569924
 30
0.0
 10
66.00806208455498
 20
-197.5848061863877
 30
0.0
 10
65.88577899804945
 20
-197.4548350733672
 30
0.0
 10
65.88577899804945
 20
-197.4548350733672
 30
0.0
 10
65.20241527263404
 20
-196.7347718981054
 30
0.0
 10
65.20241527263404
 20
-196.7347718981054
 30
0.0
 10
65.08042230021306
 20
-196.6046557280385
 30
0.0
 10
65.01937544451521
 20
-196.4542315715632
 30
0.0
 10
65.01937544451521
 20
-196.2833543716317
 30
0.0
 10
65.01937544451521
 20
-196.2833543716317
 30
0.0
 10
65.01937544451521
 20
-188.8027625206549
 30
0.0
 10
65.01937544451521
 20
-188.8027625206549
 30
0.0
 10
65.01937544451521
 20
-188.8027625206549
 30
0.0
 10
64.21399658764504
 20
-187.1673893865079
 30
0.0
 10
64.21399658764504
 20
-187.1673893865079
 30
0.0
 10
64.21399658764504
 20
-187.1673893865079
 30
0.0
 10
70.07171234910217
 20
-187.1673893865079
 30
0.0
 10
70.07171234910217
 20
-187.1673893865079
 30
0.0
 10
70.93390912078238
 20
-187.1673893865079
 30
0.0
 10
71.55620383146646
 20
-187.3626361701312
 30
0.0
 10
71.9387192515306
 20
-187.7532747944221
 30
0.0
 10
72.32108961455212
 20
-188.143768361666
 30
0.0
 10
72.5122747960632
 20
-188.7213855179703
 30
0.0
 10
72.5122747960632
 20
-189.486126263333
 30
0.0
 10
72.5122747960632
 20
-189.486126263333
 30
0.0
 10
72.5122747960632
 20
-190.4501753896003
 30
0.0
 10
72.5122747960632
 20
-190.4501753896003
 30
0.0
  0
HATCH
  5
96
330
83
100
AcDbEntity
  8
Layer 1
 62
   252
420
  8751758
440
 33554687
100
AcDbHatch
 10
0.0
 20
0.0
 30
0.0
210
0.0
220
0.0
230
1.0
  2
SOLID
 70
     1
 71
     1
 91
        3
 92
        1
 93
        1
 72
     4
 94
        3
 73
     0
 74
     0
 95
       23
 96
       19
 40
0.0
 40
0.0
 40
0.0
 40
0.0
 40
1.0
 40
1.0
 40
1.0
 40
2.0
 40
2.0
 40
2.0
 40
3.0
 40
3.0
 40
3.0
 40
4.0
 40
4.0
 40
4.0
 40
5.0
 40
5.0
 40
5.0
 40
6.0
 40
6.0
 40
6.0
 40
6.0
 10
69.33944211382623
 20
-195.3924139964384
 10
69.74618205992382
 20
-195.3924139964384
 10
69.94969709001473
 20
-195.1891890752975
 10
69.94969709001473
 20
-194.7824491189254
 10
69.94969709001473
 20
-194.7824491189254
 10
69.94969709001473
 20
-194.1112701680922
 10
69.94969709001473
 20
-194.1112701680922
 10
69.94969709001473
 20
-193.7045302117201
 10
69.74618205992382
 20
-193.5010151764888
 10
69.33944211382623
 20
-193.5010151764888
 10
69.33944211382623
 20
-193.5010151764888
 10
67.70421407803512
 20
-193.5010151764888
 10
67.70421407803512
 20
-193.5010151764888
 10
67.70421407803512
 20
-193.5010151764888
 10
67.70421407803512
 20
-195.3924139964384
 10
67.70421407803512
 20
-195.3924139964384
 10
67.70421407803512
 20
-195.3924139964384
 10
69.33944211382623
 20
-195.3924139964384
 10
69.33944211382623
 20
-195.3924139964384
 97
        0
 97
        1
330
93
 92
        1
 93
        1
 72
     4
 94
        3
 73
     0
 74
     0
 95
       23
 96
       19
 40
0.0
 40
0.0
 40
0.0
 40
0.0
 40
1.0
 40
1.0
 40
1.0
 40
2.0
 40
2.0
 40
2.0
 40
3.0
 40
3.0
 40
3.0
 40
4.0
 40
4.0
 40
4.0
 40
5.0
 40
5.0
 40
5.0
 40
6.0
 40
6.0
 40
6.0
 40
6.0
 10
67.70421407803512
 20
-191.2433473159362
 10
67.70421407803512
 20
-191.2433473159362
 10
69.21744914140525
 20
-191.2433473159362
 10
69.21744914140525
 20
-191.2433473159362
 10
69.62418908750284
 20
-191.2433473159362
 10
69.82755906055179
 20
-191.0402674518424
 10
69.82755906055179
 20
-190.6332373813779
 10
69.82755906055179
 20
-190.6332373813779
 10
69.82755906055179
 20
-190.035312238664
 10
69.82755906055179
 20
-190.035312238664
 10
69.82755906055179
 20
-189.6285722822912
 10
69.62418908750284
 20
-189.42505724706
 10
69.21744914140525
 20
-189.42505724706
 10
69.21744914140525
 20
-189.42505724706
 10
67.70421407803512
 20
-189.42505724706
 10
67.70421407803512
 20
-189.42505724706
 10
67.70421407803512
 20
-189.42505724706
 10
67.70421407803512
 20
-191.2433473159362
 10
67.70421407803512
 20
-191.2433473159362
 97
        0
 97
        1
330
94
 92
        1
 93
        1
 72
     4
 94
        3
 73
     0
 74
     0
 95
       56
 96
       52
 40
0.0
 40
0.0
 40
0.0
 40
0.0
 40
1.0
 40
1.0
 40
1.0
 40
2.0
 40
2.0
 40
2.0
 40
3.0
 40
3.0
 40
3.0
 40
4.0
 40
4.0
 40
4.0
 40
5.0
 40
5.0
 40
5.0
 40
6.0
 40
6.0
 40
6.0
 40
7.0
 40
7.0
 40
7.0
 40
8.0
 40
8.0
 40
8.0
 40
9.0
 40
9.0
 40
9.0
 40
10.0
 40
10.0
 40
10.0
 40
11.0
 40
11.0
 40
11.0
 40
12.0
 40
12.0
 40
12.0
 40
13.0
 40
13.0
 40
13.0
 40
14.0
 40
14.0
 40
14.0
 40
15.0
 40
15.0
 40
15.0
 40
16.0
 40
16.0
 40
16.0
 40
17.0
 40
17.0
 40
17.0
 40
17.0
 10
72.5122747960632
 20
-190.4501753896003
 10
72.5122747960632
 20
-190.9382923486584
 10
72.40638315531754
 20
-191.3453224191202
 10
72.19503504495239
 20
-191.6705403157638
 10
71.98339682050267
 20
-191.9960483264997
 10
71.67036372361322
 20
-192.2279945427068
 10
71.25537784268449
 20
-192.3660888502907
 10
71.7108569664402
 20
-192.5044732719637
 10
72.0546421649422
 20
-192.7383052297675
 10
72.28656603852853
 20
-193.067729780739
 10
72.51836719183231
 20
-193.3972993887525
 10
72.63426776848419
 20
-193.8062152008138
 10
72.63426776848419
 20
-194.2943321598699
 10
72.63426776848419
 20
-194.2943321598699
 10
72.63426776848419
 20
-195.3316350942558
 10
72.63426776848419
 20
-195.3316350942558
 10
72.63426776848419
 20
-196.096230782572
 10
72.4430825869731
 20
-196.6738479388775
 10
72.06071222395158
 20
-197.0644865631685
 10
71.67834186092941
 20
-197.4548350733672
 10
71.05590209320336
 20
-197.6500818569924
 10
70.1936830348567
 20
-197.6500818569924
 10
70.1936830348567
 20
-197.6500818569924
 10
66.33748662720368
 20
-197.6500818569924
 10
66.33748662720368
 20
-197.6500818569924
 10
66.15848623723078
 20
-197.6500818569924
 10
66.00806208455498
 20
-197.5848061863877
 10
65.88577899804945
 20
-197.4548350733672
 10
65.88577899804945
 20
-197.4548350733672
 10
65.20241527263404
 20
-196.7347718981054
 10
65.20241527263404
 20
-196.7347718981054
 10
65.08042230021306
 20
-196.6046557280385
 10
65.01937544451521
 20
-196.4542315715632
 10
65.01937544451521
 20
-196.2833543716317
 10
65.01937544451521
 20
-196.2833543716317
 10
65.01937544451521
 20
-188.8027625206549
 10
65.01937544451521
 20
-188.8027625206549
 10
65.01937544451521
 20
-188.8027625206549
 10
64.21399658764504
 20
-187.1673893865079
 10
64.21399658764504
 20
-187.1673893865079
 10
64.21399658764504
 20
-187.1673893865079
 10
70.07171234910217
 20
-187.1673893865079
 10
70.07171234910217
 20
-187.1673893865079
 10
70.93390912078238
 20
-187.1673893865079
 10
71.55620383146646
 20
-187.3626361701312
 10
71.9387192515306
 20
-187.7532747944221
 10
72.32108961455212
 20
-188.143768361666
 10
72.5122747960632
 20
-188.7213855179703
 10
72.5122747960632
 20
-189.486126263333
 10
72.5122747960632
 20
-189.486126263333
 10
72.5122747960632
 20
-190.4501753896003
 10
72.5122747960632
 20
-190.4501753896003
 97
        0
 97
        1
330
95
 75
     2
 76
     1
 98
        1
 10
0.0
 20
0.0
450
        0
451
        0
460
0.0
461
0.0
452
        0
462
0.0
453
        0
470

  0
SPLINE
  5
97
330
83
100
AcDbEntity
  8
Layer 1
100
AcDbSpline
210
0.0
220
0.0
230
1.0
 70
    11
 71
     3
 72
    41
 73
    37
 74
     0
 42
0.0000000001
 43
0.0000000001
 40
0.0
 40
0.0
 40
0.0
 40
0.0
 40
1.0
 40
1.0
 40
1.0
 40
2.0
 40
2.0
 40
2.0
 40
3.0
 40
3.0
 40
3.0
 40
4.0
 40
4.0
 40
4.0
 40
5.0
 40
5.0
 40
5.0
 40
6.0
 40
6.0
 40
6.0
 40
7.0
 40
7.0
 40
7.0
 40
8.0
 40
8.0
 40
8.0
 40
9.0
 40
9.0
 40
9.0
 40
10.0
 40
10.0
 40
10.0
 40
11.0
 40
11.0
 40
11.0
 40
12.0
 40
12.0
 40
12.0
 40
12.0
 10
77.22285718178865
 20
-189.8886595653772
 30
0.0
 10
77.22285718178865
 20
-189.8886595653772
 30
0.0
 10
76.44172500998573
 20
-193.3668374091393
 30
0.0
 10
76.44172500998573
 20
-193.3668374091393
 30
0.0
 10
76.44172500998573
 20
-193.3668374091393
 30
0.0
 10
77.58898115609293
 20
-193.3668374091393
 30
0.0
 10
77.58898115609293
 20
-193.3668374091393
 30
0.0
 10
77.58898115609293
 20
-193.3668374091393
 30
0.0
 10
78.3211065427238
 20
-195.6243602126448
 30
0.0
 10
78.3211065427238
 20
-195.6243602126448
 30
0.0
 10
78.3211065427238
 20
-195.6243602126448
 30
0.0
 10
75.92923848018411
 20
-195.6243602126448
 30
0.0
 10
75.92923848018411
 20
-195.6243602126448
 30
0.0
 10
75.92923848018411
 20
-195.6243602126448
 30
0.0
 10
75.47782096511444
 20
-197.6500818569924
 30
0.0
 10
75.47782096511444
 20
-197.6500818569924
 30
0.0
 10
75.47782096511444
 20
-197.6500818569924
 30
0.0
 10
72.75640579794714
 20
-197.6500818569924
 30
0.0
 10
72.75640579794714
 20
-197.6500818569924
 30
0.0
 10
72.75640579794714
 20
-197.6500818569924
 30
0.0
 10
75.18497321291694
 20
-188.74169350438
 30
0.0
 10
75.18497321291694
 20
-188.74169350438
 30
0.0
 10
75.18497321291694
 20
-188.74169350438
 30
0.0
 10
74.41600341681398
 20
-187.1673893865079
 30
0.0
 10
74.41600341681398
 20
-187.1673893865079
 30
0.0
 10
74.41600341681398
 20
-187.1673893865079
 30
0.0
 10
78.82138578592355
 20
-187.1673893865079
 30
0.0
 10
78.82138578592355
 20
-187.1673893865079
 30
0.0
 10
78.82138578592355
 20
-187.1673893865079
 30
0.0
 10
81.68933114578186
 20
-197.6500818569924
 30
0.0
 10
81.68933114578186
 20
-197.6500818569924
 30
0.0
 10
81.68933114578186
 20
-197.6500818569924
 30
0.0
 10
78.96789339846256
 20
-197.6500818569924
 30
0.0
 10
78.96789339846256
 20
-197.6500818569924
 30
0.0
 10
78.96789339846256
 20
-197.6500818569924
 30
0.0
 10
77.22285718178865
 20
-189.8886595653772
 30
0.0
 10
77.22285718178865
 20
-189.8886595653772
 30
0.0
  0
HATCH
  5
98
330
83
100
AcDbEntity
  8
Layer 1
 62
   252
420
  8751758
440
 33554687
100
AcDbHatch
 10
0.0
 20
0.0
 30
0.0
210
0.0
220
0.0
230
1.0
  2
SOLID
 70
     1
 71
     1
 91
        1
 92
        1
 93
        1
 72
     4
 94
        3
 73
     0
 74
     0
 95
       41
 96
       37
 40
0.0
 40
0.0
 40
0.0
 40
0.0
 40
1.0
 40
1.0
 40
1.0
 40
2.0
 40
2.0
 40
2.0
 40
3.0
 40
3.0
 40
3.0
 40
4.0
 40
4.0
 40
4.0
 40
5.0
 40
5.0
 40
5.0
 40
6.0
 40
6.0
 40
6.0
 40
7.0
 40
7.0
 40
7.0
 40
8.0
 40
8.0
 40
8.0
 40
9.0
 40
9.0
 40
9.0
 40
10.0
 40
10.0
 40
10.0
 40
11.0
 40
11.0
 40
11.0
 40
12.0
 40
12.0
 40
12.0
 40
12.0
 10
77.22285718178865
 20
-189.8886595653772
 10
77.22285718178865
 20
-189.8886595653772
 10
76.44172500998573
 20
-193.3668374091393
 10
76.44172500998573
 20
-193.3668374091393
 10
76.44172500998573
 20
-193.3668374091393
 10
77.58898115609293
 20
-193.3668374091393
 10
77.58898115609293
 20
-193.3668374091393
 10
77.58898115609293
 20
-193.3668374091393
 10
78.3211065427238
 20
-195.6243602126448
 10
78.3211065427238
 20
-195.6243602126448
 10
78.3211065427238
 20
-195.6243602126448
 10
75.92923848018411
 20
-195.6243602126448
 10
75.92923848018411
 20
-195.6243602126448
 10
75.92923848018411
 20
-195.6243602126448
 10
75.47782096511444
 20
-197.6500818569924
 10
75.47782096511444
 20
-197.6500818569924
 10
75.47782096511444
 20
-197.6500818569924
 10
72.75640579794714
 20
-197.6500818569924
 10
72.75640579794714
 20
-197.6500818569924
 10
72.75640579794714
 20
-197.6500818569924
 10
75.18497321291694
 20
-188.74169350438
 10
75.18497321291694
 20
-188.74169350438
 10
75.18497321291694
 20
-188.74169350438
 10
74.41600341681398
 20
-187.1673893865079
 10
74.41600341681398
 20
-187.1673893865079
 10
74.41600341681398
 20
-187.1673893865079
 10
78.82138578592355
 20
-187.1673893865079
 10
78.82138578592355
 20
-187.1673893865079
 10
78.82138578592355
 20
-187.1673893865079
 10
81.68933114578186
 20
-197.6500818569924
 10
81.68933114578186
 20
-197.6500818569924
 10
81.68933114578186
 20
-197.6500818569924
 10
78.96789339846256
 20
-197.6500818569924
 10
78.96789339846256
 20
-197.6500818569924
 10
78.96789339846256
 20
-197.6500818569924
 10
77.22285718178865
 20
-189.8886595653772
 10
77.22285718178865
 20
-189.8886595653772
 97
        0
 97
        1
330
97
 75
     2
 76
     1
 98
        1
 10
0.0
 20
0.0
450
        0
451
        0
460
0.0
461
0.0
452
        0
462
0.0
453
        0
470

  0
SPLINE
  5
99
330
83
100
AcDbEntity
  8
Layer 1
100
AcDbSpline
210
0.0
220
0.0
230
1.0
 70
    11
 71
     3
 72
    29
 73
    25
 74
     0
 42
0.0000000001
 43
0.0000000001
 40
0.0
 40
0.0
 40
0.0
 40
0.0
 40
1.0
 40
1.0
 40
1.0
 40
2.0
 40
2.0
 40
2.0
 40
3.0
 40
3.0
 40
3.0
 40
4.0
 40
4.0
 40
4.0
 40
5.0
 40
5.0
 40
5.0
 40
6.0
 40
6.0
 40
6.0
 40
7.0
 40
7.0
 40
7.0
 40
8.0
 40
8.0
 40
8.0
 40
8.0
 10
79.91975770883795
 20
-187.1673893865079
 30
0.0
 10
79.91975770883795
 20
-187.1673893865079
 30
0.0
 10
87.74195870502646
 20
-187.1673893865079
 30
0.0
 10
87.74195870502646
 20
-187.1673893865079
 30
0.0
 10
87.74195870502646
 20
-187.1673893865079
 30
0.0
 10
87.74195870502646
 20
-189.42505724706
 30
0.0
 10
87.74195870502646
 20
-189.42505724706
 30
0.0
 10
87.74195870502646
 20
-189.42505724706
 30
0.0
 10
85.38683524276661
 20
-189.42505724706
 30
0.0
 10
85.38683524276661
 20
-189.42505724706
 30
0.0
 10
85.38683524276661
 20
-189.42505724706
 30
0.0
 10
85.38683524276661
 20
-197.6500818569924
 30
0.0
 10
85.38683524276661
 20
-197.6500818569924
 30
0.0
 10
85.38683524276661
 20
-197.6500818569924
 30
0.0
 10
82.7020968336946
 20
-197.6500818569924
 30
0.0
 10
82.7020968336946
 20
-197.6500818569924
 30
0.0
 10
82.7020968336946
 20
-197.6500818569924
 30
0.0
 10
82.7020968336946
 20
-189.42505724706
 30
0.0
 10
82.7020968336946
 20
-189.42505724706
 30
0.0
 10
82.7020968336946
 20
-189.42505724706
 30
0.0
 10
80.59093664271612
 20
-189.42505724706
 30
0.0
 10
80.59093664271612
 20
-189.42505724706
 30
0.0
 10
80.59093664271612
 20
-189.42505724706
 30
0.0
 10
79.91975770883795
 20
-187.1673893865079
 30
0.0
 10
79.91975770883795
 20
-187.1673893865079
 30
0.0
  0
HATCH
  5
9A
330
83
100
AcDbEntity
  8
Layer 1
 62
   252
420
  8751758
440
 33554687
100
AcDbHatch
 10
0.0
 20
0.0
 30
0.0
210
0.0
220
0.0
230
1.0
  2
SOLID
 70
     1
 71
     1
 91
        1
 92
        1
 93
        1
 72
     4
 94
        3
 73
     0
 74
     0
 95
       29
 96
       25
 40
0.0
 40
0.0
 40
0.0
 40
0.0
 40
1.0
 40
1.0
 40
1.0
 40
2.0
 40
2.0
 40
2.0
 40
3.0
 40
3.0
 40
3.0
 40
4.0
 40
4.0
 40
4.0
 40
5.0
 40
5.0
 40
5.0
 40
6.0
 40
6.0
 40
6.0
 40
7.0
 40
7.0
 40
7.0
 40
8.0
 40
8.0
 40
8.0
 40
8.0
 10
79.91975770883795
 20
-187.1673893865079
 10
79.91975770883795
 20
-187.1673893865079
 10
87.74195870502646
 20
-187.1673893865079
 10
87.74195870502646
 20
-187.1673893865079
 10
87.74195870502646
 20
-187.1673893865079
 10
87.74195870502646
 20
-189.42505724706
 10
87.74195870502646
 20
-189.42505724706
 10
87.74195870502646
 20
-189.42505724706
 10
85.38683524276661
 20
-189.42505724706
 10
85.38683524276661
 20
-189.42505724706
 10
85.38683524276661
 20
-189.42505724706
 10
85.38683524276661
 20
-197.6500818569924
 10
85.38683524276661
 20
-197.6500818569924
 10
85.38683524276661
 20
-197.6500818569924
 10
82.7020968336946
 20
-197.6500818569924
 10
82.7020968336946
 20
-197.6500818569924
 10
82.7020968336946
 20
-197.6500818569924
 10
82.7020968336946
 20
-189.42505724706
 10
82.7020968336946
 20
-189.42505724706
 10
82.7020968336946
 20
-189.42505724706
 10
80.59093664271612
 20
-189.42505724706
 10
80.59093664271612
 20
-189.42505724706
 10
80.59093664271612
 20
-189.42505724706
 10
79.91975770883795
 20
-187.1673893865079
 10
79.91975770883795
 20
-187.1673893865079
 97
        0
 97
        1
330
99
 75
     2
 76
     1
 98
        1
 10
0.0
 20
0.0
450
        0
451
        0
460
0.0
461
0.0
452
        0
462
0.0
453
        0
470

  0
SPLINE
  5
9B
330
83
100
AcDbEntity
  8
Layer 1
100
AcDbSpline
210
0.0
220
0.0
230
1.0
 70
    11
 71
     3
 72
    29
 73
    25
 74
     0
 42
0.0000000001
 43
0.0000000001
 40
0.0
 40
0.0
 40
0.0
 40
0.0
 40
1.0
 40
1.0
 40
1.0
 40
2.0
 40
2.0
 40
2.0
 40
3.0
 40
3.0
 40
3.0
 40
4.0
 40
4.0
 40
4.0
 40
5.0
 40
5.0
 40
5.0
 40
6.0
 40
6.0
 40
6.0
 40
7.0
 40
7.0
 40
7.0
 40
8.0
 40
8.0
 40
8.0
 40
8.0
 10
88.04686860755777
 20
-187.1673893865079
 30
0.0
 10
88.04686860755777
 20
-187.1673893865079
 30
0.0
 10
95.86921466078825
 20
-187.1673893865079
 30
0.0
 10
95.86921466078825
 20
-187.1673893865079
 30
0.0
 10
95.86921466078825
 20
-187.1673893865079
 30
0.0
 10
95.86921466078825
 20
-189.42505724706
 30
0.0
 10
95.86921466078825
 20
-189.42505724706
 30
0.0
 10
95.86921466078825
 20
-189.42505724706
 30
0.0
 10
93.51377841088355
 20
-189.42505724706
 30
0.0
 10
93.51377841088355
 20
-189.42505724706
 30
0.0
 10
93.51377841088355
 20
-189.42505724706
 30
0.0
 10
93.51377841088355
 20
-197.6500818569924
 30
0.0
 10
93.51377841088355
 20
-197.6500818569924
 30
0.0
 10
93.51377841088355
 20
-197.6500818569924
 30
0.0
 10
90.8292077324141
 20
-197.6500818569924
 30
0.0
 10
90.8292077324141
 20
-197.6500818569924
 30
0.0
 10
90.8292077324141
 20
-197.6500818569924
 30
0.0
 10
90.8292077324141
 20
-189.42505724706
 30
0.0
 10
90.8292077324141
 20
-189.42505724706
 30
0.0
 10
90.8292077324141
 20
-189.42505724706
 30
0.0
 10
88.71790248439335
 20
-189.42505724706
 30
0.0
 10
88.71790248439335
 20
-189.42505724706
 30
0.0
 10
88.71790248439335
 20
-189.42505724706
 30
0.0
 10
88.04686860755777
 20
-187.1673893865079
 30
0.0
 10
88.04686860755777
 20
-187.1673893865079
 30
0.0
  0
HATCH
  5
9C
330
83
100
AcDbEntity
  8
Layer 1
 62
   252
420
  8751758
440
 33554687
100
AcDbHatch
 10
0.0
 20
0.0
 30
0.0
210
0.0
220
0.0
230
1.0
  2
SOLID
 70
     1
 71
     1
 91
        1
 92
        1
 93
        1
 72
     4
 94
        3
 73
     0
 74
     0
 95
       29
 96
       25
 40
0.0
 40
0.0
 40
0.0
 40
0.0
 40
1.0
 40
1.0
 40
1.0
 40
2.0
 40
2.0
 40
2.0
 40
3.0
 40
3.0
 40
3.0
 40
4.0
 40
4.0
 40
4.0
 40
5.0
 40
5.0
 40
5.0
 40
6.0
 40
6.0
 40
6.0
 40
7.0
 40
7.0
 40
7.0
 40
8.0
 40
8.0
 40
8.0
 40
8.0
 10
88.04686860755777
 20
-187.1673893865079
 10
88.04686860755777
 20
-187.1673893865079
 10
95.86921466078825
 20
-187.1673893865079
 10
95.86921466078825
 20
-187.1673893865079
 10
95.86921466078825
 20
-187.1673893865079
 10
95.86921466078825
 20
-189.42505724706
 10
95.86921466078825
 20
-189.42505724706
 10
95.86921466078825
 20
-189.42505724706
 10
93.51377841088355
 20
-189.42505724706
 10
93.51377841088355
 20
-189.42505724706
 10
93.51377841088355
 20
-189.42505724706
 10
93.51377841088355
 20
-197.6500818569924
 10
93.51377841088355
 20
-197.6500818569924
 10
93.51377841088355
 20
-197.6500818569924
 10
90.8292077324141
 20
-197.6500818569924
 10
90.8292077324141
 20
-197.6500818569924
 10
90.8292077324141
 20
-197.6500818569924
 10
90.8292077324141
 20
-189.42505724706
 10
90.8292077324141
 20
-189.42505724706
 10
90.8292077324141
 20
-189.42505724706
 10
88.71790248439335
 20
-189.42505724706
 10
88.71790248439335
 20
-189.42505724706
 10
88.71790248439335
 20
-189.42505724706
 10
88.04686860755777
 20
-187.1673893865079
 10
88.04686860755777
 20
-187.1673893865079
 97
        0
 97
        1
330
9B
 75
     2
 76
     1
 98
        1
 10
0.0
 20
0.0
450
        0
451
        0
460
0.0
461
0.0
452
        0
462
0.0
453
        0
470

  0
SPLINE
  5
9D
330
83
100
AcDbEntity
  8
Layer 1
100
AcDbSpline
210
0.0
220
0.0
230
1.0
 70
    11
 71
     3
 72
    35
 73
    31
 74
     0
 42
0.0000000001
 43
0.0000000001
 40
0.0
 40
0.0
 40
0.0
 40
0.0
 40
1.0
 40
1.0
 40
1.0
 40
2.0
 40
2.0
 40
2.0
 40
3.0
 40
3.0
 40
3.0
 40
4.0
 40
4.0
 40
4.0
 40
5.0
 40
5.0
 40
5.0
 40
6.0
 40
6.0
 40
6.0
 40
7.0
 40
7.0
 40
7.0
 40
8.0
 40
8.0
 40
8.0
 40
9.0
 40
9.0
 40
9.0
 40
10.0
 40
10.0
 40
10.0
 40
10.0
 10
103.2642226679399
 20
-197.6500818569924
 30
0.0
 10
103.2642226679399
 20
-197.6500818569924
 30
0.0
 10
98.16329178187737
 20
-197.6500818569924
 30
0.0
 10
98.16329178187737
 20
-197.6500818569924
 30
0.0
 10
97.98429139190385
 20
-197.6500818569924
 30
0.0
 10
97.83386723922806
 20
-197.5848061863877
 30
0.0
 10
97.71187426680739
 20
-197.4548350733672
 30
0.0
 10
97.71187426680739
 20
-197.4548350733672
 30
0.0
 10
97.02851054139166
 20
-196.7347718981054
 30
0.0
 10
97.02851054139166
 20
-196.7347718981054
 30
0.0
 10
96.90651756897102
 20
-196.6046557280385
 30
0.0
 10
96.84544855423936
 20
-196.4542315715632
 30
0.0
 10
96.84544855423936
 20
-196.2833543716317
 30
0.0
 10
96.84544855423936
 20
-196.2833543716317
 30
0.0
 10
96.84544855423936
 20
-188.8027625206549
 30
0.0
 10
96.84544855423936
 20
-188.8027625206549
 30
0.0
 10
96.84544855423936
 20
-188.8027625206549
 30
0.0
 10
96.04009185640236
 20
-187.1673893865079
 30
0.0
 10
96.04009185640236
 20
-187.1673893865079
 30
0.0
 10
96.04009185640236
 20
-187.1673893865079
 30
0.0
 10
99.53001923270818
 20
-187.1673893865079
 30
0.0
 10
99.53001923270818
 20
-187.1673893865079
 30
0.0
 10
99.53001923270818
 20
-187.1673893865079
 30
0.0
 10
99.53001923270818
 20
-195.3924139964384
 30
0.0
 10
99.53001923270818
 20
-195.3924139964384
 30
0.0
 10
99.53001923270818
 20
-195.3924139964384
 30
0.0
 10
103.2642226679399
 20
-195.3924139964384
 30
0.0
 10
103.2642226679399
 20
-195.3924139964384
 30
0.0
 10
103.2642226679399
 20
-195.3924139964384
 30
0.0
 10
103.2642226679399
 20
-197.6500818569924
 30
0.0
 10
103.2642226679399
 20
-197.6500818569924
 30
0.0
  0
HATCH
  5
9E
330
83
100
AcDbEntity
  8
Layer 1
 62
   252
420
  8751758
440
 33554687
100
AcDbHatch
 10
0.0
 20
0.0
 30
0.0
210
0.0
220
0.0
230
1.0
  2
SOLID
 70
     1
 71
     1
 91
        1
 92
        1
 93
        1
 72
     4
 94
        3
 73
     0
 74
     0
 95
       35
 96
       31
 40
0.0
 40
0.0
 40
0.0
 40
0.0
 40
1.0
 40
1.0
 40
1.0
 40
2.0
 40
2.0
 40
2.0
 40
3.0
 40
3.0
 40
3.0
 40
4.0
 40
4.0
 40
4.0
 40
5.0
 40
5.0
 40
5.0
 40
6.0
 40
6.0
 40
6.0
 40
7.0
 40
7.0
 40
7.0
 40
8.0
 40
8.0
 40
8.0
 40
9.0
 40
9.0
 40
9.0
 40
10.0
 40
10.0
 40
10.0
 40
10.0
 10
103.2642226679399
 20
-197.6500818569924
 10
103.2642226679399
 20
-197.6500818569924
 10
98.16329178187737
 20
-197.6500818569924
 10
98.16329178187737
 20
-197.6500818569924
 10
97.98429139190385
 20
-197.6500818569924
 10
97.83386723922806
 20
-197.5848061863877
 10
97.71187426680739
 20
-197.4548350733672
 10
97.71187426680739
 20
-197.4548350733672
 10
97.02851054139166
 20
-196.7347718981054
 10
97.02851054139166
 20
-196.7347718981054
 10
96.90651756897102
 20
-196.6046557280385
 10
96.84544855423936
 20
-196.4542315715632
 10
96.84544855423936
 20
-196.2833543716317
 10
96.84544855423936
 20
-196.2833543716317
 10
96.84544855423936
 20
-188.8027625206549
 10
96.84544855423936
 20
-188.8027625206549
 10
96.84544855423936
 20
-188.8027625206549
 10
96.04009185640236
 20
-187.1673893865079
 10
96.04009185640236
 20
-187.1673893865079
 10
96.04009185640236
 20
-187.1673893865079
 10
99.53001923270818
 20
-187.1673893865079
 10
99.53001923270818
 20
-187.1673893865079
 10
99.53001923270818
 20
-187.1673893865079
 10
99.53001923270818
 20
-195.3924139964384
 10
99.53001923270818
 20
-195.3924139964384
 10
99.53001923270818
 20
-195.3924139964384
 10
103.2642226679399
 20
-195.3924139964384
 10
103.2642226679399
 20
-195.3924139964384
 10
103.2642226679399
 20
-195.3924139964384
 10
103.2642226679399
 20
-197.6500818569924
 10
103.2642226679399
 20
-197.6500818569924
 97
        0
 97
        1
330
9D
 75
     2
 76
     1
 98
        1
 10
0.0
 20
0.0
450
        0
451
        0
460
0.0
461
0.0
452
        0
462
0.0
453
        0
470

  0
SPLINE
  5
9F
330
83
100
AcDbEntity
  8
Layer 1
100
AcDbSpline
210
0.0
220
0.0
230
1.0
 70
    11
 71
     3
 72
    56
 73
    52
 74
     0
 42
0.0000000001
 43
0.0000000001
 40
0.0
 40
0.0
 40
0.0
 40
0.0
 40
1.0
 40
1.0
 40
1.0
 40
2.0
 40
2.0
 40
2.0
 40
3.0
 40
3.0
 40
3.0
 40
4.0
 40
4.0
 40
4.0
 40
5.0
 40
5.0
 40
5.0
 40
6.0
 40
6.0
 40
6.0
 40
7.0
 40
7.0
 40
7.0
 40
8.0
 40
8.0
 40
8.0
 40
9.0
 40
9.0
 40
9.0
 40
10.0
 40
10.0
 40
10.0
 40
11.0
 40
11.0
 40
11.0
 40
12.0
 40
12.0
 40
12.0
 40
13.0
 40
13.0
 40
13.0
 40
14.0
 40
14.0
 40
14.0
 40
15.0
 40
15.0
 40
15.0
 40
16.0
 40
16.0
 40
16.0
 40
17.0
 40
17.0
 40
17.0
 40
17.0
 10
111.1962318450118
 20
-195.3924139964384
 30
0.0
 10
111.1962318450118
 20
-195.3924139964384
 30
0.0
 10
111.1962318450118
 20
-197.6500818569924
 30
0.0
 10
111.1962318450118
 20
-197.6500818569924
 30
0.0
 10
111.1962318450118
 20
-197.6500818569924
 30
0.0
 10
105.1921758147251
 20
-197.6500818569924
 30
0.0
 10
105.1921758147251
 20
-197.6500818569924
 30
0.0
 10
105.0131754247522
 20
-197.6500818569924
 30
0.0
 10
104.8627512720757
 20
-197.5848061863877
 30
0.0
 10
104.7407582996545
 20
-197.4548350733672
 30
0.0
 10
104.7407582996545
 20
-197.4548350733672
 30
0.0
 10
104.0573945742394
 20
-196.7347718981054
 30
0.0
 10
104.0573945742394
 20
-196.7347718981054
 30
0.0
 10
103.9354016018193
 20
-196.6046557280385
 30
0.0
 10
103.8743557276798
 20
-196.4542315715632
 30
0.0
 10
103.8743557276798
 20
-196.2833543716317
 30
0.0
 10
103.8743557276798
 20
-196.2833543716317
 30
0.0
 10
103.8743557276798
 20
-188.8027625206549
 30
0.0
 10
103.8743557276798
 20
-188.8027625206549
 30
0.0
 10
103.8743557276798
 20
-188.8027625206549
 30
0.0
 10
103.0689758892501
 20
-187.1673893865079
 30
0.0
 10
103.0689758892501
 20
-187.1673893865079
 30
0.0
 10
103.0689758892501
 20
-187.1673893865079
 30
0.0
 10
110.6347160349754
 20
-187.1673893865079
 30
0.0
 10
110.6347160349754
 20
-187.1673893865079
 30
0.0
 10
110.6347160349754
 20
-187.1673893865079
 30
0.0
 10
111.1231230957852
 20
-189.42505724706
 30
0.0
 10
111.1231230957852
 20
-189.42505724706
 30
0.0
 10
111.1231230957852
 20
-189.42505724706
 30
0.0
 10
106.5589032655575
 20
-189.42505724706
 30
0.0
 10
106.5589032655575
 20
-189.42505724706
 30
0.0
 10
106.5589032655575
 20
-189.42505724706
 30
0.0
 10
106.5589032655575
 20
-191.2677168996286
 30
0.0
 10
106.5589032655575
 20
-191.2677168996286
 30
0.0
 10
106.5589032655575
 20
-191.2677168996286
 30
0.0
 10
110.1711137283679
 20
-191.2677168996286
 30
0.0
 10
110.1711137283679
 20
-191.2677168996286
 30
0.0
 10
110.1711137283679
 20
-191.2677168996286
 30
0.0
 10
110.6592306750938
 20
-193.5253847601793
 30
0.0
 10
110.6592306750938
 20
-193.5253847601793
 30
0.0
 10
110.6592306750938
 20
-193.5253847601793
 30
0.0
 10
107.5352822160499
 20
-193.5253847601793
 30
0.0
 10
107.5352822160499
 20
-193.5253847601793
 30
0.0
 10
107.5352822160499
 20
-193.5253847601793
 30
0.0
 10
106.5589032655575
 20
-192.5004116746848
 30
0.0
 10
106.5589032655575
 20
-192.5004116746848
 30
0.0
 10
106.5589032655575
 20
-192.5004116746848
 30
0.0
 10
106.5589032655575
 20
-195.3924139964384
 30
0.0
 10
106.5589032655575
 20
-195.3924139964384
 30
0.0
 10
106.5589032655575
 20
-195.3924139964384
 30
0.0
 10
111.1962318450118
 20
-195.3924139964384
 30
0.0
 10
111.1962318450118
 20
-195.3924139964384
 30
0.0
  0
HATCH
  5
A0
330
83
100
AcDbEntity
  8
Layer 1
 62
   252
420
  8751758
440
 33554687
100
AcDbHatch
 10
0.0
 20
0.0
 30
0.0
210
0.0
220
0.0
230
1.0
  2
SOLID
 70
     1
 71
     1
 91
        1
 92
        1
 93
        1
 72
     4
 94
        3
 73
     0
 74
     0
 95
       56
 96
       52
 40
0.0
 40
0.0
 40
0.0
 40
0.0
 40
1.0
 40
1.0
 40
1.0
 40
2.0
 40
2.0
 40
2.0
 40
3.0
 40
3.0
 40
3.0
 40
4.0
 40
4.0
 40
4.0
 40
5.0
 40
5.0
 40
5.0
 40
6.0
 40
6.0
 40
6.0
 40
7.0
 40
7.0
 40
7.0
 40
8.0
 40
8.0
 40
8.0
 40
9.0
 40
9.0
 40
9.0
 40
10.0
 40
10.0
 40
10.0
 40
11.0
 40
11.0
 40
11.0
 40
12.0
 40
12.0
 40
12.0
 40
13.0
 40
13.0
 40
13.0
 40
14.0
 40
14.0
 40
14.0
 40
15.0
 40
15.0
 40
15.0
 40
16.0
 40
16.0
 40
16.0
 40
17.0
 40
17.0
 40
17.0
 40
17.0
 10
111.1962318450118
 20
-195.3924139964384
 10
111.1962318450118
 20
-195.3924139964384
 10
111.1962318450118
 20
-197.6500818569924
 10
111.1962318450118
 20
-197.6500818569924
 10
111.1962318450118
 20
-197.6500818569924
 10
105.1921758147251
 20
-197.6500818569924
 10
105.1921758147251
 20
-197.6500818569924
 10
105.0131754247522
 20
-197.6500818569924
 10
104.8627512720757
 20
-197.5848061863877
 10
104.7407582996545
 20
-197.4548350733672
 10
104.7407582996545
 20
-197.4548350733672
 10
104.0573945742394
 20
-196.7347718981054
 10
104.0573945742394
 20
-196.7347718981054
 10
103.9354016018193
 20
-196.6046557280385
 10
103.8743557276798
 20
-196.4542315715632
 10
103.8743557276798
 20
-196.2833543716317
 10
103.8743557276798
 20
-196.2833543716317
 10
103.8743557276798
 20
-188.8027625206549
 10
103.8743557276798
 20
-188.8027625206549
 10
103.8743557276798
 20
-188.8027625206549
 10
103.0689758892501
 20
-187.1673893865079
 10
103.0689758892501
 20
-187.1673893865079
 10
103.0689758892501
 20
-187.1673893865079
 10
110.6347160349754
 20
-187.1673893865079
 10
110.6347160349754
 20
-187.1673893865079
 10
110.6347160349754
 20
-187.1673893865079
 10
111.1231230957852
 20
-189.42505724706
 10
111.1231230957852
 20
-189.42505724706
 10
111.1231230957852
 20
-189.42505724706
 10
106.5589032655575
 20
-189.42505724706
 10
106.5589032655575
 20
-189.42505724706
 10
106.5589032655575
 20
-189.42505724706
 10
106.5589032655575
 20
-191.2677168996286
 10
106.5589032655575
 20
-191.2677168996286
 10
106.5589032655575
 20
-191.2677168996286
 10
110.1711137283679
 20
-191.2677168996286
 10
110.1711137283679
 20
-191.2677168996286
 10
110.1711137283679
 20
-191.2677168996286
 10
110.6592306750938
 20
-193.5253847601793
 10
110.6592306750938
 20
-193.5253847601793
 10
110.6592306750938
 20
-193.5253847601793
 10
107.5352822160499
 20
-193.5253847601793
 10
107.5352822160499
 20
-193.5253847601793
 10
107.5352822160499
 20
-193.5253847601793
 10
106.5589032655575
 20
-192.5004116746848
 10
106.5589032655575
 20
-192.5004116746848
 10
106.5589032655575
 20
-192.5004116746848
 10
106.5589032655575
 20
-195.3924139964384
 10
106.5589032655575
 20
-195.3924139964384
 10
106.5589032655575
 20
-195.3924139964384
 10
111.1962318450118
 20
-195.3924139964384
 10
111.1962318450118
 20
-195.3924139964384
 97
        0
 97
        1
330
9F
 75
     2
 76
     1
 98
        1
 10
0.0
 20
0.0
450
        0
451
        0
460
0.0
461
0.0
452
        0
462
0.0
453
        0
470

  0
SPLINE
  5
A1
330
83
100
AcDbEntity
  8
Layer 1
100
AcDbSpline
210
0.0
220
0.0
230
1.0
 70
    11
 71
     3
 72
   101
 73
    97
 74
     0
 42
0.0000000001
 43
0.0000000001
 40
0.0
 40
0.0
 40
0.0
 40
0.0
 40
1.0
 40
1.0
 40
1.0
 40
2.0
 40
2.0
 40
2.0
 40
3.0
 40
3.0
 40
3.0
 40
4.0
 40
4.0
 40
4.0
 40
5.0
 40
5.0
 40
5.0
 40
6.0
 40
6.0
 40
6.0
 40
7.0
 40
7.0
 40
7.0
 40
8.0
 40
8.0
 40
8.0
 40
9.0
 40
9.0
 40
9.0
 40
10.0
 40
10.0
 40
10.0
 40
11.0
 40
11.0
 40
11.0
 40
12.0
 40
12.0
 40
12.0
 40
13.0
 40
13.0
 40
13.0
 40
14.0
 40
14.0
 40
14.0
 40
15.0
 40
15.0
 40
15.0
 40
16.0
 40
16.0
 40
16.0
 40
17.0
 40
17.0
 40
17.0
 40
18.0
 40
18.0
 40
18.0
 40
19.0
 40
19.0
 40
19.0
 40
20.0
 40
20.0
 40
20.0
 40
21.0
 40
21.0
 40
21.0
 40
22.0
 40
22.0
 40
22.0
 40
23.0
 40
23.0
 40
23.0
 40
24.0
 40
24.0
 40
24.0
 40
25.0
 40
25.0
 40
25.0
 40
26.0
 40
26.0
 40
26.0
 40
27.0
 40
27.0
 40
27.0
 40
28.0
 40
28.0
 40
28.0
 40
29.0
 40
29.0
 40
29.0
 40
30.0
 40
30.0
 40
30.0
 40
31.0
 40
31.0
 40
31.0
 40
32.0
 40
32.0
 40
32.0
 40
32.0
 10
123.0455064444681
 20
-191.7803484994229
 30
0.0
 10
123.0455064444681
 20
-191.7803484994229
 30
0.0
 10
123.0455064444681
 20
-195.1729426861718
 30
0.0
 10
123.0455064444681
 20
-195.1729426861718
 30
0.0
 10
123.0455064444681
 20
-195.628566866972
 30
0.0
 10
122.9479066775561
 20
-196.0231220314973
 30
0.0
 10
122.7524912193901
 20
-196.3566081797529
 30
0.0
 10
122.5573894977422
 20
-196.6900943280045
 30
0.0
 10
122.2868581141938
 20
-196.9667181143117
 30
0.0
 10
121.9412107798274
 20
-197.1864795386712
 30
0.0
 10
121.5952261373761
 20
-197.4060959059863
 30
0.0
 10
121.1863103356481
 20
-197.5688499113529
 30
0.0
 10
120.7145848346818
 20
-197.6745964977268
 30
0.0
 10
120.2427142766722
 20
-197.7800529700109
 30
0.0
 10
119.7261896907362
 20
-197.8331438487675
 30
0.0
 10
119.1648189235614
 20
-197.8331438487675
 30
0.0
 10
118.6035697007443
 20
-197.8331438487675
 30
0.0
 10
118.0868765167226
 20
-197.7800529700109
 30
0.0
 10
117.6150059587143
 20
-197.6745964977268
 30
0.0
 10
117.1431354007047
 20
-197.5688499113529
 30
0.0
 10
116.7343646560174
 20
-197.4060959059863
 30
0.0
 10
116.3886937246511
 20
-197.1864795386712
 30
0.0
 10
116.0427326792009
 20
-196.9667181143117
 30
0.0
 10
115.7723463526945
 20
-196.6900943280045
 30
0.0
 10
115.5770995740034
 20
-196.3566081797529
 30
0.0
 10
115.3818527953136
 20
-196.0231220314973
 30
0.0
 10
115.2842294059686
 20
-195.628566866972
 30
0.0
 10
115.2842294059686
 20
-195.1729426861718
 30
0.0
 10
115.2842294059686
 20
-195.1729426861718
 30
0.0
 10
115.2842294059686
 20
-189.6448186714201
 30
0.0
 10
115.2842294059686
 20
-189.6448186714201
 30
0.0
 10
115.2842294059686
 20
-189.1893395476638
 30
0.0
 10
115.3818527953136
 20
-188.7947843831385
 30
0.0
 10
115.5770995740034
 20
-188.4610081207933
 30
0.0
 10
115.7723463526945
 20
-188.1275219725403
 30
0.0
 10
116.0427326792009
 20
-187.8507531291879
 30
0.0
 10
116.3886937246511
 20
-187.6312818189194
 30
0.0
 10
116.7343646560174
 20
-187.4115203945605
 30
0.0
 10
117.1431354007047
 20
-187.2489114462384
 30
0.0
 10
117.6150059587143
 20
-187.1430198028174
 30
0.0
 10
118.0868765167226
 20
-187.0374182734875
 30
0.0
 10
118.6035697007443
 20
-186.9843273947329
 30
0.0
 10
119.1648189235614
 20
-186.9843273947329
 30
0.0
 10
119.7830285102014
 20
-186.9843273947329
 30
0.0
 10
120.316113139984
 20
-187.0475722666949
 30
0.0
 10
120.7634690578752
 20
-187.1736268394765
 30
0.0
 10
121.2106799187232
 20
-187.2998264693065
 30
0.0
 10
121.5850721444285
 20
-187.4968139374782
 30
0.0
 10
121.886089102432
 20
-187.765459586267
 30
0.0
 10
122.1872039262589
 20
-188.0338151209656
 30
0.0
 10
122.4230666767414
 20
-188.3755695208272
 30
0.0
 10
122.5939674858477
 20
-188.7905777288093
 30
0.0
 10
122.7648210679709
 20
-189.2052958227011
 30
0.0
 10
122.8827524432122
 20
-189.6977644931277
 30
0.0
 10
122.9479066775561
 20
-190.2671133978252
 30
0.0
 10
122.9479066775561
 20
-190.2671133978252
 30
0.0
 10
120.3729755004942
 20
-190.6332373813779
 30
0.0
 10
120.3729755004942
 20
-190.6332373813779
 30
0.0
 10
120.2834753055081
 20
-190.1694900060123
 30
0.0
 10
120.153359138728
 20
-189.8216432102279
 30
0.0
 10
119.9826270001565
 20
-189.5898420510693
 30
0.0
 10
119.8117733477493
 20
-189.3578958348635
 30
0.0
 10
119.5388975083194
 20
-189.2419952552823
 30
0.0
 10
119.1648189235614
 20
-189.2419952552823
 30
0.0
 10
118.8392873941861
 20
-189.2419952552823
 30
0.0
 10
118.5587470747309
 20
-189.3235173150134
 30
0.0
 10
118.3227392672051
 20
-189.486126263333
 30
0.0
 10
118.0868765167226
 20
-189.6488802686996
 30
0.0
 10
117.96894514148
 20
-189.8928662197057
 30
0.0
 10
117.96894514148
 20
-190.2182291733971
 30
0.0
 10
117.96894514148
 20
-190.2182291733971
 30
0.0
 10
117.96894514148
 20
-194.5993871271503
 30
0.0
 10
117.96894514148
 20
-194.5993871271503
 30
0.0
 10
117.96894514148
 20
-194.9247500808391
 30
0.0
 10
118.0868765167226
 20
-195.1688810888891
 30
0.0
 10
118.3227392672051
 20
-195.3316350942558
 30
0.0
 10
118.5587470747309
 20
-195.4943890996225
 30
0.0
 10
118.8392873941861
 20
-195.5754759882167
 30
0.0
 10
119.1648189235614
 20
-195.5754759882167
 30
0.0
 10
119.4900132851247
 20
-195.5754759882167
 30
0.0
 10
119.7708437186639
 20
-195.4943890996225
 30
0.0
 10
120.0068515261897
 20
-195.3316350942558
 30
0.0
 10
120.2427142766722
 20
-195.1688810888891
 30
0.0
 10
120.3606456519147
 20
-194.9247500808391
 30
0.0
 10
120.3606456519147
 20
-194.5993871271503
 30
0.0
 10
120.3606456519147
 20
-194.5993871271503
 30
0.0
 10
120.3606456519147
 20
-194.038016359973
 30
0.0
 10
120.3606456519147
 20
-194.038016359973
 30
0.0
 10
120.3606456519147
 20
-194.038016359973
 30
0.0
 10
119.2747486346225
 20
-194.038016359973
 30
0.0
 10
119.2747486346225
 20
-194.038016359973
 30
0.0
 10
119.2747486346225
 20
-194.038016359973
 30
0.0
 10
118.7866316878966
 20
-191.7803484994229
 30
0.0
 10
118.7866316878966
 20
-191.7803484994229
 30
0.0
 10
118.7866316878966
 20
-191.7803484994229
 30
0.0
 10
123.0455064444681
 20
-191.7803484994229
 30
0.0
 10
123.0455064444681
 20
-191.7803484994229
 30
0.0
  0
HATCH
  5
A2
330
83
100
AcDbEntity
  8
Layer 1
 62
   252
420
  8751758
440
 33554687
100
AcDbHatch
 10
0.0
 20
0.0
 30
0.0
210
0.0
220
0.0
230
1.0
  2
SOLID
 70
     1
 71
     1
 91
        1
 92
        1
 93
        1
 72
     4
 94
        3
 73
     0
 74
     0
 95
      101
 96
       97
 40
0.0
 40
0.0
 40
0.0
 40
0.0
 40
1.0
 40
1.0
 40
1.0
 40
2.0
 40
2.0
 40
2.0
 40
3.0
 40
3.0
 40
3.0
 40
4.0
 40
4.0
 40
4.0
 40
5.0
 40
5.0
 40
5.0
 40
6.0
 40
6.0
 40
6.0
 40
7.0
 40
7.0
 40
7.0
 40
8.0
 40
8.0
 40
8.0
 40
9.0
 40
9.0
 40
9.0
 40
10.0
 40
10.0
 40
10.0
 40
11.0
 40
11.0
 40
11.0
 40
12.0
 40
12.0
 40
12.0
 40
13.0
 40
13.0
 40
13.0
 40
14.0
 40
14.0
 40
14.0
 40
15.0
 40
15.0
 40
15.0
 40
16.0
 40
16.0
 40
16.0
 40
17.0
 40
17.0
 40
17.0
 40
18.0
 40
18.0
 40
18.0
 40
19.0
 40
19.0
 40
19.0
 40
20.0
 40
20.0
 40
20.0
 40
21.0
 40
21.0
 40
21.0
 40
22.0
 40
22.0
 40
22.0
 40
23.0
 40
23.0
 40
23.0
 40
24.0
 40
24.0
 40
24.0
 40
25.0
 40
25.0
 40
25.0
 40
26.0
 40
26.0
 40
26.0
 40
27.0
 40
27.0
 40
27.0
 40
28.0
 40
28.0
 40
28.0
 40
29.0
 40
29.0
 40
29.0
 40
30.0
 40
30.0
 40
30.0
 40
31.0
 40
31.0
 40
31.0
 40
32.0
 40
32.0
 40
32.0
 40
32.0
 10
123.0455064444681
 20
-191.7803484994229
 10
123.0455064444681
 20
-191.7803484994229
 10
123.0455064444681
 20
-195.1729426861718
 10
123.0455064444681
 20
-195.1729426861718
 10
123.0455064444681
 20
-195.628566866972
 10
122.9479066775561
 20
-196.0231220314973
 10
122.7524912193901
 20
-196.3566081797529
 10
122.5573894977422
 20
-196.6900943280045
 10
122.2868581141938
 20
-196.9667181143117
 10
121.9412107798274
 20
-197.1864795386712
 10
121.5952261373761
 20
-197.4060959059863
 10
121.1863103356481
 20
-197.5688499113529
 10
120.7145848346818
 20
-197.6745964977268
 10
120.2427142766722
 20
-197.7800529700109
 10
119.7261896907362
 20
-197.8331438487675
 10
119.1648189235614
 20
-197.8331438487675
 10
118.6035697007443
 20
-197.8331438487675
 10
118.0868765167226
 20
-197.7800529700109
 10
117.6150059587143
 20
-197.6745964977268
 10
117.1431354007047
 20
-197.5688499113529
 10
116.7343646560174
 20
-197.4060959059863
 10
116.3886937246511
 20
-197.1864795386712
 10
116.0427326792009
 20
-196.9667181143117
 10
115.7723463526945
 20
-196.6900943280045
 10
115.5770995740034
 20
-196.3566081797529
 10
115.3818527953136
 20
-196.0231220314973
 10
115.2842294059686
 20
-195.628566866972
 10
115.2842294059686
 20
-195.1729426861718
 10
115.2842294059686
 20
-195.1729426861718
 10
115.2842294059686
 20
-189.6448186714201
 10
115.2842294059686
 20
-189.6448186714201
 10
115.2842294059686
 20
-189.1893395476638
 10
115.3818527953136
 20
-188.7947843831385
 10
115.5770995740034
 20
-188.4610081207933
 10
115.7723463526945
 20
-188.1275219725403
 10
116.0427326792009
 20
-187.8507531291879
 10
116.3886937246511
 20
-187.6312818189194
 10
116.7343646560174
 20
-187.4115203945605
 10
117.1431354007047
 20
-187.2489114462384
 10
117.6150059587143
 20
-187.1430198028174
 10
118.0868765167226
 20
-187.0374182734875
 10
118.6035697007443
 20
-186.9843273947329
 10
119.1648189235614
 20
-186.9843273947329
 10
119.7830285102014
 20
-186.9843273947329
 10
120.316113139984
 20
-187.0475722666949
 10
120.7634690578752
 20
-187.1736268394765
 10
121.2106799187232
 20
-187.2998264693065
 10
121.5850721444285
 20
-187.4968139374782
 10
121.886089102432
 20
-187.765459586267
 10
122.1872039262589
 20
-188.0338151209656
 10
122.4230666767414
 20
-188.3755695208272
 10
122.5939674858477
 20
-188.7905777288093
 10
122.7648210679709
 20
-189.2052958227011
 10
122.8827524432122
 20
-189.6977644931277
 10
122.9479066775561
 20
-190.2671133978252
 10
122.9479066775561
 20
-190.2671133978252
 10
120.3729755004942
 20
-190.6332373813779
 10
120.3729755004942
 20
-190.6332373813779
 10
120.2834753055081
 20
-190.1694900060123
 10
120.153359138728
 20
-189.8216432102279
 10
119.9826270001565
 20
-189.5898420510693
 10
119.8117733477493
 20
-189.3578958348635
 10
119.5388975083194
 20
-189.2419952552823
 10
119.1648189235614
 20
-189.2419952552823
 10
118.8392873941861
 20
-189.2419952552823
 10
118.5587470747309
 20
-189.3235173150134
 10
118.3227392672051
 20
-189.486126263333
 10
118.0868765167226
 20
-189.6488802686996
 10
117.96894514148
 20
-189.8928662197057
 10
117.96894514148
 20
-190.2182291733971
 10
117.96894514148
 20
-190.2182291733971
 10
117.96894514148
 20
-194.5993871271503
 10
117.96894514148
 20
-194.5993871271503
 10
117.96894514148
 20
-194.9247500808391
 10
118.0868765167226
 20
-195.1688810888891
 10
118.3227392672051
 20
-195.3316350942558
 10
118.5587470747309
 20
-195.4943890996225
 10
118.8392873941861
 20
-195.5754759882167
 10
119.1648189235614
 20
-195.5754759882167
 10
119.4900132851247
 20
-195.5754759882167
 10
119.7708437186639
 20
-195.4943890996225
 10
120.0068515261897
 20
-195.3316350942558
 10
120.2427142766722
 20
-195.1688810888891
 10
120.3606456519147
 20
-194.9247500808391
 10
120.3606456519147
 20
-194.5993871271503
 10
120.3606456519147
 20
-194.5993871271503
 10
120.3606456519147
 20
-194.038016359973
 10
120.3606456519147
 20
-194.038016359973
 10
120.3606456519147
 20
-194.038016359973
 10
119.2747486346225
 20
-194.038016359973
 10
119.2747486346225
 20
-194.038016359973
 10
119.2747486346225
 20
-194.038016359973
 10
118.7866316878966
 20
-191.7803484994229
 10
118.7866316878966
 20
-191.7803484994229
 10
118.7866316878966
 20
-191.7803484994229
 10
123.0455064444681
 20
-191.7803484994229
 10
123.0455064444681
 20
-191.7803484994229
 97
        0
 97
        1
330
A1
 75
     2
 76
     1
 98
        1
 10
0.0
 20
0.0
450
        0
451
        0
460
0.0
461
0.0
452
        0
462
0.0
453
        0
470

  0
SPLINE
  5
A3
330
83
100
AcDbEntity
  8
Layer 1
100
AcDbSpline
210
0.0
220
0.0
230
1.0
 70
    11
 71
     3
 72
    41
 73
    37
 74
     0
 42
0.0000000001
 43
0.0000000001
 40
0.0
 40
0.0
 40
0.0
 40
0.0
 40
1.0
 40
1.0
 40
1.0
 40
2.0
 40
2.0
 40
2.0
 40
3.0
 40
3.0
 40
3.0
 40
4.0
 40
4.0
 40
4.0
 40
5.0
 40
5.0
 40
5.0
 40
6.0
 40
6.0
 40
6.0
 40
7.0
 40
7.0
 40
7.0
 40
8.0
 40
8.0
 40
8.0
 40
9.0
 40
9.0
 40
9.0
 40
10.0
 40
10.0
 40
10.0
 40
11.0
 40
11.0
 40
11.0
 40
12.0
 40
12.0
 40
12.0
 40
12.0
 10
127.6338057436883
 20
-189.8886595653772
 30
0.0
 10
127.6338057436883
 20
-189.8886595653772
 30
0.0
 10
126.8528423500052
 20
-193.3668374091393
 30
0.0
 10
126.8528423500052
 20
-193.3668374091393
 30
0.0
 10
126.8528423500052
 20
-193.3668374091393
 30
0.0
 10
127.9999297179929
 20
-193.3668374091393
 30
0.0
 10
127.9999297179929
 20
-193.3668374091393
 30
0.0
 10
127.9999297179929
 20
-193.3668374091393
 30
0.0
 10
128.7321776666021
 20
-195.6243602126448
 30
0.0
 10
128.7321776666021
 20
-195.6243602126448
 30
0.0
 10
128.7321776666021
 20
-195.6243602126448
 30
0.0
 10
126.3403320991254
 20
-195.6243602126448
 30
0.0
 10
126.3403320991254
 20
-195.6243602126448
 30
0.0
 10
126.3403320991254
 20
-195.6243602126448
 30
0.0
 10
125.8886244699715
 20
-197.6500818569924
 30
0.0
 10
125.8886244699715
 20
-197.6500818569924
 30
0.0
 10
125.8886244699715
 20
-197.6500818569924
 30
0.0
 10
123.1673543598462
 20
-197.6500818569924
 30
0.0
 10
123.1673543598462
 20
-197.6500818569924
 30
0.0
 10
123.1673543598462
 20
-197.6500818569924
 30
0.0
 10
125.5957543019368
 20
-188.74169350438
 30
0.0
 10
125.5957543019368
 20
-188.74169350438
 30
0.0
 10
125.5957543019368
 20
-188.74169350438
 30
0.0
 10
124.8270970357556
 20
-187.1673893865079
 30
0.0
 10
124.8270970357556
 20
-187.1673893865079
 30
0.0
 10
124.8270970357556
 20
-187.1673893865079
 30
0.0
 10
129.2324794048655
 20
-187.1673893865079
 30
0.0
 10
129.2324794048655
 20
-187.1673893865079
 30
0.0
 10
129.2324794048655
 20
-187.1673893865079
 30
0.0
 10
132.1001120704873
 20
-197.6500818569924
 30
0.0
 10
132.1001120704873
 20
-197.6500818569924
 30
0.0
 10
132.1001120704873
 20
-197.6500818569924
 30
0.0
 10
129.3788419603619
 20
-197.6500818569924
 30
0.0
 10
129.3788419603619
 20
-197.6500818569924
 30
0.0
 10
129.3788419603619
 20
-197.6500818569924
 30
0.0
 10
127.6338057436883
 20
-189.8886595653772
 30
0.0
 10
127.6338057436883
 20
-189.8886595653772
 30
0.0
  0
HATCH
  5
A4
330
83
100
AcDbEntity
  8
Layer 1
 62
   252
420
  8751758
440
 33554687
100
AcDbHatch
 10
0.0
 20
0.0
 30
0.0
210
0.0
220
0.0
230
1.0
  2
SOLID
 70
     1
 71
     1
 91
        1
 92
        1
 93
        1
 72
     4
 94
        3
 73
     0
 74
     0
 95
       41
 96
       37
 40
0.0
 40
0.0
 40
0.0
 40
0.0
 40
1.0
 40
1.0
 40
1.0
 40
2.0
 40
2.0
 40
2.0
 40
3.0
 40
3.0
 40
3.0
 40
4.0
 40
4.0
 40
4.0
 40
5.0
 40
5.0
 40
5.0
 40
6.0
 40
6.0
 40
6.0
 40
7.0
 40
7.0
 40
7.0
 40
8.0
 40
8.0
 40
8.0
 40
9.0
 40
9.0
 40
9.0
 40
10.0
 40
10.0
 40
10.0
 40
11.0
 40
11.0
 40
11.0
 40
12.0
 40
12.0
 40
12.0
 40
12.0
 10
127.6338057436883
 20
-189.8886595653772
 10
127.6338057436883
 20
-189.8886595653772
 10
126.8528423500052
 20
-193.3668374091393
 10
126.8528423500052
 20
-193.3668374091393
 10
126.8528423500052
 20
-193.3668374091393
 10
127.9999297179929
 20
-193.3668374091393
 10
127.9999297179929
 20
-193.3668374091393
 10
127.9999297179929
 20
-193.3668374091393
 10
128.7321776666021
 20
-195.6243602126448
 10
128.7321776666021
 20
-195.6243602126448
 10
128.7321776666021
 20
-195.6243602126448
 10
126.3403320991254
 20
-195.6243602126448
 10
126.3403320991254
 20
-195.6243602126448
 10
126.3403320991254
 20
-195.6243602126448
 10
125.8886244699715
 20
-197.6500818569924
 10
125.8886244699715
 20
-197.6500818569924
 10
125.8886244699715
 20
-197.6500818569924
 10
123.1673543598462
 20
-197.6500818569924
 10
123.1673543598462
 20
-197.6500818569924
 10
123.1673543598462
 20
-197.6500818569924
 10
125.5957543019368
 20
-188.74169350438
 10
125.5957543019368
 20
-188.74169350438
 10
125.5957543019368
 20
-188.74169350438
 10
124.8270970357556
 20
-187.1673893865079
 10
124.8270970357556
 20
-187.1673893865079
 10
124.8270970357556
 20
-187.1673893865079
 10
129.2324794048655
 20
-187.1673893865079
 10
129.2324794048655
 20
-187.1673893865079
 10
129.2324794048655
 20
-187.1673893865079
 10
132.1001120704873
 20
-197.6500818569924
 10
132.1001120704873
 20
-197.6500818569924
 10
132.1001120704873
 20
-197.6500818569924
 10
129.3788419603619
 20
-197.6500818569924
 10
129.3788419603619
 20
-197.6500818569924
 10
129.3788419603619
 20
-197.6500818569924
 10
127.6338057436883
 20
-189.8886595653772
 10
127.6338057436883
 20
-189.8886595653772
 97
        0
 97
        1
330
A3
 75
     2
 76
     1
 98
        1
 10
0.0
 20
0.0
450
        0
451
        0
460
0.0
461
0.0
452
        0
462
0.0
453
        0
470

  0
SPLINE
  5
A5
330
83
100
AcDbEntity
  8
Layer 1
100
AcDbSpline
210
0.0
220
0.0
230
1.0
 70
    11
 71
     3
 72
    29
 73
    25
 74
     0
 42
0.0000000001
 43
0.0000000001
 40
0.0
 40
0.0
 40
0.0
 40
0.0
 40
1.0
 40
1.0
 40
1.0
 40
2.0
 40
2.0
 40
2.0
 40
3.0
 40
3.0
 40
3.0
 40
4.0
 40
4.0
 40
4.0
 40
5.0
 40
5.0
 40
5.0
 40
6.0
 40
6.0
 40
6.0
 40
7.0
 40
7.0
 40
7.0
 40
8.0
 40
8.0
 40
8.0
 40
8.0
 10
130.3305612136953
 20
-187.1673893865079
 30
0.0
 10
130.3305612136953
 20
-187.1673893865079
 30
0.0
 10
138.152786216425
 20
-187.1673893865079
 30
0.0
 10
138.152786216425
 20
-187.1673893865079
 30
0.0
 10
138.152786216425
 20
-187.1673893865079
 30
0.0
 10
138.152786216425
 20
-189.42505724706
 30
0.0
 10
138.152786216425
 20
-189.42505724706
 30
0.0
 10
138.152786216425
 20
-189.42505724706
 30
0.0
 10
135.7976160740631
 20
-189.42505724706
 30
0.0
 10
135.7976160740631
 20
-189.42505724706
 30
0.0
 10
135.7976160740631
 20
-189.42505724706
 30
0.0
 10
135.7976160740631
 20
-197.6500818569924
 30
0.0
 10
135.7976160740631
 20
-197.6500818569924
 30
0.0
 10
135.7976160740631
 20
-197.6500818569924
 30
0.0
 10
133.1130453955936
 20
-197.6500818569924
 30
0.0
 10
133.1130453955936
 20
-197.6500818569924
 30
0.0
 10
133.1130453955936
 20
-197.6500818569924
 30
0.0
 10
133.1130453955936
 20
-189.42505724706
 30
0.0
 10
133.1130453955936
 20
-189.42505724706
 30
0.0
 10
133.1130453955936
 20
-189.42505724706
 30
0.0
 10
131.0017401475735
 20
-189.42505724706
 30
0.0
 10
131.0017401475735
 20
-189.42505724706
 30
0.0
 10
131.0017401475735
 20
-189.42505724706
 30
0.0
 10
130.3305612136953
 20
-187.1673893865079
 30
0.0
 10
130.3305612136953
 20
-187.1673893865079
 30
0.0
  0
HATCH
  5
A6
330
83
100
AcDbEntity
  8
Layer 1
 62
   252
420
  8751758
440
 33554687
100
AcDbHatch
 10
0.0
 20
0.0
 30
0.0
210
0.0
220
0.0
230
1.0
  2
SOLID
 70
     1
 71
     1
 91
        1
 92
        1
 93
        1
 72
     4
 94
        3
 73
     0
 74
     0
 95
       29
 96
       25
 40
0.0
 40
0.0
 40
0.0
 40
0.0
 40
1.0
 40
1.0
 40
1.0
 40
2.0
 40
2.0
 40
2.0
 40
3.0
 40
3.0
 40
3.0
 40
4.0
 40
4.0
 40
4.0
 40
5.0
 40
5.0
 40
5.0
 40
6.0
 40
6.0
 40
6.0
 40
7.0
 40
7.0
 40
7.0
 40
8.0
 40
8.0
 40
8.0
 40
8.0
 10
130.3305612136953
 20
-187.1673893865079
 10
130.3305612136953
 20
-187.1673893865079
 10
138.152786216425
 20
-187.1673893865079
 10
138.152786216425
 20
-187.1673893865079
 10
138.152786216425
 20
-187.1673893865079
 10
138.152786216425
 20
-189.42505724706
 10
138.152786216425
 20
-189.42505724706
 10
138.152786216425
 20
-189.42505724706
 10
135.7976160740631
 20
-189.42505724706
 10
135.7976160740631
 20
-189.42505724706
 10
135.7976160740631
 20
-189.42505724706
 10
135.7976160740631
 20
-197.6500818569924
 10
135.7976160740631
 20
-197.6500818569924
 10
135.7976160740631
 20
-197.6500818569924
 10
133.1130453955936
 20
-197.6500818569924
 10
133.1130453955936
 20
-197.6500818569924
 10
133.1130453955936
 20
-197.6500818569924
 10
133.1130453955936
 20
-189.42505724706
 10
133.1130453955936
 20
-189.42505724706
 10
133.1130453955936
 20
-189.42505724706
 10
131.0017401475735
 20
-189.42505724706
 10
131.0017401475735
 20
-189.42505724706
 10
131.0017401475735
 20
-189.42505724706
 10
130.3305612136953
 20
-187.1673893865079
 10
130.3305612136953
 20
-187.1673893865079
 97
        0
 97
        1
330
A5
 75
     2
 76
     1
 98
        1
 10
0.0
 20
0.0
450
        0
451
        0
460
0.0
461
0.0
452
        0
462
0.0
453
        0
470

  0
SPLINE
  5
A7
330
83
100
AcDbEntity
  8
Layer 1
100
AcDbSpline
210
0.0
220
0.0
230
1.0
 70
    11
 71
     3
 72
    56
 73
    52
 74
     0
 42
0.0000000001
 43
0.0000000001
 40
0.0
 40
0.0
 40
0.0
 40
0.0
 40
1.0
 40
1.0
 40
1.0
 40
2.0
 40
2.0
 40
2.0
 40
3.0
 40
3.0
 40
3.0
 40
4.0
 40
4.0
 40
4.0
 40
5.0
 40
5.0
 40
5.0
 40
6.0
 40
6.0
 40
6.0
 40
7.0
 40
7.0
 40
7.0
 40
8.0
 40
8.0
 40
8.0
 40
9.0
 40
9.0
 40
9.0
 40
10.0
 40
10.0
 40
10.0
 40
11.0
 40
11.0
 40
11.0
 40
12.0
 40
12.0
 40
12.0
 40
13.0
 40
13.0
 40
13.0
 40
14.0
 40
14.0
 40
14.0
 40
15.0
 40
15.0
 40
15.0
 40
16.0
 40
16.0
 40
16.0
 40
17.0
 40
17.0
 40
17.0
 40
17.0
 10
146.4510404183027
 20
-195.3924139964384
 30
0.0
 10
146.4510404183027
 20
-195.3924139964384
 30
0.0
 10
146.4510404183027
 20
-197.6500818569924
 30
0.0
 10
146.4510404183027
 20
-197.6500818569924
 30
0.0
 10
146.4510404183027
 20
-197.6500818569924
 30
0.0
 10
140.4471294450563
 20
-197.6500818569924
 30
0.0
 10
140.4471294450563
 20
-197.6500818569924
 30
0.0
 10
140.268129055084
 20
-197.6500818569924
 30
0.0
 10
140.1177049024089
 20
-197.5848061863877
 30
0.0
 10
139.9957119299876
 20
-197.4548350733672
 30
0.0
 10
139.9957119299876
 20
-197.4548350733672
 30
0.0
 10
139.3122031475299
 20
-196.7347718981054
 30
0.0
 10
139.3122031475299
 20
-196.7347718981054
 30
0.0
 10
139.1900651180666
 20
-196.6046557280385
 30
0.0
 10
139.1291411603763
 20
-196.4542315715632
 30
0.0
 10
139.1291411603763
 20
-196.2833543716317
 30
0.0
 10
139.1291411603763
 20
-196.2833543716317
 30
0.0
 10
139.1291411603763
 20
-188.8027625206549
 30
0.0
 10
139.1291411603763
 20
-188.8027625206549
 30
0.0
 10
139.1291411603763
 20
-188.8027625206549
 30
0.0
 10
138.3236394054986
 20
-187.1673893865079
 30
0.0
 10
138.3236394054986
 20
-187.1673893865079
 30
0.0
 10
138.3236394054986
 20
-187.1673893865079
 30
0.0
 10
145.889669665307
 20
-187.1673893865079
 30
0.0
 10
145.889669665307
 20
-187.1673893865079
 30
0.0
 10
145.889669665307
 20
-187.1673893865079
 30
0.0
 10
146.3777866120329
 20
-189.42505724706
 30
0.0
 10
146.3777866120329
 20
-189.42505724706
 30
0.0
 10
146.3777866120329
 20
-189.42505724706
 30
0.0
 10
141.8138568958877
 20
-189.42505724706
 30
0.0
 10
141.8138568958877
 20
-189.42505724706
 30
0.0
 10
141.8138568958877
 20
-189.42505724706
 30
0.0
 10
141.8138568958877
 20
-191.2677168996286
 30
0.0
 10
141.8138568958877
 20
-191.2677168996286
 30
0.0
 10
141.8138568958877
 20
-191.2677168996286
 30
0.0
 10
145.4260673586994
 20
-191.2677168996286
 30
0.0
 10
145.4260673586994
 20
-191.2677168996286
 30
0.0
 10
145.4260673586994
 20
-191.2677168996286
 30
0.0
 10
145.9141843054253
 20
-193.5253847601793
 30
0.0
 10
145.9141843054253
 20
-193.5253847601793
 30
0.0
 10
145.9141843054253
 20
-193.5253847601793
 30
0.0
 10
142.7900907893395
 20
-193.5253847601793
 30
0.0
 10
142.7900907893395
 20
-193.5253847601793
 30
0.0
 10
142.7900907893395
 20
-193.5253847601793
 30
0.0
 10
141.8138568958877
 20
-192.5004116746848
 30
0.0
 10
141.8138568958877
 20
-192.5004116746848
 30
0.0
 10
141.8138568958877
 20
-192.5004116746848
 30
0.0
 10
141.8138568958877
 20
-195.3924139964384
 30
0.0
 10
141.8138568958877
 20
-195.3924139964384
 30
0.0
 10
141.8138568958877
 20
-195.3924139964384
 30
0.0
 10
146.4510404183027
 20
-195.3924139964384
 30
0.0
 10
146.4510404183027
 20
-195.3924139964384
 30
0.0
  0
HATCH
  5
A8
330
83
100
AcDbEntity
  8
Layer 1
 62
   252
420
  8751758
440
 33554687
100
AcDbHatch
 10
0.0
 20
0.0
 30
0.0
210
0.0
220
0.0
230
1.0
  2
SOLID
 70
     1
 71
     1
 91
        1
 92
        1
 93
        1
 72
     4
 94
        3
 73
     0
 74
     0
 95
       56
 96
       52
 40
0.0
 40
0.0
 40
0.0
 40
0.0
 40
1.0
 40
1.0
 40
1.0
 40
2.0
 40
2.0
 40
2.0
 40
3.0
 40
3.0
 40
3.0
 40
4.0
 40
4.0
 40
4.0
 40
5.0
 40
5.0
 40
5.0
 40
6.0
 40
6.0
 40
6.0
 40
7.0
 40
7.0
 40
7.0
 40
8.0
 40
8.0
 40
8.0
 40
9.0
 40
9.0
 40
9.0
 40
10.0
 40
10.0
 40
10.0
 40
11.0
 40
11.0
 40
11.0
 40
12.0
 40
12.0
 40
12.0
 40
13.0
 40
13.0
 40
13.0
 40
14.0
 40
14.0
 40
14.0
 40
15.0
 40
15.0
 40
15.0
 40
16.0
 40
16.0
 40
16.0
 40
17.0
 40
17.0
 40
17.0
 40
17.0
 10
146.4510404183027
 20
-195.3924139964384
 10
146.4510404183027
 20
-195.3924139964384
 10
146.4510404183027
 20
-197.6500818569924
 10
146.4510404183027
 20
-197.6500818569924
 10
146.4510404183027
 20
-197.6500818569924
 10
140.4471294450563
 20
-197.6500818569924
 10
140.4471294450563
 20
-197.6500818569924
 10
140.268129055084
 20
-197.6500818569924
 10
140.1177049024089
 20
-197.5848061863877
 10
139.9957119299876
 20
-197.4548350733672
 10
139.9957119299876
 20
-197.4548350733672
 10
139.3122031475299
 20
-196.7347718981054
 10
139.3122031475299
 20
-196.7347718981054
 10
139.1900651180666
 20
-196.6046557280385
 10
139.1291411603763
 20
-196.4542315715632
 10
139.1291411603763
 20
-196.2833543716317
 10
139.1291411603763
 20
-196.2833543716317
 10
139.1291411603763
 20
-188.8027625206549
 10
139.1291411603763
 20
-188.8027625206549
 10
139.1291411603763
 20
-188.8027625206549
 10
138.3236394054986
 20
-187.1673893865079
 10
138.3236394054986
 20
-187.1673893865079
 10
138.3236394054986
 20
-187.1673893865079
 10
145.889669665307
 20
-187.1673893865079
 10
145.889669665307
 20
-187.1673893865079
 10
145.889669665307
 20
-187.1673893865079
 10
146.3777866120329
 20
-189.42505724706
 10
146.3777866120329
 20
-189.42505724706
 10
146.3777866120329
 20
-189.42505724706
 10
141.8138568958877
 20
-189.42505724706
 10
141.8138568958877
 20
-189.42505724706
 10
141.8138568958877
 20
-189.42505724706
 10
141.8138568958877
 20
-191.2677168996286
 10
141.8138568958877
 20
-191.2677168996286
 10
141.8138568958877
 20
-191.2677168996286
 10
145.4260673586994
 20
-191.2677168996286
 10
145.4260673586994
 20
-191.2677168996286
 10
145.4260673586994
 20
-191.2677168996286
 10
145.9141843054253
 20
-193.5253847601793
 10
145.9141843054253
 20
-193.5253847601793
 10
145.9141843054253
 20
-193.5253847601793
 10
142.7900907893395
 20
-193.5253847601793
 10
142.7900907893395
 20
-193.5253847601793
 10
142.7900907893395
 20
-193.5253847601793
 10
141.8138568958877
 20
-192.5004116746848
 10
141.8138568958877
 20
-192.5004116746848
 10
141.8138568958877
 20
-192.5004116746848
 10
141.8138568958877
 20
-195.3924139964384
 10
141.8138568958877
 20
-195.3924139964384
 10
141.8138568958877
 20
-195.3924139964384
 10
146.4510404183027
 20
-195.3924139964384
 10
146.4510404183027
 20
-195.3924139964384
 97
        0
 97
        1
330
A7
 75
     2
 76
     1
 98
        1
 10
0.0
 20
0.0
450
        0
451
        0
460
0.0
461
0.0
452
        0
462
0.0
453
        0
470

  0
ENDBLK
  5
86
330
83
100
AcDbEntity
  8
0
100
AcDbBlockEnd
  0
ENDSEC
  0
SECTION
  2
ENTITIES
  0
INSERT
  5
7A
330
70
100
AcDbEntity
  8
Layer 1
100
AcDbBlockReference
  2
Block_0
 10
0.0
 20
0.0
 30
0.0
  0
ENDSEC
  0
SECTION
  2
OBJECTS
  0
DICTIONARY
  5
C
330
0
100
AcDbDictionary
281
     1
  3
ACAD_COLOR
350
63
  3
ACAD_DETAILVIEWSTYLE
350
6A
  3
ACAD_GROUP
350
D
  3
ACAD_LAYOUT
350
62
  3
ACAD_MATERIAL
350
10
  3
ACAD_MLEADERSTYLE
350
66
  3
ACAD_MLINESTYLE
350
5F
  3
ACAD_PLOTSETTINGS
350
61
  3
ACAD_PLOTSTYLENAME
350
E
  3
ACAD_SCALELIST
350
42
  3
ACAD_SECTIONVIEWSTYLE
350
68
  3
ACAD_TABLESTYLE
350
64
  3
ACAD_VISUALSTYLE
350
29
  3
ACDB_RECOMPOSE_DATA
350
B1
  3
AcDbVariableDictionary
350
A9
  0
DICTIONARY
  5
63
102
{ACAD_REACTORS
330
C
102
}
330
C
100
AcDbDictionary
281
     1
  0
DICTIONARY
  5
6A
102
{ACAD_REACTORS
330
C
102
}
330
C
100
AcDbDictionary
281
     1
  3
Imperial24
350
6B
  0
DICTIONARY
  5
D
102
{ACAD_REACTORS
330
C
102
}
330
C
100
AcDbDictionary
281
     1
  0
DICTIONARY
  5
62
102
{ACAD_REACTORS
330
C
102
}
330
C
100
AcDbDictionary
281
     1
  3
Layout1
350
6F
  3
Layout2
350
77
  3
Model
350
73
  0
DICTIONARY
  5
10
102
{ACAD_REACTORS
330
C
102
}
330
C
100
AcDbDictionary
281
     1
  3
ByBlock
350
19
  3
ByLayer
350
11
  3
Global
350
21
  0
DICTIONARY
  5
66
102
{ACAD_REACTORS
330
C
102
}
330
C
100
AcDbDictionary
281
     1
  3
Standard
350
67
  0
DICTIONARY
  5
5F
102
{ACAD_REACTORS
330
C
102
}
330
C
100
AcDbDictionary
281
     1
  3
Standard
350
60
  0
DICTIONARY
  5
61
102
{ACAD_REACTORS
330
C
102
}
330
C
100
AcDbDictionary
281
     1
  0
ACDBDICTIONARYWDFLT
  5
E
102
{ACAD_REACTORS
330
C
102
}
330
C
100
AcDbDictionary
281
     1
  3
Normal
350
F
100
AcDbDictionaryWithDefault
340
F
  0
DICTIONARY
  5
42
102
{ACAD_REACTORS
330
C
102
}
330
C
100
AcDbDictionary
281
     1
  3
A0
350
43
  3
A1
350
44
  3
A2
350
45
  3
A3
350
46
  3
A4
350
47
  3
A5
350
48
  3
A6
350
49
  3
A7
350
4A
  3
A8
350
4B
  3
A9
350
4C
  3
B0
350
4D
  3
B1
350
4E
  3
B2
350
4F
  3
B3
350
50
  3
B4
350
51
  3
B5
350
52
  3
B6
350
53
  0
DICTIONARY
  5
68
102
{ACAD_REACTORS
330
C
102
}
330
C
100
AcDbDictionary
281
     1
  3
Imperial24
350
69
  0
DICTIONARY
  5
64
102
{ACAD_REACTORS
330
C
102
}
330
C
100
AcDbDictionary
281
     1
  3
Standard
350
65
  0
DICTIONARY
  5
29
102
{ACAD_REACTORS
330
C
102
}
330
C
100
AcDbDictionary
281
     1
  3
2dWireframe
350
2F
  3
Basic
350
2E
  3
Brighten
350
35
  3
ColorChange
350
39
  3
Conceptual
350
32
  3
Dim
350
34
  3
EdgeColorOff
350
41
  3
Facepattern
350
38
  3
Flat
350
2A
  3
FlatWithEdges
350
2B
  3
Gouraud
350
2C
  3
GouraudWithEdges
350
2D
  3
Hidden
350
31
  3
JitterOff
350
3F
  3
Linepattern
350
37
  3
OverhangOff
350
40
  3
Realistic
350
33
  3
Shaded
350
3E
  3
Shaded with edges
350
3D
  3
Shades of Gray
350
3A
  3
Sketchy
350
3B
  3
Thicken
350
36
  3
Wireframe
350
30
  3
X-Ray
350
3C
  0
XRECORD
  5
B1
102
{ACAD_REACTORS
330
C
102
}
330
C
100
AcDbXrecord
280
     1
 90
        1
330
65
  0
DICTIONARY
  5
A9
102
{ACAD_REACTORS
330
C
102
}
330
C
100
AcDbDictionary
281
     1
  3
CANNOSCALE
350
AE
  3
CMLEADERSTYLE
350
AB
  3
CTABLESTYLE
350
AA
  3
CVIEWDETAILSTYLE
350
AC
  3
CVIEWSECTIONSTYLE
350
AD
  0
ACDBDETAILVIEWSTYLE
  5
6B
102
{ACAD_REACTORS
330
6A
102
}
330
6A
100
AcDbModelDocViewStyle
 70
     0
  3
Imperial24
290
     1
300
Imperial24
 90
        0
100
AcDbDetailViewStyle
 70
     0
 71
     0
 90
        3
 71
     1
340
55
 62
   256
 40
0.24
340
0
 62
   256
 40
0.24
300

 40
0.36
280
     3
 71
     2
340
5D
 90
       25
 62
   256
 71
     3
340
55
 62
   256
 40
0.24
 90
        1
 40
0.75
 90
        1
300
%<\AcVar ViewType \f "%tc1">% %<\AcVar ViewDetailId>%\PSCALE %<\AcVar ViewScale \f "%sn">%
 71
     4
340
5D
 90
       25
 62
   256
340
5D
 90
       25
 62
   256
280
     0
  0
LAYOUT
  5
6F
102
{ACAD_REACTORS
330
62
102
}
330
62
100
AcDbPlotSettings
  1

  2

  4

  6

 40
0.0
 41
0.0
 42
0.0
 43
0.0
 44
0.0
 45
0.0
 46
0.0
 47
0.0
 48
0.0
 49
0.0
140
0.0
141
0.0
142
1.0
143
1.0
 70
   688
 72
     0
 73
     0
 74
     5
  7

 75
    16
147
1.0
 76
     0
 77
     2
 78
   300
148
0.0
149
0.0
100
AcDbLayout
  1
Layout1
 70
     1
 71
     1
 10
0.0
 20
0.0
 11
12.0
 21
9.0
 12
0.0
 22
0.0
 32
0.0
 14
0.0
 24
0.0
 34
0.0
 15
0.0
 25
0.0
 35
0.0
146
0.0
 13
0.0
 23
0.0
 33
0.0
 16
1.0
 26
0.0
 36
0.0
 17
0.0
 27
1.0
 37
0.0
 76
     0
330
6C
  0
LAYOUT
  5
77
102
{ACAD_REACTORS
330
62
102
}
330
62
100
AcDbPlotSettings
  1

  2

  4

  6

 40
0.0
 41
0.0
 42
0.0
 43
0.0
 44
0.0
 45
0.0
 46
0.0
 47
0.0
 48
0.0
 49
0.0
140
0.0
141
0.0
142
1.0
143
1.0
 70
   688
 72
     0
 73
     0
 74
     5
  7

 75
    16
147
1.0
 76
     0
 77
     2
 78
   300
148
0.0
149
0.0
100
AcDbLayout
  1
Layout2
 70
     1
 71
     2
 10
0.0
 20
0.0
 11
12.0
 21
9.0
 12
0.0
 22
0.0
 32
0.0
 14
0.0
 24
0.0
 34
0.0
 15
0.0
 25
0.0
 35
0.0
146
0.0
 13
0.0
 23
0.0
 33
0.0
 16
1.0
 26
0.0
 36
0.0
 17
0.0
 27
1.0
 37
0.0
 76
     0
330
74
  0
LAYOUT
  5
73
102
{ACAD_REACTORS
330
62
102
}
330
62
100
AcDbPlotSettings
  1

  2

  4

  6

 40
0.0
 41
0.0
 42
0.0
 43
0.0
 44
0.0
 45
0.0
 46
0.0
 47
0.0
 48
0.0
 49
0.0
140
0.0
141
0.0
142
1.0
143
1.0
 70
  1712
 72
     0
 73
     0
 74
     0
  7

 75
     0
147
1.0
 76
     0
 77
     2
 78
   300
148
0.0
149
0.0
100
AcDbLayout
  1
Model
 70
     1
 71
     0
 10
0.0
 20
0.0
 11
12.0
 21
9.0
 12
0.0
 22
0.0
 32
0.0
 14
0.0
 24
0.0
 34
0.0
 15
0.0
 25
0.0
 35
0.0
146
0.0
 13
0.0
 23
0.0
 33
0.0
 16
1.0
 26
0.0
 36
0.0
 17
0.0
 27
1.0
 37
0.0
 76
     0
330
70
  0
MATERIAL
  5
19
102
{ACAD_XDICTIONARY
360
1A
102
}
102
{ACAD_REACTORS
330
10
102
}
330
10
100
AcDbMaterial
  1
ByBlock
 72
     0
 43
0.0208333333333333
 43
0.0
 43
0.0
 43
0.0
 43
0.0
 43
0.0208333333333333
 43
0.0
 43
0.0
 43
0.0
 43
0.0
 43
1.0
 43
0.0
 43
0.0
 43
0.0
 43
0.0
 43
1.0
 77
     0
 47
0.0208333333333333
 47
0.0
 47
0.0
 47
0.0
 47
0.0
 47
0.0208333333333333
 47
0.0
 47
0.0
 47
0.0
 47
0.0
 47
1.0
 47
0.0
 47
0.0
 47
0.0
 47
0.0
 47
1.0
171
     0
 49
0.0208333333333333
 49
0.0
 49
0.0
 49
0.0
 49
0.0
 49
0.0208333333333333
 49
0.0
 49
0.0
 49
0.0
 49
0.0
 49
1.0
 49
0.0
 49
0.0
 49
0.0
 49
0.0
 49
1.0
175
     0
142
0.0208333333333333
142
0.0
142
0.0
142
0.0
142
0.0
142
0.0208333333333333
142
0.0
142
0.0
142
0.0
142
0.0
142
1.0
142
0.0
142
0.0
142
0.0
142
0.0
142
1.0
179
     0
144
0.0208333333333333
144
0.0
144
0.0
144
0.0
144
0.0
144
0.0208333333333333
144
0.0
144
0.0
144
0.0
144
0.0
144
1.0
144
0.0
144
0.0
144
0.0
144
0.0
144
1.0
147
0.0208333333333333
147
0.0
147
0.0
147
0.0
147
0.0
147
0.0208333333333333
147
0.0
147
0.0
147
0.0
147
0.0
147
1.0
147
0.0
147
0.0
147
0.0
147
0.0
147
1.0
  0
MATERIAL
  5
11
102
{ACAD_XDICTIONARY
360
12
102
}
102
{ACAD_REACTORS
330
10
102
}
330
10
100
AcDbMaterial
  1
ByLayer
 72
     0
 43
0.0208333333333333
 43
0.0
 43
0.0
 43
0.0
 43
0.0
 43
0.0208333333333333
 43
0.0
 43
0.0
 43
0.0
 43
0.0
 43
1.0
 43
0.0
 43
0.0
 43
0.0
 43
0.0
 43
1.0
 77
     0
 47
0.0208333333333333
 47
0.0
 47
0.0
 47
0.0
 47
0.0
 47
0.0208333333333333
 47
0.0
 47
0.0
 47
0.0
 47
0.0
 47
1.0
 47
0.0
 47
0.0
 47
0.0
 47
0.0
 47
1.0
171
     0
 49
0.0208333333333333
 49
0.0
 49
0.0
 49
0.0
 49
0.0
 49
0.0208333333333333
 49
0.0
 49
0.0
 49
0.0
 49
0.0
 49
1.0
 49
0.0
 49
0.0
 49
0.0
 49
0.0
 49
1.0
175
     0
142
0.0208333333333333
142
0.0
142
0.0
142
0.0
142
0.0
142
0.0208333333333333
142
0.0
142
0.0
142
0.0
142
0.0
142
1.0
142
0.0
142
0.0
142
0.0
142
0.0
142
1.0
179
     0
144
0.0208333333333333
144
0.0
144
0.0
144
0.0
144
0.0
144
0.0208333333333333
144
0.0
144
0.0
144
0.0
144
0.0
144
1.0
144
0.0
144
0.0
144
0.0
144
0.0
144
1.0
147
0.0208333333333333
147
0.0
147
0.0
147
0.0
147
0.0
147
0.0208333333333333
147
0.0
147
0.0
147
0.0
147
0.0
147
1.0
147
0.0
147
0.0
147
0.0
147
0.0
147
1.0
  0
MATERIAL
  5
21
102
{ACAD_XDICTIONARY
360
22
102
}
102
{ACAD_REACTORS
330
10
102
}
330
10
100
AcDbMaterial
  1
Global
 72
     0
 43
0.0208333333333333
 43
0.0
 43
0.0
 43
0.0
 43
0.0
 43
0.0208333333333333
 43
0.0
 43
0.0
 43
0.0
 43
0.0
 43
1.0
 43
0.0
 43
0.0
 43
0.0
 43
0.0
 43
1.0
 77
     0
 47
0.0208333333333333
 47
0.0
 47
0.0
 47
0.0
 47
0.0
 47
0.0208333333333333
 47
0.0
 47
0.0
 47
0.0
 47
0.0
 47
1.0
 47
0.0
 47
0.0
 47
0.0
 47
0.0
 47
1.0
171
     0
 49
0.0208333333333333
 49
0.0
 49
0.0
 49
0.0
 49
0.0
 49
0.0208333333333333
 49
0.0
 49
0.0
 49
0.0
 49
0.0
 49
1.0
 49
0.0
 49
0.0
 49
0.0
 49
0.0
 49
1.0
175
     0
142
0.0208333333333333
142
0.0
142
0.0
142
0.0
142
0.0
142
0.0208333333333333
142
0.0
142
0.0
142
0.0
142
0.0
142
1.0
142
0.0
142
0.0
142
0.0
142
0.0
142
1.0
179
     0
144
0.0208333333333333
144
0.0
144
0.0
144
0.0
144
0.0
144
0.0208333333333333
144
0.0
144
0.0
144
0.0
144
0.0
144
1.0
144
0.0
144
0.0
144
0.0
144
0.0
144
1.0
147
0.0208333333333333
147
0.0
147
0.0
147
0.0
147
0.0
147
0.0208333333333333
147
0.0
147
0.0
147
0.0
147
0.0
147
1.0
147
0.0
147
0.0
147
0.0
147
0.0
147
1.0
  0
MLEADERSTYLE
  5
67
102
{ACAD_REACTORS
330
66
102
}
330
66
100
AcDbMLeaderStyle
179
     2
170
     2
171
     1
172
     0
 90
        2
 40
0.0
 41
0.0
173
     1
 91
-1056964608
340
5B
 92
       -2
290
     1
 42
0.09
291
     1
 43
0.36
  3
Standard
 44
0.18
300

342
55
174
     1
178
     6
175
     1
176
     0
 93
-1056964608
 45
0.18
292
     0
297
     0
 46
0.18
 94
-1056964608
 47
1.0
 49
1.0
140
1.0
293
     1
141
0.0
294
     1
177
     0
142
1.0
295
     1
296
     0
143
0.125
271
     0
272
     9
273
     9
298
     1
  0
MLINESTYLE
  5
60
102
{ACAD_REACTORS
330
5F
102
}
330
5F
100
AcDbMlineStyle
  2
STANDARD
 70
     0
  3

 62
   256
 51
90.0
 52
90.0
 71
     2
 49
0.5
 62
   256
  6
BYLAYER
 49
-0.5
 62
   256
  6
BYLAYER
  0
ACDBPLACEHOLDER
  5
F
102
{ACAD_REACTORS
330
E
102
}
330
E
  0
SCALE
  5
43
102
{ACAD_REACTORS
330
42
102
}
330
42
100
AcDbScale
 70
     0
300
1:1
140
1.0
141
1.0
290
     1
  0
SCALE
  5
44
102
{ACAD_REACTORS
330
42
102
}
330
42
100
AcDbScale
 70
     0
300
1/128" = 1'-0"
140
0.0078125
141
12.0
290
     0
  0
SCALE
  5
45
102
{ACAD_REACTORS
330
42
102
}
330
42
100
AcDbScale
 70
     0
300
1/64" = 1'-0"
140
0.015625
141
12.0
290
     0
  0
SCALE
  5
46
102
{ACAD_REACTORS
330
42
102
}
330
42
100
AcDbScale
 70
     0
300
1/32" = 1'-0"
140
0.03125
141
12.0
290
     0
  0
SCALE
  5
47
102
{ACAD_REACTORS
330
42
102
}
330
42
100
AcDbScale
 70
     0
300
1/16" = 1'-0"
140
0.0625
141
12.0
290
     0
  0
SCALE
  5
48
102
{ACAD_REACTORS
330
42
102
}
330
42
100
AcDbScale
 70
     0
300
3/32" = 1'-0"
140
0.09375
141
12.0
290
     0
  0
SCALE
  5
49
102
{ACAD_REACTORS
330
42
102
}
330
42
100
AcDbScale
 70
     0
300
1/8" = 1'-0"
140
0.125
141
12.0
290
     0
  0
SCALE
  5
4A
102
{ACAD_REACTORS
330
42
102
}
330
42
100
AcDbScale
 70
     0
300
3/16" = 1'-0"
140
0.1875
141
12.0
290
     0
  0
SCALE
  5
4B
102
{ACAD_REACTORS
330
42
102
}
330
42
100
AcDbScale
 70
     0
300
1/4" = 1'-0"
140
0.25
141
12.0
290
     0
  0
SCALE
  5
4C
102
{ACAD_REACTORS
330
42
102
}
330
42
100
AcDbScale
 70
     0
300
3/8" = 1'-0"
140
0.375
141
12.0
290
     0
  0
SCALE
  5
4D
102
{ACAD_REACTORS
330
42
102
}
330
42
100
AcDbScale
 70
     0
300
1/2" = 1'-0"
140
0.5
141
12.0
290
     0
  0
SCALE
  5
4E
102
{ACAD_REACTORS
330
42
102
}
330
42
100
AcDbScale
 70
     0
300
3/4" = 1'-0"
140
0.75
141
12.0
290
     0
  0
SCALE
  5
4F
102
{ACAD_REACTORS
330
42
102
}
330
42
100
AcDbScale
 70
     0
300
1" = 1'-0"
140
1.0
141
12.0
290
     0
  0
SCALE
  5
50
102
{ACAD_REACTORS
330
42
102
}
330
42
100
AcDbScale
 70
     0
300
1-1/2" = 1'-0"
140
1.5
141
12.0
290
     0
  0
SCALE
  5
51
102
{ACAD_REACTORS
330
42
102
}
330
42
100
AcDbScale
 70
     0
300
3" = 1'-0"
140
3.0
141
12.0
290
     0
  0
SCALE
  5
52
102
{ACAD_REACTORS
330
42
102
}
330
42
100
AcDbScale
 70
     0
300
6" = 1'-0"
140
6.0
141
12.0
290
     0
  0
SCALE
  5
53
102
{ACAD_REACTORS
330
42
102
}
330
42
100
AcDbScale
 70
     0
300
1'-0" = 1'-0"
140
12.0
141
12.0
290
     0
  0
ACDBSECTIONVIEWSTYLE
  5
69
102
{ACAD_REACTORS
330
68
102
}
330
68
100
AcDbModelDocViewStyle
 70
     0
  3
Imperial24
290
     1
300
Imperial24
 90
        0
100
AcDbSectionViewStyle
 70
     0
 71
     0
 90
       78
 71
     1
340
55
 62
   256
 40
0.24
340
0
340
0
 62
   256
 40
0.24
300
I, O, Q, S, X, Z
 40
0.48
 90
        3
 40
0.18
 90
        1
 71
     2
340
5D
 90
       25
 62
   256
340
5D
 90
       50
 62
   256
 40
0.24
 40
0.0
 40
0.24
 71
     3
340
55
 62
   256
 40
0.24
 90
        1
 40
0.75
 90
        1
300
%<\AcVar ViewType \f "%tc1">% %<\AcVar ViewSectionStartId>%-%<\AcVar ViewSectionEndId>%\PSCALE %<\AcVar ViewScale \f "%sn">%
 71
     4
 62
   256
 62
   257
300
ANSI31
 40
1.0
 90
        0
290
     0
290
     0
 90
        6
 40
0.0
 40
1.570796326794896
 40
0.2617993877991494
 40
1.308996938995747
 40
-0.2617993877991494
 40
1.832595714594046
  0
TABLESTYLE
  5
65
102
{ACAD_XDICTIONARY
360
AF
102
}
102
{ACAD_REACTORS
330
64
102
}
330
64
100
AcDbTableStyle
280
     0
  3
Standard
 70
     0
 71
     0
 40
0.06
 41
0.06
280
     0
281
     0
  7
Standard
140
0.18
170
     2
 62
     0
 63
     7
283
     0
 90
      512
 91
        0
  1

274
    -2
284
     1
 64
     0
275
    -2
285
     1
 65
     0
276
    -2
286
     1
 66
     0
277
    -2
287
     1
 67
     0
278
    -2
288
     1
 68
     0
279
    -2
289
     1
 69
     0
  7
Standard
140
0.25
170
     5
 62
     0
 63
     7
283
     0
 90
      512
 91
        0
  1

274
    -2
284
     1
 64
     0
275
    -2
285
     1
 65
     0
276
    -2
286
     1
 66
     0
277
    -2
287
     1
 67
     0
278
    -2
288
     1
 68
     0
279
    -2
289
     1
 69
     0
  7
Standard
140
0.18
170
     5
 62
     0
 63
     7
283
     0
 90
      512
 91
        0
  1

274
    -2
284
     1
 64
     0
275
    -2
285
     1
 65
     0
276
    -2
286
     1
 66
     0
277
    -2
287
     1
 67
     0
278
    -2
288
     1
 68
     0
279
    -2
289
     1
 69
     0
  0
VISUALSTYLE
  5
2F
102
{ACAD_REACTORS
330
29
102
}
330
29
100
AcDbVisualStyle
  2
2dWireframe
 70
     4
177
     3
291
     0
 70
    58
 90
        0
176
     1
 90
        2
176
     1
 90
        0
176
     1
 90
        0
176
     1
 40
0.6
176
     1
 40
30.0
176
     1
 62
     7
420
 16777215
176
     1
 90
        1
176
     1
 90
        4
176
     1
 62
     7
176
     1
 62
   257
176
     1
 90
        1
176
     1
 90
        1
176
     1
 40
1.0
176
     1
 90
        0
176
     1
 62
   257
176
     1
 40
1.0
176
     1
 90
        1
176
     1
 90
        6
176
     1
 90
        2
176
     1
 62
     7
176
     1
 90
        5
176
     1
 90
        0
176
     1
 90
        0
176
     1
290
     0
176
     1
 90
        1
176
     1
 40
0.0
176
     1
 90
        0
176
     1
290
     1
176
     1
290
     1
176
     1
290
     0
176
     1
290
     0
176
     1
290
     0
176
     1
290
     0
176
     1
290
     0
176
     1
290
     0
176
     1
290
     0
176
     1
 90
       50
176
     1
 40
0.0
176
     1
 40
1.0
176
     1
 90
        0
176
     1
 62
    18
420
        0
176
     1
 90
       50
176
     1
 90
        3
176
     1
 62
     5
420
      255
176
     1
290
     0
176
     1
 90
       50
176
     1
 90
       50
176
     1
 90
       50
176
     1
290
     0
176
     1
 90
       50
176
     1
 62
   256
176
     0
 40
1.0
176
     0
 90
        2
176
     1
  1
strokes_ogs.tif
176
     1
290
     0
176
     1
 40
1.0
176
     1
 40
1.0
176
     1
  0
VISUALSTYLE
  5
2E
102
{ACAD_REACTORS
330
29
102
}
330
29
100
AcDbVisualStyle
  2
Basic
 70
     7
177
     3
291
     1
 70
    58
 90
        1
176
     1
 90
        0
176
     1
 90
        1
176
     1
 90
        0
176
     1
 40
0.6
176
     1
 40
30.0
176
     1
 62
     7
420
 16777215
176
     1
 90
        0
176
     1
 90
        4
176
     1
 62
     7
176
     1
 62
   257
176
     1
 90
        1
176
     1
 90
        1
176
     1
 40
1.0
176
     1
 90
        8
176
     1
 62
     7
176
     1
 40
1.0
176
     1
 90
        1
176
     1
 90
        6
176
     1
 90
        2
176
     1
 62
     7
176
     1
 90
        5
176
     1
 90
        0
176
     1
 90
        0
176
     1
290
     0
176
     1
 90
        1
176
     1
 40
0.0
176
     1
 90
        0
176
     1
290
     0
176
     1
290
     1
176
     1
290
     1
176
     1
290
     0
176
     1
290
     0
176
     1
290
     0
176
     1
290
     0
176
     1
290
     0
176
     1
290
     0
176
     1
 90
       50
176
     1
 40
0.0
176
     1
 40
1.0
176
     1
 90
        0
176
     1
 62
    18
420
        0
176
     1
 90
       50
176
     1
 90
        3
176
     1
 62
     5
420
      255
176
     1
290
     0
176
     1
 90
       50
176
     1
 90
       50
176
     1
 90
       50
176
     1
290
     0
176
     1
 90
       50
176
     1
 62
   256
176
     0
 40
1.0
176
     0
 90
        2
176
     1
  1
strokes_ogs.tif
176
     1
290
     0
176
     1
 40
1.0
176
     1
 40
1.0
176
     1
  0
VISUALSTYLE
  5
35
102
{ACAD_REACTORS
330
29
102
}
330
29
100
AcDbVisualStyle
  2
Brighten
 70
    12
177
     3
291
     1
 70
    58
 90
        2
176
     1
 90
        2
176
     1
 90
        0
176
     1
 90
        0
176
     1
 40
0.6
176
     1
 40
30.0
176
     1
 62
     7
420
 16777215
176
     1
 90
        1
176
     1
 90
        4
176
     1
 62
     7
176
     1
 62
   257
176
     1
 90
        1
176
     1
 90
        1
176
     1
 40
1.0
176
     1
 90
        8
176
     1
 62
     7
176
     1
 40
1.0
176
     1
 90
        1
176
     1
 90
        6
176
     1
 90
        2
176
     1
 62
     7
176
     1
 90
        5
176
     1
 90
        0
176
     1
 90
        0
176
     1
290
     0
176
     1
 90
        1
176
     1
 40
50.0
176
     1
 90
        0
176
     1
290
     0
176
     1
290
     1
176
     1
290
     1
176
     1
290
     0
176
     1
290
     0
176
     1
290
     0
176
     1
290
     0
176
     1
290
     0
176
     1
290
     0
176
     1
 90
       50
176
     1
 40
0.0
176
     1
 40
1.0
176
     1
 90
        0
176
     1
 62
    18
420
        0
176
     1
 90
       50
176
     1
 90
        3
176
     1
 62
     5
420
      255
176
     1
290
     0
176
     1
 90
       50
176
     1
 90
       50
176
     1
 90
       50
176
     1
290
     0
176
     1
 90
       50
176
     1
 62
   256
176
     0
 40
1.0
176
     0
 90
        2
176
     1
  1
strokes_ogs.tif
176
     1
290
     0
176
     1
 40
1.0
176
     1
 40
1.0
176
     1
  0
VISUALSTYLE
  5
39
102
{ACAD_REACTORS
330
29
102
}
330
29
100
AcDbVisualStyle
  2
ColorChange
 70
    16
177
     3
291
     1
 70
    58
 90
        2
176
     1
 90
        2
176
     1
 90
        3
176
     1
 90
        0
176
     1
 40
0.6
176
     1
 40
30.0
176
     1
 62
     8
420
  8421504
176
     1
 90
        1
176
     1
 90
        4
176
     1
 62
     7
176
     1
 62
   257
176
     1
 90
        1
176
     1
 90
        1
176
     1
 40
1.0
176
     1
 90
        8
176
     1
 62
     8
420
  8421504
176
     1
 40
1.0
176
     1
 90
        1
176
     1
 90
        6
176
     1
 90
        2
176
     1
 62
     7
176
     1
 90
        5
176
     1
 90
        0
176
     1
 90
        0
176
     1
290
     0
176
     1
 90
        1
176
     1
 40
0.0
176
     1
 90
        0
176
     1
290
     0
176
     1
290
     1
176
     1
290
     1
176
     1
290
     0
176
     1
290
     0
176
     1
290
     0
176
     1
290
     0
176
     1
290
     0
176
     1
290
     0
176
     1
 90
       50
176
     1
 40
0.0
176
     1
 40
1.0
176
     1
 90
        0
176
     1
 62
    18
420
        0
176
     1
 90
       50
176
     1
 90
        3
176
     1
 62
     5
420
      255
176
     1
290
     0
176
     1
 90
       50
176
     1
 90
       50
176
     1
 90
       50
176
     1
290
     0
176
     1
 90
       50
176
     1
 62
   256
176
     0
 40
1.0
176
     0
 90
        2
176
     1
  1
strokes_ogs.tif
176
     1
290
     0
176
     1
 40
1.0
176
     1
 40
1.0
176
     1
  0
VISUALSTYLE
  5
32
102
{ACAD_REACTORS
330
29
102
}
330
29
100
AcDbVisualStyle
  2
Conceptual
 70
     9
177
     3
291
     0
 70
    58
 90
        3
176
     1
 90
        2
176
     1
 90
        0
176
     1
 90
        0
176
     1
 40
0.6
176
     1
 40
30.0
176
     1
 62
     7
420
 16777215
176
     1
 90
        2
176
     1
 90
        2
176
     1
 62
     7
176
     1
 62
   257
176
     1
 90
        1
176
     1
 90
        1
176
     1
 40
179.0
176
     1
 90
        8
176
     1
 62
     7
176
     1
 40
1.0
176
     1
 90
        1
176
     1
 90
        6
176
     1
 90
        2
176
     1
 62
     7
176
     1
 90
        3
176
     1
 90
        0
176
     1
 90
        0
176
     1
290
     0
176
     1
 90
        1
176
     1
 40
0.0
176
     1
 90
        0
176
     1
290
     0
176
     1
290
     1
176
     1
290
     1
176
     1
290
     0
176
     1
290
     0
176
     1
290
     0
176
     1
290
     0
176
     1
290
     0
176
     1
290
     0
176
     1
 90
       50
176
     1
 40
0.0
176
     1
 40
1.0
176
     1
 90
        0
176
     1
 62
    18
420
        0
176
     1
 90
       50
176
     1
 90
        3
176
     1
 62
     5
420
      255
176
     1
290
     0
176
     1
 90
       50
176
     1
 90
       50
176
     1
 90
       50
176
     1
290
     0
176
     1
 90
       50
176
     1
 62
   256
176
     0
 40
1.0
176
     0
 90
        2
176
     1
  1
strokes_ogs.tif
176
     1
290
     0
176
     1
 40
1.0
176
     1
 40
1.0
176
     1
  0
VISUALSTYLE
  5
34
102
{ACAD_REACTORS
330
29
102
}
330
29
100
AcDbVisualStyle
  2
Dim
 70
    11
177
     3
291
     1
 70
    58
 90
        2
176
     1
 90
        2
176
     1
 90
        0
176
     1
 90
        0
176
     1
 40
0.6
176
     1
 40
30.0
176
     1
 62
     7
420
 16777215
176
     1
 90
        1
176
     1
 90
        4
176
     1
 62
     7
176
     1
 62
   257
176
     1
 90
        1
176
     1
 90
        1
176
     1
 40
1.0
176
     1
 90
        8
176
     1
 62
     7
176
     1
 40
1.0
176
     1
 90
        1
176
     1
 90
        6
176
     1
 90
        2
176
     1
 62
     7
176
     1
 90
        5
176
     1
 90
        0
176
     1
 90
        0
176
     1
290
     0
176
     1
 90
        1
176
     1
 40
-50.0
176
     1
 90
        0
176
     1
290
     0
176
     1
290
     1
176
     1
290
     1
176
     1
290
     0
176
     1
290
     0
176
     1
290
     0
176
     1
290
     0
176
     1
290
     0
176
     1
290
     0
176
     1
 90
       50
176
     1
 40
0.0
176
     1
 40
1.0
176
     1
 90
        0
176
     1
 62
    18
420
        0
176
     1
 90
       50
176
     1
 90
        3
176
     1
 62
     5
420
      255
176
     1
290
     0
176
     1
 90
       50
176
     1
 90
       50
176
     1
 90
       50
176
     1
290
     0
176
     1
 90
       50
176
     1
 62
   256
176
     0
 40
1.0
176
     0
 90
        2
176
     1
  1
strokes_ogs.tif
176
     1
290
     0
176
     1
 40
1.0
176
     1
 40
1.0
176
     1
  0
VISUALSTYLE
  5
41
102
{ACAD_REACTORS
330
29
102
}
330
29
100
AcDbVisualStyle
  2
EdgeColorOff
 70
    22
177
     3
291
     1
 70
    58
 90
        2
176
     0
 90
        2
176
     0
 90
        0
176
     0
 90
        0
176
     0
 40
0.6
176
     0
 40
30.0
176
     0
 62
     7
420
 16777215
176
     0
 90
        1
176
     0
 90
        4
176
     0
 62
     7
176
     0
 62
   257
176
     0
 90
        1
176
     0
 90
        1
176
     0
 40
1.0
176
     0
 90
        8
176
     2
 62
     7
176
     0
 40
1.0
176
     0
 90
        1
176
     0
 90
        6
176
     0
 90
        2
176
     0
 62
     7
176
     0
 90
        5
176
     0
 90
        0
176
     0
 90
        0
176
     0
290
     0
176
     0
 90
        1
176
     0
 40
0.0
176
     0
 90
        0
176
     0
290
     0
176
     0
290
     1
176
     0
290
     1
176
     0
290
     0
176
     0
290
     0
176
     0
290
     0
176
     0
290
     0
176
     0
290
     0
176
     0
290
     0
176
     0
 90
       50
176
     0
 40
0.0
176
     0
 40
1.0
176
     0
 90
        0
176
     0
 62
    18
420
        0
176
     0
 90
       50
176
     0
 90
        3
176
     0
 62
     5
420
      255
176
     0
290
     0
176
     0
 90
       50
176
     0
 90
       50
176
     0
 90
       50
176
     0
290
     0
176
     0
 90
       50
176
     0
 62
   256
176
     0
 40
1.0
176
     0
 90
        2
176
     0
  1
strokes_ogs.tif
176
     0
290
     0
176
     0
 40
1.0
176
     0
 40
1.0
176
     0
  0
VISUALSTYLE
  5
38
102
{ACAD_REACTORS
330
29
102
}
330
29
100
AcDbVisualStyle
  2
Facepattern
 70
    15
177
     3
291
     1
 70
    58
 90
        2
176
     1
 90
        2
176
     1
 90
        0
176
     1
 90
        0
176
     1
 40
0.6
176
     1
 40
30.0
176
     1
 62
     7
420
 16777215
176
     1
 90
        1
176
     1
 90
        4
176
     1
 62
     7
176
     1
 62
   257
176
     1
 90
        1
176
     1
 90
        1
176
     1
 40
1.0
176
     1
 90
        8
176
     1
 62
     7
176
     1
 40
1.0
176
     1
 90
        1
176
     1
 90
        6
176
     1
 90
        2
176
     1
 62
     7
176
     1
 90
        5
176
     1
 90
        0
176
     1
 90
        0
176
     1
290
     0
176
     1
 90
        1
176
     1
 40
0.0
176
     1
 90
        0
176
     1
290
     0
176
     1
290
     1
176
     1
290
     1
176
     1
290
     0
176
     1
290
     0
176
     1
290
     0
176
     1
290
     0
176
     1
290
     0
176
     1
290
     0
176
     1
 90
       50
176
     1
 40
0.0
176
     1
 40
1.0
176
     1
 90
        0
176
     1
 62
    18
420
        0
176
     1
 90
       50
176
     1
 90
        3
176
     1
 62
     5
420
      255
176
     1
290
     0
176
     1
 90
       50
176
     1
 90
       50
176
     1
 90
       50
176
     1
290
     0
176
     1
 90
       50
176
     1
 62
   256
176
     0
 40
1.0
176
     0
 90
        2
176
     1
  1
strokes_ogs.tif
176
     1
290
     0
176
     1
 40
1.0
176
     1
 40
1.0
176
     1
  0
VISUALSTYLE
  5
2A
102
{ACAD_REACTORS
330
29
102
}
330
29
100
AcDbVisualStyle
  2
Flat
 70
     0
177
     3
291
     1
 70
    58
 90
        2
176
     1
 90
        1
176
     1
 90
        1
176
     1
 90
        2
176
     1
 40
0.6
176
     1
 40
30.0
176
     1
 62
     7
420
 16777215
176
     1
 90
        0
176
     1
 90
        0
176
     1
 62
     7
176
     1
 62
   257
176
     1
 90
        1
176
     1
 90
        1
176
     1
 40
1.0
176
     1
 90
        8
176
     1
 62
     7
176
     1
 40
1.0
176
     1
 90
        1
176
     1
 90
        6
176
     1
 90
        2
176
     1
 62
     7
176
     1
 90
        5
176
     1
 90
        0
176
     1
 90
        0
176
     1
290
     0
176
     1
 90
       13
176
     1
 40
0.0
176
     1
 90
        0
176
     1
290
     0
176
     1
290
     1
176
     1
290
     1
176
     1
290
     0
176
     1
290
     0
176
     1
290
     0
176
     1
290
     0
176
     1
290
     0
176
     1
290
     0
176
     1
 90
       50
176
     1
 40
0.0
176
     1
 40
1.0
176
     1
 90
        0
176
     1
 62
    18
420
        0
176
     1
 90
       50
176
     1
 90
        3
176
     1
 62
     5
420
      255
176
     1
290
     0
176
     1
 90
       50
176
     1
 90
       50
176
     1
 90
       50
176
     1
290
     0
176
     1
 90
       50
176
     1
 62
   256
176
     0
 40
1.0
176
     0
 90
        2
176
     1
  1
strokes_ogs.tif
176
     1
290
     0
176
     1
 40
1.0
176
     1
 40
1.0
176
     1
  0
VISUALSTYLE
  5
2B
102
{ACAD_REACTORS
330
29
102
}
330
29
100
AcDbVisualStyle
  2
FlatWithEdges
 70
     1
177
     3
291
     1
 70
    58
 90
        2
176
     1
 90
        1
176
     1
 90
        1
176
     1
 90
        2
176
     1
 40
0.6
176
     1
 40
30.0
176
     1
 62
     7
420
 16777215
176
     1
 90
        1
176
     1
 90
        0
176
     1
 62
     7
176
     1
 62
   257
176
     1
 90
        1
176
     1
 90
        1
176
     1
 40
1.0
176
     1
 90
        0
176
     1
 62
   257
176
     1
 40
1.0
176
     1
 90
        1
176
     1
 90
        6
176
     1
 90
        2
176
     1
 62
     7
176
     1
 90
        5
176
     1
 90
        0
176
     1
 90
        0
176
     1
290
     0
176
     1
 90
       13
176
     1
 40
0.0
176
     1
 90
        0
176
     1
290
     0
176
     1
290
     1
176
     1
290
     1
176
     1
290
     0
176
     1
290
     0
176
     1
290
     0
176
     1
290
     0
176
     1
290
     0
176
     1
290
     0
176
     1
 90
       50
176
     1
 40
0.0
176
     1
 40
1.0
176
     1
 90
        0
176
     1
 62
    18
420
        0
176
     1
 90
       50
176
     1
 90
        3
176
     1
 62
     5
420
      255
176
     1
290
     0
176
     1
 90
       50
176
     1
 90
       50
176
     1
 90
       50
176
     1
290
     0
176
     1
 90
       50
176
     1
 62
   256
176
     0
 40
1.0
176
     0
 90
        2
176
     1
  1
strokes_ogs.tif
176
     1
290
     0
176
     1
 40
1.0
176
     1
 40
1.0
176
     1
  0
VISUALSTYLE
  5
2C
102
{ACAD_REACTORS
330
29
102
}
330
29
100
AcDbVisualStyle
  2
Gouraud
 70
     2
177
     3
291
     1
 70
    58
 90
        2
176
     1
 90
        2
176
     1
 90
        1
176
     1
 90
        2
176
     1
 40
0.6
176
     1
 40
30.0
176
     1
 62
     7
420
 16777215
176
     1
 90
        0
176
     1
 90
        0
176
     1
 62
     7
176
     1
 62
   257
176
     1
 90
        1
176
     1
 90
        1
176
     1
 40
1.0
176
     1
 90
        0
176
     1
 62
     7
176
     1
 40
1.0
176
     1
 90
        1
176
     1
 90
        6
176
     1
 90
        2
176
     1
 62
     7
176
     1
 90
        5
176
     1
 90
        0
176
     1
 90
        0
176
     1
290
     0
176
     1
 90
       13
176
     1
 40
0.0
176
     1
 90
        0
176
     1
290
     0
176
     1
290
     1
176
     1
290
     1
176
     1
290
     0
176
     1
290
     0
176
     1
290
     0
176
     1
290
     0
176
     1
290
     0
176
     1
290
     0
176
     1
 90
       50
176
     1
 40
0.0
176
     1
 40
1.0
176
     1
 90
        0
176
     1
 62
    18
420
        0
176
     1
 90
       50
176
     1
 90
        3
176
     1
 62
     5
420
      255
176
     1
290
     0
176
     1
 90
       50
176
     1
 90
       50
176
     1
 90
       50
176
     1
290
     0
176
     1
 90
       50
176
     1
 62
   256
176
     0
 40
1.0
176
     0
 90
        2
176
     1
  1
strokes_ogs.tif
176
     1
290
     0
176
     1
 40
1.0
176
     1
 40
1.0
176
     1
  0
VISUALSTYLE
  5
2D
102
{ACAD_REACTORS
330
29
102
}
330
29
100
AcDbVisualStyle
  2
GouraudWithEdges
 70
     3
177
     3
291
     1
 70
    58
 90
        2
176
     1
 90
        2
176
     1
 90
        1
176
     1
 90
        2
176
     1
 40
0.6
176
     1
 40
30.0
176
     1
 62
     7
420
 16777215
176
     1
 90
        1
176
     1
 90
        0
176
     1
 62
     7
176
     1
 62
   257
176
     1
 90
        1
176
     1
 90
        1
176
     1
 40
1.0
176
     1
 90
        0
176
     1
 62
   257
176
     1
 40
1.0
176
     1
 90
        1
176
     1
 90
        6
176
     1
 90
        2
176
     1
 62
     7
176
     1
 90
        5
176
     1
 90
        0
176
     1
 90
        0
176
     1
290
     0
176
     1
 90
       13
176
     1
 40
0.0
176
     1
 90
        0
176
     1
290
     0
176
     1
290
     1
176
     1
290
     1
176
     1
290
     0
176
     1
290
     0
176
     1
290
     0
176
     1
290
     0
176
     1
290
     0
176
     1
290
     0
176
     1
 90
       50
176
     1
 40
0.0
176
     1
 40
1.0
176
     1
 90
        0
176
     1
 62
    18
420
        0
176
     1
 90
       50
176
     1
 90
        3
176
     1
 62
     5
420
      255
176
     1
290
     0
176
     1
 90
       50
176
     1
 90
       50
176
     1
 90
       50
176
     1
290
     0
176
     1
 90
       50
176
     1
 62
   256
176
     0
 40
1.0
176
     0
 90
        2
176
     1
  1
strokes_ogs.tif
176
     1
290
     0
176
     1
 40
1.0
176
     1
 40
1.0
176
     1
  0
VISUALSTYLE
  5
31
102
{ACAD_REACTORS
330
29
102
}
330
29
100
AcDbVisualStyle
  2
Hidden
 70
     6
177
     3
291
     0
 70
    58
 90
        1
176
     1
 90
        2
176
     1
 90
        2
176
     1
 90
        0
176
     1
 40
0.6
176
     1
 40
30.0
176
     1
 62
     7
420
 16777215
176
     1
 90
        2
176
     1
 90
        2
176
     1
 62
     7
176
     1
 62
   257
176
     1
 90
        2
176
     1
 90
        1
176
     1
 40
40.0
176
     1
 90
        0
176
     1
 62
   257
176
     1
 40
1.0
176
     1
 90
        1
176
     1
 90
        6
176
     1
 90
        2
176
     1
 62
     7
176
     1
 90
        3
176
     1
 90
        0
176
     1
 90
        0
176
     1
290
     0
176
     1
 90
        1
176
     1
 40
0.0
176
     1
 90
        0
176
     1
290
     0
176
     1
290
     1
176
     1
290
     1
176
     1
290
     0
176
     1
290
     0
176
     1
290
     0
176
     1
290
     0
176
     1
290
     0
176
     1
290
     0
176
     1
 90
       50
176
     1
 40
0.0
176
     1
 40
1.0
176
     1
 90
        0
176
     1
 62
    18
420
        0
176
     1
 90
       50
176
     1
 90
        3
176
     1
 62
     5
420
      255
176
     1
290
     0
176
     1
 90
       50
176
     1
 90
       50
176
     1
 90
       50
176
     1
290
     0
176
     1
 90
       50
176
     1
 62
   256
176
     0
 40
1.0
176
     0
 90
        2
176
     1
  1
strokes_ogs.tif
176
     1
290
     0
176
     1
 40
1.0
176
     1
 40
1.0
176
     1
  0
VISUALSTYLE
  5
3F
102
{ACAD_REACTORS
330
29
102
}
330
29
100
AcDbVisualStyle
  2
JitterOff
 70
    20
177
     3
291
     1
 70
    58
 90
        2
176
     0
 90
        2
176
     0
 90
        0
176
     0
 90
        0
176
     0
 40
0.6
176
     0
 40
30.0
176
     0
 62
     7
420
 16777215
176
     0
 90
        1
176
     0
 90
        4
176
     0
 62
     7
176
     0
 62
   257
176
     0
 90
        1
176
     0
 90
        1
176
     0
 40
1.0
176
     0
 90
       10
176
     2
 62
     7
176
     0
 40
1.0
176
     0
 90
        1
176
     0
 90
        6
176
     0
 90
        2
176
     0
 62
     7
176
     0
 90
        5
176
     0
 90
        0
176
     0
 90
        0
176
     0
290
     0
176
     0
 90
        1
176
     0
 40
0.0
176
     0
 90
        0
176
     0
290
     0
176
     0
290
     1
176
     0
290
     1
176
     0
290
     0
176
     0
290
     0
176
     0
290
     0
176
     0
290
     0
176
     0
290
     0
176
     0
290
     0
176
     0
 90
       50
176
     0
 40
0.0
176
     0
 40
1.0
176
     0
 90
        0
176
     0
 62
    18
420
        0
176
     0
 90
       50
176
     0
 90
        3
176
     0
 62
     5
420
      255
176
     0
290
     0
176
     0
 90
       50
176
     0
 90
       50
176
     0
 90
       50
176
     0
290
     0
176
     0
 90
       50
176
     0
 62
   256
176
     0
 40
1.0
176
     0
 90
        2
176
     0
  1
strokes_ogs.tif
176
     0
290
     0
176
     0
 40
1.0
176
     0
 40
1.0
176
     0
  0
VISUALSTYLE
  5
37
102
{ACAD_REACTORS
330
29
102
}
330
29
100
AcDbVisualStyle
  2
Linepattern
 70
    14
177
     3
291
     1
 70
    58
 90
        2
176
     1
 90
        2
176
     1
 90
        0
176
     1
 90
        0
176
     1
 40
0.6
176
     1
 40
30.0
176
     1
 62
     7
420
 16777215
176
     1
 90
        1
176
     1
 90
        4
176
     1
 62
     7
176
     1
 62
   257
176
     1
 90
        7
176
     1
 90
        7
176
     1
 40
1.0
176
     1
 90
        8
176
     1
 62
     7
176
     1
 40
1.0
176
     1
 90
        1
176
     1
 90
        6
176
     1
 90
        2
176
     1
 62
     7
176
     1
 90
        5
176
     1
 90
        0
176
     1
 90
        0
176
     1
290
     0
176
     1
 90
        1
176
     1
 40
0.0
176
     1
 90
        0
176
     1
290
     0
176
     1
290
     1
176
     1
290
     1
176
     1
290
     0
176
     1
290
     0
176
     1
290
     0
176
     1
290
     0
176
     1
290
     0
176
     1
290
     0
176
     1
 90
       50
176
     1
 40
0.0
176
     1
 40
1.0
176
     1
 90
        0
176
     1
 62
    18
420
        0
176
     1
 90
       50
176
     1
 90
        3
176
     1
 62
     5
420
      255
176
     1
290
     0
176
     1
 90
       50
176
     1
 90
       50
176
     1
 90
       50
176
     1
290
     0
176
     1
 90
       50
176
     1
 62
   256
176
     0
 40
1.0
176
     0
 90
        2
176
     1
  1
strokes_ogs.tif
176
     1
290
     0
176
     1
 40
1.0
176
     1
 40
1.0
176
     1
  0
VISUALSTYLE
  5
40
102
{ACAD_REACTORS
330
29
102
}
330
29
100
AcDbVisualStyle
  2
OverhangOff
 70
    21
177
     3
291
     1
 70
    58
 90
        2
176
     0
 90
        2
176
     0
 90
        0
176
     0
 90
        0
176
     0
 40
0.6
176
     0
 40
30.0
176
     0
 62
     7
420
 16777215
176
     0
 90
        1
176
     0
 90
        4
176
     0
 62
     7
176
     0
 62
   257
176
     0
 90
        1
176
     0
 90
        1
176
     0
 40
1.0
176
     0
 90
        9
176
     2
 62
     7
176
     0
 40
1.0
176
     0
 90
        1
176
     0
 90
        6
176
     0
 90
        2
176
     0
 62
     7
176
     0
 90
        5
176
     0
 90
        0
176
     0
 90
        0
176
     0
290
     0
176
     0
 90
        1
176
     0
 40
0.0
176
     0
 90
        0
176
     0
290
     0
176
     0
290
     1
176
     0
290
     1
176
     0
290
     0
176
     0
290
     0
176
     0
290
     0
176
     0
290
     0
176
     0
290
     0
176
     0
290
     0
176
     0
 90
       50
176
     0
 40
0.0
176
     0
 40
1.0
176
     0
 90
        0
176
     0
 62
    18
420
        0
176
     0
 90
       50
176
     0
 90
        3
176
     0
 62
     5
420
      255
176
     0
290
     0
176
     0
 90
       50
176
     0
 90
       50
176
     0
 90
       50
176
     0
290
     0
176
     0
 90
       50
176
     0
 62
   256
176
     0
 40
1.0
176
     0
 90
        2
176
     0
  1
strokes_ogs.tif
176
     0
290
     0
176
     0
 40
1.0
176
     0
 40
1.0
176
     0
  0
VISUALSTYLE
  5
33
102
{ACAD_REACTORS
330
29
102
}
330
29
100
AcDbVisualStyle
  2
Realistic
 70
     8
177
     3
291
     0
 70
    58
 90
        2
176
     1
 90
        3
176
     1
 90
        0
176
     1
 90
        2
176
     1
 40
0.6
176
     1
 40
30.0
176
     1
 62
     7
420
 16777215
176
     1
 90
        0
176
     1
 90
        0
176
     1
 62
     7
176
     1
 62
   257
176
     1
 90
        1
176
     1
 90
        1
176
     1
 40
1.0
176
     1
 90
        8
176
     1
 62
   257
176
     1
 40
1.0
176
     1
 90
        1
176
     1
 90
        6
176
     1
 90
        2
176
     1
 62
     7
176
     1
 90
        3
176
     1
 90
        0
176
     1
 90
        0
176
     1
290
     0
176
     1
 90
       13
176
     1
 40
0.0
176
     1
 90
        0
176
     1
290
     0
176
     1
290
     1
176
     1
290
     1
176
     1
290
     0
176
     1
290
     0
176
     1
290
     0
176
     1
290
     0
176
     1
290
     0
176
     1
290
     0
176
     1
 90
       50
176
     1
 40
0.0
176
     1
 40
1.0
176
     1
 90
        0
176
     1
 62
    18
420
        0
176
     1
 90
       50
176
     1
 90
        3
176
     1
 62
     5
420
      255
176
     1
290
     0
176
     1
 90
       50
176
     1
 90
       50
176
     1
 90
       50
176
     1
290
     0
176
     1
 90
       50
176
     1
 62
   256
176
     0
 40
1.0
176
     0
 90
        2
176
     1
  1
strokes_ogs.tif
176
     1
290
     0
176
     1
 40
1.0
176
     1
 40
1.0
176
     1
  0
VISUALSTYLE
  5
3E
102
{ACAD_REACTORS
330
29
102
}
330
29
100
AcDbVisualStyle
  2
Shaded
 70
    27
177
     3
291
     0
 70
    58
 90
        2
176
     1
 90
        2
176
     1
 90
        1
176
     1
 90
        2
176
     1
 40
0.6
176
     1
 40
30.0
176
     1
 62
     7
420
 16777215
176
     1
 90
        0
176
     1
 90
        4
176
     1
 62
     7
176
     1
 62
   257
176
     1
 90
        1
176
     1
 90
        1
176
     1
 40
1.0
176
     1
 90
        8
176
     1
 62
   257
176
     1
 40
1.0
176
     1
 90
        1
176
     1
 90
        6
176
     1
 90
        2
176
     1
 62
     8
420
  7895160
176
     1
 90
        3
176
     1
 90
        0
176
     1
 90
        0
176
     1
290
     0
176
     1
 90
        5
176
     1
 40
0.0
176
     1
 90
        0
176
     1
290
     0
176
     1
290
     1
176
     1
290
     1
176
     1
290
     0
176
     1
290
     0
176
     1
290
     0
176
     1
290
     0
176
     1
290
     0
176
     1
290
     0
176
     1
 90
       50
176
     1
 40
0.0
176
     1
 40
1.0
176
     1
 90
        0
176
     1
 62
    18
420
        0
176
     1
 90
       50
176
     1
 90
        3
176
     1
 62
     5
420
      255
176
     1
290
     0
176
     1
 90
       50
176
     1
 90
       50
176
     1
 90
       50
176
     1
290
     0
176
     1
 90
       50
176
     1
 62
   256
176
     0
 40
1.0
176
     0
 90
        2
176
     1
  1
strokes_ogs.tif
176
     1
290
     0
176
     1
 40
1.0
176
     1
 40
1.0
176
     1
  0
VISUALSTYLE
  5
3D
102
{ACAD_REACTORS
330
29
102
}
330
29
100
AcDbVisualStyle
  2
Shaded with edges
 70
    26
177
     3
291
     0
 70
    58
 90
        2
176
     1
 90
        2
176
     1
 90
        1
176
     1
 90
        2
176
     1
 40
0.6
176
     1
 40
30.0
176
     1
 62
     7
420
 16777215
176
     1
 90
        1
176
     1
 90
        2
176
     1
 62
     7
176
     1
 62
   257
176
     1
 90
        2
176
     1
 90
        1
176
     1
 40
1.0
176
     1
 90
        8
176
     1
 62
   257
176
     1
 40
1.0
176
     1
 90
        1
176
     1
 90
        6
176
     1
 90
        2
176
     1
 62
     7
176
     1
 90
        3
176
     1
 90
        0
176
     1
 90
        0
176
     1
290
     0
176
     1
 90
        5
176
     1
 40
0.0
176
     1
 90
        0
176
     1
290
     0
176
     1
290
     1
176
     1
290
     1
176
     1
290
     0
176
     1
290
     0
176
     1
290
     0
176
     1
290
     0
176
     1
290
     0
176
     1
290
     0
176
     1
 90
       50
176
     1
 40
0.0
176
     1
 40
1.0
176
     1
 90
        0
176
     1
 62
    18
420
        0
176
     1
 90
       50
176
     1
 90
        3
176
     1
 62
     5
420
      255
176
     1
290
     0
176
     1
 90
       50
176
     1
 90
       50
176
     1
 90
       50
176
     1
290
     0
176
     1
 90
       50
176
     1
 62
   256
176
     0
 40
1.0
176
     0
 90
        2
176
     1
  1
strokes_ogs.tif
176
     1
290
     0
176
     1
 40
1.0
176
     1
 40
1.0
176
     1
  0
VISUALSTYLE
  5
3A
102
{ACAD_REACTORS
330
29
102
}
330
29
100
AcDbVisualStyle
  2
Shades of Gray
 70
    23
177
     3
291
     0
 70
    58
 90
        2
176
     1
 90
        2
176
     1
 90
        3
176
     1
 90
        0
176
     1
 40
0.6
176
     1
 40
30.0
176
     1
 62
     7
420
 16777215
176
     1
 90
        2
176
     1
 90
        2
176
     1
 62
     7
176
     1
 62
     7
176
     1
 90
        1
176
     1
 90
        1
176
     1
 40
40.0
176
     1
 90
        8
176
     1
 62
     7
176
     1
 40
1.0
176
     1
 90
        1
176
     1
 90
        6
176
     1
 90
        2
176
     1
 62
     7
176
     1
 90
        3
176
     1
 90
        0
176
     1
 90
        0
176
     1
290
     0
176
     1
 90
        1
176
     1
 40
0.0
176
     1
 90
        0
176
     1
290
     0
176
     1
290
     1
176
     1
290
     1
176
     1
290
     0
176
     1
290
     0
176
     1
290
     0
176
     1
290
     0
176
     1
290
     0
176
     1
290
     0
176
     1
 90
       50
176
     1
 40
0.0
176
     1
 40
1.0
176
     1
 90
        0
176
     1
 62
    18
420
        0
176
     1
 90
       50
176
     1
 90
        3
176
     1
 62
     5
420
      255
176
     1
290
     0
176
     1
 90
       50
176
     1
 90
       50
176
     1
 90
       50
176
     1
290
     0
176
     1
 90
       50
176
     1
 62
   256
176
     0
 40
1.0
176
     0
 90
        2
176
     1
  1
strokes_ogs.tif
176
     1
290
     0
176
     1
 40
1.0
176
     1
 40
1.0
176
     1
  0
VISUALSTYLE
  5
3B
102
{ACAD_REACTORS
330
29
102
}
330
29
100
AcDbVisualStyle
  2
Sketchy
 70
    24
177
     3
291
     0
 70
    58
 90
        1
176
     1
 90
        2
176
     1
 90
        2
176
     1
 90
        0
176
     1
 40
0.6
176
     1
 40
30.0
176
     1
 62
     7
420
 16777215
176
     1
 90
        2
176
     1
 90
        2
176
     1
 62
     7
176
     1
 62
     7
176
     1
 90
        1
176
     1
 90
        1
176
     1
 40
40.0
176
     1
 90
       11
176
     1
 62
     7
176
     1
 40
1.0
176
     1
 90
        1
176
     1
 90
        6
176
     1
 90
        2
176
     1
 62
     7
176
     1
 90
        6
176
     1
 90
        0
176
     1
 90
        0
176
     1
290
     0
176
     1
 90
        1
176
     1
 40
0.0
176
     1
 90
        0
176
     1
290
     0
176
     1
290
     1
176
     1
290
     1
176
     1
290
     0
176
     1
290
     0
176
     1
290
     0
176
     1
290
     0
176
     1
290
     0
176
     1
290
     0
176
     1
 90
       50
176
     1
 40
0.0
176
     1
 40
1.0
176
     1
 90
        0
176
     1
 62
    18
420
        0
176
     1
 90
       50
176
     1
 90
        3
176
     1
 62
     5
420
      255
176
     1
290
     0
176
     1
 90
       50
176
     1
 90
       50
176
     1
 90
       50
176
     1
290
     0
176
     1
 90
       50
176
     1
 62
   256
176
     0
 40
1.0
176
     0
 90
        2
176
     1
  1
strokes_ogs.tif
176
     1
290
     0
176
     1
 40
1.0
176
     1
 40
1.0
176
     1
  0
VISUALSTYLE
  5
36
102
{ACAD_REACTORS
330
29
102
}
330
29
100
AcDbVisualStyle
  2
Thicken
 70
    13
177
     3
291
     1
 70
    58
 90
        2
176
     1
 90
        2
176
     1
 90
        0
176
     1
 90
        0
176
     1
 40
0.6
176
     1
 40
30.0
176
     1
 62
     7
420
 16777215
176
     1
 90
        1
176
     1
 90
        4
176
     1
 62
     7
176
     1
 62
   257
176
     1
 90
        1
176
     1
 90
        1
176
     1
 40
1.0
176
     1
 90
       12
176
     1
 62
     7
176
     1
 40
1.0
176
     1
 90
        1
176
     1
 90
        6
176
     1
 90
        2
176
     1
 62
     7
176
     1
 90
        5
176
     1
 90
        0
176
     1
 90
        0
176
     1
290
     0
176
     1
 90
        1
176
     1
 40
0.0
176
     1
 90
        0
176
     1
290
     0
176
     1
290
     1
176
     1
290
     1
176
     1
290
     0
176
     1
290
     0
176
     1
290
     0
176
     1
290
     0
176
     1
290
     0
176
     1
290
     0
176
     1
 90
       50
176
     1
 40
0.0
176
     1
 40
1.0
176
     1
 90
        0
176
     1
 62
    18
420
        0
176
     1
 90
       50
176
     1
 90
        3
176
     1
 62
     5
420
      255
176
     1
290
     0
176
     1
 90
       50
176
     1
 90
       50
176
     1
 90
       50
176
     1
290
     0
176
     1
 90
       50
176
     1
 62
   256
176
     0
 40
1.0
176
     0
 90
        2
176
     1
  1
strokes_ogs.tif
176
     1
290
     0
176
     1
 40
1.0
176
     1
 40
1.0
176
     1
  0
VISUALSTYLE
  5
30
102
{ACAD_REACTORS
330
29
102
}
330
29
100
AcDbVisualStyle
  2
Wireframe
 70
     5
177
     3
291
     0
 70
    58
 90
        0
176
     1
 90
        2
176
     1
 90
        0
176
     1
 90
        0
176
     1
 40
0.6
176
     1
 40
30.0
176
     1
 62
     7
420
 16777215
176
     1
 90
        1
176
     1
 90
        4
176
     1
 62
     7
176
     1
 62
   257
176
     1
 90
        1
176
     1
 90
        1
176
     1
 40
1.0
176
     1
 90
        0
176
     1
 62
   257
176
     1
 40
1.0
176
     1
 90
        1
176
     1
 90
        6
176
     1
 90
        2
176
     1
 62
     7
176
     1
 90
        3
176
     1
 90
        0
176
     1
 90
        0
176
     1
290
     0
176
     1
 90
        1
176
     1
 40
0.0
176
     1
 90
        0
176
     1
290
     0
176
     1
290
     1
176
     1
290
     1
176
     1
290
     0
176
     1
290
     0
176
     1
290
     0
176
     1
290
     0
176
     1
290
     0
176
     1
290
     0
176
     1
 90
       50
176
     1
 40
0.0
176
     1
 40
1.0
176
     1
 90
        0
176
     1
 62
    18
420
        0
176
     1
 90
       50
176
     1
 90
        3
176
     1
 62
     5
420
      255
176
     1
290
     0
176
     1
 90
       50
176
     1
 90
       50
176
     1
 90
       50
176
     1
290
     0
176
     1
 90
       50
176
     1
 62
   256
176
     0
 40
1.0
176
     0
 90
        2
176
     1
  1
strokes_ogs.tif
176
     1
290
     0
176
     1
 40
1.0
176
     1
 40
1.0
176
     1
  0
VISUALSTYLE
  5
3C
102
{ACAD_REACTORS
330
29
102
}
330
29
100
AcDbVisualStyle
  2
X-Ray
 70
    25
177
     3
291
     0
 70
    58
 90
        2
176
     1
 90
        2
176
     1
 90
        1
176
     1
 90
        1
176
     1
 40
0.5
176
     1
 40
30.0
176
     1
 62
     7
420
 16777215
176
     1
 90
        1
176
     1
 90
        0
176
     1
 62
     7
176
     1
 62
   257
176
     1
 90
        1
176
     1
 90
        1
176
     1
 40
1.0
176
     1
 90
        8
176
     1
 62
     7
176
     1
 40
1.0
176
     1
 90
        1
176
     1
 90
        6
176
     1
 90
        2
176
     1
 62
     7
176
     1
 90
        3
176
     1
 90
        0
176
     1
 90
        0
176
     1
290
     0
176
     1
 90
       13
176
     1
 40
0.0
176
     1
 90
        0
176
     1
290
     0
176
     1
290
     1
176
     1
290
     1
176
     1
290
     0
176
     1
290
     0
176
     1
290
     0
176
     1
290
     0
176
     1
290
     0
176
     1
290
     0
176
     1
 90
       50
176
     1
 40
0.0
176
     1
 40
1.0
176
     1
 90
        0
176
     1
 62
    18
420
        0
176
     1
 90
       50
176
     1
 90
        3
176
     1
 62
     5
420
      255
176
     1
290
     0
176
     1
 90
       50
176
     1
 90
       50
176
     1
 90
       50
176
     1
290
     0
176
     1
 90
       50
176
     1
 62
   256
176
     0
 40
1.0
176
     0
 90
        2
176
     1
  1
strokes_ogs.tif
176
     1
290
     0
176
     1
 40
1.0
176
     1
 40
1.0
176
     1
  0
DICTIONARYVAR
  5
AE
102
{ACAD_REACTORS
330
A9
102
}
330
A9
100
DictionaryVariables
280
     0
  1
1:1
  0
DICTIONARYVAR
  5
AB
102
{ACAD_REACTORS
330
A9
102
}
330
A9
100
DictionaryVariables
280
     0
  1
STANDARD
  0
DICTIONARYVAR
  5
AA
102
{ACAD_REACTORS
330
A9
102
}
330
A9
100
DictionaryVariables
280
     0
  1
STANDARD
  0
DICTIONARYVAR
  5
AC
102
{ACAD_REACTORS
330
A9
102
}
330
A9
100
DictionaryVariables
280
     0
  1
Imperial24
  0
DICTIONARYVAR
  5
AD
102
{ACAD_REACTORS
330
A9
102
}
330
A9
100
DictionaryVariables
280
     0
  1
Imperial24
  0
DICTIONARY
  5
1A
330
19
100
AcDbDictionary
280
     1
281
     1
  3
BUMPTILE
360
1C
  3
DIFFUSETILE
360
1B
  3
OPACITYTILE
360
1F
  3
REFLECTIONTILE
360
1E
  3
REFRACTIONTILE
360
20
  3
SPECULARTILE
360
1D
  0
DICTIONARY
  5
12
330
11
100
AcDbDictionary
280
     1
281
     1
  3
BUMPTILE
360
14
  3
DIFFUSETILE
360
13
  3
OPACITYTILE
360
17
  3
REFLECTIONTILE
360
16
  3
REFRACTIONTILE
360
18
  3
SPECULARTILE
360
15
  0
DICTIONARY
  5
22
330
21
100
AcDbDictionary
280
     1
281
     1
  3
BUMPTILE
360
24
  3
DIFFUSETILE
360
23
  3
OPACITYTILE
360
27
  3
REFLECTIONTILE
360
26
  3
REFRACTIONTILE
360
28
  3
SPECULARTILE
360
25
  0
DICTIONARY
  5
AF
330
65
100
AcDbDictionary
280
     1
281
     1
  3
ACAD_ROUNDTRIP_2008_TABLESTYLE_CELLSTYLEMAP
360
B0
  0
XRECORD
  5
1C
102
{ACAD_REACTORS
330
1A
102
}
330
1A
100
AcDbXrecord
280
     1
270
     1
271
     1
  0
XRECORD
  5
1B
102
{ACAD_REACTORS
330
1A
102
}
330
1A
100
AcDbXrecord
280
     1
270
     1
271
     1
  0
XRECORD
  5
1F
102
{ACAD_REACTORS
330
1A
102
}
330
1A
100
AcDbXrecord
280
     1
270
     1
271
     1
  0
XRECORD
  5
1E
102
{ACAD_REACTORS
330
1A
102
}
330
1A
100
AcDbXrecord
280
     1
270
     1
271
     1
  0
XRECORD
  5
20
102
{ACAD_REACTORS
330
1A
102
}
330
1A
100
AcDbXrecord
280
     1
270
     1
271
     1
  0
XRECORD
  5
1D
102
{ACAD_REACTORS
330
1A
102
}
330
1A
100
AcDbXrecord
280
     1
270
     1
271
     1
  0
XRECORD
  5
14
102
{ACAD_REACTORS
330
12
102
}
330
12
100
AcDbXrecord
280
     1
270
     1
271
     1
  0
XRECORD
  5
13
102
{ACAD_REACTORS
330
12
102
}
330
12
100
AcDbXrecord
280
     1
270
     1
271
     1
  0
XRECORD
  5
17
102
{ACAD_REACTORS
330
12
102
}
330
12
100
AcDbXrecord
280
     1
270
     1
271
     1
  0
XRECORD
  5
16
102
{ACAD_REACTORS
330
12
102
}
330
12
100
AcDbXrecord
280
     1
270
     1
271
     1
  0
XRECORD
  5
18
102
{ACAD_REACTORS
330
12
102
}
330
12
100
AcDbXrecord
280
     1
270
     1
271
     1
  0
XRECORD
  5
15
102
{ACAD_REACTORS
330
12
102
}
330
12
100
AcDbXrecord
280
     1
270
     1
271
     1
  0
XRECORD
  5
24
102
{ACAD_REACTORS
330
22
102
}
330
22
100
AcDbXrecord
280
     1
270
     1
271
     1
  0
XRECORD
  5
23
102
{ACAD_REACTORS
330
22
102
}
330
22
100
AcDbXrecord
280
     1
270
     1
271
     1
  0
XRECORD
  5
27
102
{ACAD_REACTORS
330
22
102
}
330
22
100
AcDbXrecord
280
     1
270
     1
271
     1
  0
XRECORD
  5
26
102
{ACAD_REACTORS
330
22
102
}
330
22
100
AcDbXrecord
280
     1
270
     1
271
     1
  0
XRECORD
  5
28
102
{ACAD_REACTORS
330
22
102
}
330
22
100
AcDbXrecord
280
     1
270
     1
271
     1
  0
XRECORD
  5
25
102
{ACAD_REACTORS
330
22
102
}
330
22
100
AcDbXrecord
280
     1
270
     1
271
     1
  0
CELLSTYLEMAP
  5
B0
102
{ACAD_REACTORS
330
AF
102
}
330
AF
100
AcDbCellStyleMap
 90
        3
300
CELLSTYLE
  1
TABLEFORMAT_BEGIN
 90
        5
170
     1
 91
        0
 92
    32768
 62
   257
 93
        1
300
CONTENTFORMAT
  1
CONTENTFORMAT_BEGIN
 90
        0
 91
        0
 92
      512
 93
        0
300

 40
0.0
140
1.0
 94
        5
 62
     0
340
55
144
0.25
309
CONTENTFORMAT_END
171
     0
 94
        0
309
TABLEFORMAT_END
  1
CELLSTYLE_BEGIN
 90
        1
 91
        1
300
_TITLE
309
CELLSTYLE_END
300
CELLSTYLE
  1
TABLEFORMAT_BEGIN
 90
        5
170
     1
 91
        0
 92
        0
 62
   257
 93
        1
300
CONTENTFORMAT
  1
CONTENTFORMAT_BEGIN
 90
        0
 91
        0
 92
      512
 93
        0
300

 40
0.0
140
1.0
 94
        5
 62
     0
340
55
144
0.18
309
CONTENTFORMAT_END
171
     0
 94
        0
309
TABLEFORMAT_END
  1
CELLSTYLE_BEGIN
 90
        2
 91
        1
300
_HEADER
309
CELLSTYLE_END
300
CELLSTYLE
  1
TABLEFORMAT_BEGIN
 90
        5
170
     1
 91
        0
 92
        0
 62
   257
 93
        1
300
CONTENTFORMAT
  1
CONTENTFORMAT_BEGIN
 90
        0
 91
        0
 92
      512
 93
        0
300

 40
0.0
140
1.0
 94
        2
 62
     0
340
55
144
0.18
309
CONTENTFORMAT_END
171
     0
 94
        0
309
TABLEFORMAT_END
  1
CELLSTYLE_BEGIN
 90
        3
 91
        2
300
_DATA
309
CELLSTYLE_END
  0
ENDSEC
  0
EOF
